<svg xmlns="http://www.w3.org/2000/svg" viewBox="0 0 1920 1812"><defs><style>.cls-1{fill:#aaa199;}</style></defs><title>Sin título-2</title><g id="Capa_2" data-name="Capa 2"><path class="cls-1" d="M1492.51-1.17c23.46,31.44,31.36,70.78,33.36,109.23,2.47,47.22-1.5,94.9,8.15,141.54,7.18,34.69,23.86,69.85,50.7,93.61s61.41,33.08,96.85,28.35c33.1-4.41,63.65-18.15,94.36-30.5,29.64-11.92,59.59-23.4,90.92-20.69a73.48,73.48,0,0,1,8.72,1.48,97.73,97.73,0,0,1,11,3.17A75.66,75.66,0,0,1,1905,335.15c10.57,7.84,19.34,19.68,25.65,32.72,12.76,26.41,13.7,58.26,3.67,86.42-11.75,33-37.15,60.41-65.16,80.58-33.24,24-71.38,38.17-108.15,55.54-36.35,17.18-70.88,39.47-93.34,73.65a119.7,119.7,0,0,0-19.31,54.47c-2,21.11,3.21,42.25,11.36,61.58,16.56,39.27,46.39,70.79,64.07,109.4,12.64,27.58,15.87,64.39-5.25,87.08-11.67,12.54-28.9,15.15-46.32,15.28-19.11.14-38.52-1.44-57,4.6-16.43,5.38-33.12,15.58-40.53,31.87-8.31,18.27-4.36,37.85,8.45,52.9,11.73,13.81,30.09,22.33,47.61,25.72,18.92,3.66,39.94,3,57.77,11.08,13.78,6.23,22,16.85,28,30.82,5.64,13,9.15,30.55,12.23,45.63,3.37,16.52,6.46,33.38,12.79,49.08a176,176,0,0,0,31.38,50.36c12.32,14,27.28,26.81,44,35.31s33.35,10.11,51.52,12.18,36.48,5.25,52.69,13.88c17,9.06,32.21-16.82,15.14-25.91-19.3-10.26-40.09-14.53-61.58-17.23-15.88-2-29.89-2.2-43.45-9.26-30.35-15.79-55-46.48-64.85-79.11-9.62-31.89-11.05-66.42-27-96.27-8-15-20.36-28-35.77-35.38-19.19-9.14-39.91-9.9-60.51-13.32-14.4-2.39-31-7.78-39.13-19.28-7.38-10.37-3.83-20.75,5.8-27.5,13.93-9.76,29.33-10.43,46-10.3,21.53.17,43,.56,63-8.64,32.49-15,46.89-54,44.8-87.77-2.59-41.9-27.7-76.91-50.19-110.65-20.89-31.36-43.46-68.94-32.68-108,9.59-34.82,39.36-60,69.63-77.11,36.54-20.67,77-33.49,113-55.07,32.44-19.4,62.1-44.77,82.58-76.81,18.93-29.61,28.37-64.48,23.86-99.53-4.16-32.37-18.62-64.42-44.67-85-27.54-21.75-61.84-26.47-95.71-20.51-32.41,5.7-62.52,20.29-93,32.2-15.34,6-30.94,11.58-47.07,15.11-13,2.84-28.82,4.25-41.32,2-32.91-5.83-56.32-29.22-71-58.46-18.32-36.36-19.78-78-20.18-117.91-.43-43.41.31-87.62-12.75-129.53-5.8-18.64-14.07-36.68-25.78-52.36-4.84-6.48-13-9.79-20.52-5.38-6.39,3.74-10.26,14-5.38,20.52Z"/><path class="cls-1" d="M-13.24,597.1c28.25,4.87,56.78,4,85-1.1,16.55-3,33.59-8.22,47.45-18,17.35-12.29,33.48-31,28.65-53.8-2.74-12.92-12.92-22.68-24.88-27.33-12.45-4.85-26.78-1.69-38.19,4.44-25,13.43-36.29,41.59-42.59,67.81-6.57,27.34-6.55,55.48-1.27,83S57,705.92,70.33,730.38a330.46,330.46,0,0,0,44.87,63.21c33.29,36.89,74.61,66.44,118.34,89.7,23.06,12.26,47.15,22.38,70.47,34.1A334.9,334.9,0,0,1,338.44,937q4.05,2.67,8,5.52c1.21.88,2.4,1.78,3.61,2.67,1.42,1.06.06.05-.19-.15.88.7,1.76,1.4,2.63,2.12a161.81,161.81,0,0,1,13,12c2.07,2.11,4.09,4.29,6,6.52.9,1,1.78,2.07,2.65,3.12.58.7,1.14,1.42,1.72,2.12-1-1.17-.53-.73.16.2a139,139,0,0,1,9.63,14.73c1.43,2.53,2.76,5.12,4,7.75.26.55,1.67,3.76,1.14,2.47-.71-1.68.34.91.49,1.3q.48,1.23.93,2.49a99,99,0,0,1,4.37,16.58c.08.45.48,3.21.23,1.27s0,.38.05.62c.12,1.32.24,2.64.32,4a87.62,87.62,0,0,1,0,9.31c-.07,1.31-.16,2.62-.29,3.93-.06.63-.14,1.25-.2,1.87-.21,2.27.48-2.52,0-.3-.54,2.61-.95,5.23-1.61,7.81s-1.39,5.07-2.25,7.56c-.46,1.33-1,2.65-1.47,4-.1.27-.89,2.14-.16.44s-.32.66-.46,1a112.53,112.53,0,0,1-7.61,13.82q-2.16,3.36-4.53,6.57c-.36.5-.74,1-1.11,1.49-1.31,1.8,1.5-1.81.07-.1-.94,1.12-1.83,2.27-2.77,3.38-3.53,4.19-7.28,8.19-11.17,12-4.12,4.06-8.42,8-12.82,11.71q-3.21,2.73-6.51,5.37c-1,.82-2,1.63-3.05,2.43-.15.12-1.86,1.45-.54.43,1.48-1.14-1.63,1.23-1.58,1.2-20.75,15.68-42.84,29.62-64.57,43.88-44.64,29.3-89.68,58-134.8,86.52-44.27,28-88.57,56-132.51,84.52q-17.48,11.34-34.89,22.8c-6.54,4.31-9.93,13.47-5.38,20.53,4.21,6.53,13.52,10,20.53,5.38,43.67-28.75,87.74-56.91,131.92-84.89,42.91-27.17,85.89-54.25,128.56-81.8q34.81-22.48,69.35-45.41c19.85-13.18,39.67-26.55,57.62-42.29,16.56-14.53,32.05-31.76,41.44-51.89,10.52-22.55,13.62-47.21,7.71-71.53-12.38-50.85-56.09-85.22-100.4-108.07-22.7-11.71-46.3-21.56-69-33.26a491.11,491.11,0,0,1-61-37.12q-3.37-2.43-6.72-4.92l-3.86-2.92.29.22-2.18-1.7q-7.05-5.58-13.86-11.46c-8.85-7.68-17.36-15.76-25.42-24.27q-6.15-6.48-12-13.29-2.67-3.15-5.26-6.36c-1-1.25-2-2.51-3-3.77,1.57,2-.94-1.26-1.41-1.88A304.41,304.41,0,0,1,100.57,723q-5.2-9-9.87-18.33-2.28-4.57-4.42-9.24-1-2.13-1.91-4.28c-.32-.71-.63-1.42-.93-2.14.62,1.46-.06-.14-.29-.71a241.81,241.81,0,0,1-12-37.58c-.66-2.91-1.25-5.82-1.78-8.75-.26-1.46-.51-2.92-.74-4.39-.11-.73-.21-1.46-.33-2.19-.4-2.48.21,2.09,0-.4-.65-6.36-1.23-12.69-1.34-19.09a175.14,175.14,0,0,1,.74-19.16c.14-1.48.33-3,.48-4.43.18-1.78,0,0,0,.3q.15-1.11.33-2.22.83-5.21,2-10.34a171.12,171.12,0,0,1,5.45-19.23,94.9,94.9,0,0,1,6.39-15.5c1.24-2.36,2.74-4.5,4.2-6.72.91-1.4-.27.34-.42.51.42-.49.82-1,1.24-1.48,1-1.15,2-2.26,3.1-3.33s1.89-1.83,2.88-2.69c.5-.44,1-.84,1.51-1.27,1.71-1.46-1.83,1.07.12,0,2.47-1.41,4.81-2.94,7.34-4.27-2.23,1.17.2,0,1.23-.37,1.22-.4,2.47-.68,3.72-1,.27-.07,2.38-.37.53-.14-2,.25.72,0,1.2,0s1.11,0,1.66,0c2.57-.18-1.06,0-1-.25a17.86,17.86,0,0,1,3,.68c.48.15,1,.38,1.45.49,1.71.38-1.41-.4-1.24-.53s2.36,1.33,2.66,1.5,1.86,1.18.13,0,.54.57.8.81a7.4,7.4,0,0,0,1,1.11c1.52.94-1.06-1.11-.75-1,.52.11,1.34,2.16,1.62,2.61,1.36,2.19-.49-2.31.07.24a7.84,7.84,0,0,0,.41,1.53c.72,1.4.06-2.43,0-.81-.08,1.27,0,2.64,0,3.91,0-2.64.08-.84-.37.71-.31,1.07-1.61,3.24-.41,1.29-.89,1.46-1.63,3-2.6,4.38s-.28.41-.06.14c-.42.51-.87,1-1.31,1.5s-1,1.1-1.5,1.63c-.95,1-1.93,2-2.93,3s-1.91,1.79-2.9,2.65l-1.8,1.5c-2.26,1.9,1-.7.61-.45-2.51,1.69-4.94,3.44-7.57,5-1.48.84-3,1.64-4.5,2.39-.73.36-1.47.71-2.21,1l-1.14.51c-1.84.86.73-.39,1.22-.5-3.85.92-7.63,2.85-11.46,4-4.52,1.3-9.1,2.36-13.71,3.25q-3.57.69-7.17,1.24c-1.27.2-2.53.38-3.8.56,3.27-.45-1.79.19-2.68.29-6.19.68-12.4,1.16-18.61,1.49a189,189,0,0,1-20.34,0q-5.3-.28-10.58-.88L.46,569.1c.36,0,1.7.24-.07,0s-3.78-.59-5.66-.91c-7.7-1.33-16.53,2.05-18.45,10.48-1.66,7.28,2.21,17,10.48,18.45Z"/></g></svg>