<svg xmlns="http://www.w3.org/2000/svg" viewBox="0 0 1920 2976"><defs><style>.cls-1{fill:#aaa199;}</style></defs><title>Sin título-2</title><g id="Capa_2" data-name="Capa 2"><path class="cls-1" d="M513.67,2825.76c-24.48-25.43-55.44-42.7-88.17-55.18-31.54-12-64.63-19.38-97.58-26.41-31.39-6.7-62.77-13.35-93.1-24.07q-5.52-1.95-11-4.07-2.64-1-5.25-2.09c-.93-.37-1.85-.76-2.78-1.14s-2.56-1.14,1.51.64l-1.38-.59c-7.17-3.1-14.24-6.45-21.14-10.11S181.39,2695.23,175,2691q-4.68-3.09-9.18-6.44c-.67-.5-1.33-1-2-1.52,4,2.95,1.14.88.21.14-1.5-1.19-3-2.41-4.43-3.64a165,165,0,0,1-16.12-15.61q-1.78-2-3.5-4c-.62-.72-1.22-1.46-1.82-2.2l-.66-.83c-1.52-1.91.41.48.8,1.07-2.14-3.16-4.53-6.14-6.61-9.35a148.19,148.19,0,0,1-10.79-20c-1-2.15.6,1.45.63,1.51-.22-.43-.39-1-.57-1.39-.33-.82-.64-1.63-1-2.46q-1.12-3-2.1-6-1.78-5.55-3-11.22c-.86-3.79-1.53-7.61-2.07-11.45l.54,4a144.92,144.92,0,0,1,0-38.25l-.53,4a146.05,146.05,0,0,1,7.37-29.92c.43-1.17.87-2.35,1.33-3.51.19-.47.38-.93.56-1.4,1-2.6-1.28,3-.5,1.16,1.06-2.41,2.14-4.81,3.31-7.16a134.39,134.39,0,0,1,7.42-13c1.35-2.1,2.76-4.17,4.24-6.19.72-1,3.6-4.54.37-.56.86-1.07,1.71-2.15,2.6-3.21a123.25,123.25,0,0,1,10.79-11.37q2.85-2.66,5.87-5.11c.53-.44,1.07-.86,1.6-1.29,1.88-1.52-1,.73-1.08.84a43.64,43.64,0,0,1,4-2.9,124,124,0,0,1,14.07-8.5q2.19-1.12,4.42-2.16l1.49-.69,1.5-.66q-3.3,1.38-1.69.72c2.91-1.17,5.84-2.28,8.83-3.23a110.43,110.43,0,0,1,18.21-4.17l-4,.53a99.78,99.78,0,0,1,25.84-.16l-4-.53a85.43,85.43,0,0,1,20.13,5.2c2.94,1.17-2.7-1.22-.53-.22.67.3,1.34.6,2,.92q2.33,1.11,4.59,2.35a89,89,0,0,1,8.73,5.51c.6.42,1.18.88,1.78,1.3-3.88-2.73-1.33-1-.42-.3q2,1.64,3.9,3.37a87.31,87.31,0,0,1,7.15,7.37q.72.82,1.41,1.68c.31.37.61.76.92,1.13.95,1.17-1.3-1.79-1.23-1.59.46,1.4,2.11,2.91,2.94,4.17a78.23,78.23,0,0,1,5.05,8.8c.37.76.73,1.52,1.07,2.29,1.28,2.84-1.25-3.15-.11-.26.65,1.68,1.25,3.39,1.78,5.11a71.21,71.21,0,0,1,2.45,11.29l-.54-4a69.87,69.87,0,0,1,0,17.28l.54-4a74.85,74.85,0,0,1-2.19,10.51c-.46,1.6-1,3.19-1.53,4.75-.31.85-.63,1.68-1,2.52-.18.49-.76,1.85.17-.37,1-2.46.09-.23-.17.33a82.37,82.37,0,0,1-5.12,9.53c-.89,1.42-1.82,2.83-2.79,4.2-.25.34-1.27,2.15-1.61,2.2-.13,0,2.1-2.65,1.15-1.5-.33.4-.64.81-1,1.21a90.8,90.8,0,0,1-7.42,8q-2,1.89-4.06,3.66c-.59.5-1.19,1-1.8,1.49-2.6,2.09,2.57-1.9-.06,0a86.9,86.9,0,0,1-9.14,5.91q-2.46,1.38-5,2.62c-.92.44-1.84.87-2.77,1.29a7.44,7.44,0,0,1-1.19.53c1.08-.28,3-1.23.77-.34a113.51,113.51,0,0,1-26.52,6.87l4-.54a139,139,0,0,1-35.94-.1l4,.54a119.37,119.37,0,0,1-19.09-3.95c-2.21-.68-4.38-1.44-6.54-2.27l-1.63-.65c-2.62-1,3.4,1.48,1.48.63-1.18-.52-2.35-1-3.51-1.58a160.74,160.74,0,0,1-26.8-16.31c-1.09-.8-2.16-1.61-3.23-2.42-1.83-1.39,3.14,2.46,1,.74l-1.83-1.45q-3.36-2.68-6.62-5.48-6.68-5.72-13-11.81c-8.59-8.24-16.76-16.9-24.62-25.84S68.13,2507.25,60.91,2498l-.55-.71c-1-1.34,2.29,3,1.26,1.62l-1.27-1.65c-.84-1.09-1.67-2.18-2.5-3.28-1.69-2.24-3.37-4.48-5-6.74q-4.78-6.48-9.43-13.06Q29.07,2453.83,16,2432.66c-3.84-6.24-7.72-12.53-11.22-19-1.93-3.54-3.73-7.13-5.47-10.76-3.41-7.09-14.1-9.52-20.52-5.38-7.29,4.69-9,12.94-5.39,20.52,8,16.65,18.11,32.42,28.21,47.84,19.79,30.23,41.43,59.53,65.74,86.29,12.69,14,26.23,27.31,41.12,38.95,15.14,11.84,31.17,22.22,49.48,28.49,11.07,3.79,23,5.46,34.63,6.28a140.89,140.89,0,0,0,44-3.78c27.54-6.92,52-23.85,66.88-48.18,14-22.95,17.89-51.95,7.55-77.09-10.44-25.38-30.6-44.62-55.83-55.11-24.65-10.24-53.69-9.11-78.5,0a142.07,142.07,0,0,0-66.06,50.32c-29.11,40-37.07,96.59-19.32,142.85a161.87,161.87,0,0,0,41.16,60.56c17.3,16.06,37.49,28.87,58.8,38.93a419.33,419.33,0,0,0,69.54,25.09c23.32,6.31,47.05,10.9,70.64,16,24.56,5.35,49.08,11.15,72.91,19.2q9.08,3.07,18,6.61l3.68,1.49c2.79,1.14-3.43-1.47-.67-.28l2.18.94q4.34,1.89,8.61,3.93A226.67,226.67,0,0,1,468,2825.86c2.36,1.64,4.62,3.4,7,5.07-4.17-3,0,.05,1,.81q1.68,1.35,3.33,2.75,6.94,5.91,13.26,12.48c5.45,5.67,15.8,5.9,21.21,0a15.28,15.28,0,0,0,0-21.21Z"/><path class="cls-1" d="M1926.09,1917.41c-70.09,9.81-143.44,4.23-209.47-22.2-53.26-21.32-101-56.79-138.28-100.2-70.24-81.74-106.74-210.56-40.85-305.74,28.37-41,80.74-69,128.71-43.15,45.42,24.43,69.18,81.75,57.91,131.45-12.82,56.51-58.39,99.51-109.31,123.6-47.86,22.65-103.84,28-155.7,18.83-52.48-9.33-102.9-32.35-142.82-67.9-47.33-42.15-72-98.07-90.28-157.67-19.08-62.22-33.86-126.84-69.38-182.36-28.58-44.65-72.49-86.35-127.63-91-45.33-3.86-90.86,14.7-131.27,33-47,21.27-91.72,47.06-138.51,68.7-38.23,17.67-80.45,34.88-123.27,29.65-41.26-5-78.12-28.4-109.8-54-35-28.28-66.47-60.66-101-89.56-31.74-26.59-67.41-52.22-108.75-60.71-49.95-10.27-99.67,7.44-141.45,34.51-50,32.39-90,77.2-133.25,117.59-22.61,21.14-46.18,40.87-72.6,57.12-16.41,10.11-1.36,36.07,15.14,25.91,55.15-33.94,98.31-82.24,145.33-126,39.49-36.72,88.42-76.85,144.45-81.92,40.79-3.69,77.3,14.78,109.71,38.65,36.92,27.19,68.81,60.7,103.39,90.67s72.75,58.72,117.47,71.66c44.94,13,89.33,5,132.11-11.62,49.9-19.37,96.56-46,144.43-69.69,41.06-20.35,86.69-43.13,133.44-44.39,51.84-1.38,93.18,39,119.25,81.61,35.92,58.73,48.49,127,70,191.47,20.4,61.11,50.62,117.11,101.31,158.2,44.11,35.75,97.62,59.82,153.83,68.31,57.62,8.7,116.58,2.19,169.63-22.54,55-25.62,103.5-72.23,121.5-131.24,16.91-55.41.09-118.83-43.15-157.86-43.82-39.55-107.29-42.45-154.7-7.15-100.61,74.9-94.2,222.11-39.08,322.09,29.17,52.92,72,98,121.88,131.81,54.86,37.2,118,58.1,183.76,64.47,38.5,3.73,77,1.89,115.22-3.46,8-1.12,12.46-11.38,10.48-18.46-2.42-8.63-10.37-11.6-18.46-10.47Z"/><path class="cls-1" d="M1925.63,101.42c-60,10.23-121.47,2.39-181.62-1.72-46.14-3.15-92.93-2.24-138.2,8.09-42.27,9.64-84.33,28.77-113.43,61.81-32.75,37.18-42,84.56-51.5,131.65-9.11,45-21.49,92.36-64.83,116-40.78,22.22-91.34,17.54-130.71-5.25-43.34-25.09-72.22-67.21-91.77-112.32-20.35-46.94-34.63-100.83-72.45-137.55-30.44-29.55-79.73-49.19-121.68-34.88-49.27,16.82-63.36,69.44-53.3,116.18,11.37,52.83,52.79,92.17,66.88,143.72,10.92,39.95-1.84,84.2-28,115.6-27,32.41-67.41,52.76-110.19,46.49-44-6.47-82.86-37-102.67-76.37-10.27-20.39-14-42.8-11.91-65.46C722.84,379.05,733,352,738,324c9-50.6-3.08-97.72-36.82-136.76-30.61-35.41-75.3-60-121.18-68.63-59.56-11.18-120.51-1-177.86,16.3-57.51,17.37-112.43,42.18-169.69,60.28C178.18,212.38,120,224.34,63.35,213.07A219.37,219.37,0,0,1-9,185.24c-16.5-10.11-31.59,15.83-15.14,25.91,48.18,29.53,106,40.15,161.86,34.92,59.62-5.57,116.15-25.4,171.81-46.41,100.72-38,224.4-88.93,326.59-27.74,37.48,22.44,70,59.74,74.74,104.63,5.85,55.18-27.32,106.51-20,162.13,12.19,93.08,115.33,166.66,206.7,133.56,42.17-15.28,76.71-48.88,94.77-89.79,19.89-45,18-91.62-2.91-135.88C967.92,301,929,259,932.87,205.38c1.45-20.26,12.37-39.87,31.55-48.11,17.67-7.59,38-5,55.66,1.26,47.39,16.7,69.85,63.08,87.43,106.69,19.74,49,38.67,97.17,76.06,135.84,34.28,35.48,80.31,59.77,130.28,60.58,49,.8,96.87-20.67,124.27-62.08,27-40.77,30.13-91.32,41.71-137.5,5.66-22.53,13.49-44.39,27.32-63.29,12.26-16.72,28.68-30,46.7-40,88.61-49.43,195.54-25.08,291.18-22.72,29.69.74,59.27-.67,88.58-5.67,19-3.24,10.94-32.16-8-28.93Z"/></g></svg>