<svg xmlns="http://www.w3.org/2000/svg" viewBox="0 0 1080 952"><title>graduate</title><g id="Capa_5" data-name="Capa 5"><path d="M982.91,525c1.87,2.08,3.47,3.92,5.11,5.72,4.54,5,9.13,9.87,13.62,14.88,5.9,6.59,11.9,13.1,17.53,19.92q12.61,15.3,24.74,31a101.93,101.93,0,0,1,8.49,12.88,27.46,27.46,0,0,1,3.47,16.19c-.56,6-2.47,11.5-4.73,17s-5.88,10.07-9.41,14.65c-3.07,4-7.07,7.1-11.18,10.09a44.25,44.25,0,0,1-13.27,7c-5.31,1.57-10.89,3.68-16.39,2.94-5.79-.78-11.73-1.43-17.32-3.89-3.59-1.58-7.21-3-10.48-5.2-.79-.54-2-.47-3-.69-.16.27-.32.54-.47.81.93,1,1.69,2.26,2.82,2.93,3.56,2.09,7.32,3.85,10.87,6,4.33,2.57,8.63,5.19,12.74,8.08,4.49,3.17,4.67,7.87.69,11.7a70.89,70.89,0,0,1-15.53,11.07c-3.63,2-7.17,4.13-10.77,6.18-2.43,1.38-4.86,2.75-7.33,4.06-4.84,2.56-9.66,5.13-14.55,7.59-2.59,1.3-5.3,2.37-7.95,3.56-.92.42-1.82.87-2.73,1.3l-14.86,7c-2.82,1.32-5.64,2.67-8.47,4-2.22,1-4.42,2.11-6.67,3.08-5.14,2.2-10.33,4.3-15.47,6.52s-10,4.44-15,6.65c-2.24,1-4.49,2-6.77,2.91-3.21,1.31-6.46,2.53-9.66,3.86-3.5,1.45-7,3-10.45,4.49-2.15.93-4.29,1.89-6.48,2.74-3.33,1.28-6.73,2.39-10,3.71s-6.53,2.84-9.81,4.22c-2.37,1-4.75,2-7.16,2.87-3.34,1.24-6.74,2.33-10.08,3.6s-6.4,2.62-9.62,3.89c-3.42,1.34-6.86,2.62-10.28,3.93q-6,2.26-11.89,4.55c-2.48,1-4.92,2-7.43,2.95-3.47,1.24-7,2.3-10.48,3.54-3.68,1.32-7.31,2.76-11,4.15-2.61,1-5.2,2-7.84,2.95-3.69,1.26-7.44,2.37-11.14,3.64-4,1.38-8,2.88-11.94,4.32-1,.34-1.9.69-2.86,1-.54.17-32.22,10.33-33.32,10.87-.95.46-15.74,4.73-19.39,5.62-.51.13-25,8.12-28.52,8s-7-2.46-8.66-3c-2.75-.9-5.36-2.23-8.05-3.32-.82-.33-16.81-8.57-19.39-10.12-.1-.06-21.93-10.89-25.92-13.24-7.61-4.46-15.36-8.68-23-13.09-6.1-3.52-12.11-7.19-18.18-10.76a3.84,3.84,0,0,0-4.43.2c-5.59,3.91-11.12,7.92-16.81,11.68-3.45,2.28-7.15,4.19-10.76,6.22-2.06,1.16-2.26,2.11-.76,3.85,2.7,3.13,5.42,6.26,8,9.46a22.12,22.12,0,0,1,1.59,2.92c.43.75,3.43,10.16,4.25,12.08a67,67,0,0,1,2.92,8.57c1.2,4.32,2.24,8.68,3.27,13a52.18,52.18,0,0,1,1.66,8.23,172,172,0,0,1,.61,18.15c-.06,1.77-1.85,3.8-3.36,5.14-1.93,1.71-4.89,1-7.64-1.19-6.67-5.28-11.68-12-16.54-18.89-2-2.82-3.84-5.77-5.87-8.58-1.45-2-3.28-3.31-6-2.41a10.42,10.42,0,0,1-3,.46c-1.48,0-2.29.75-3.29,1.84-1.37,1.49-3.31,3.25-5.12,3.39-6,.46-11.65,2.28-17.5,3.27-6.73,1.15-13.42,2.54-20.14,3.79-3.09.57-6.19,1.07-9.3,1.56-4.54.73-9.08,1.45-13.64,2.1-2.22.32-4.47.43-6.7.71-7,.88-14,1.87-21,2.69-3.78.44-7.62.46-11.4.94a189.2,189.2,0,0,1-19.75,1.67c-9.32.2-32,1.5-34,1.73-1.67.2-51.18.06-52.83-.22a16.86,16.86,0,0,0-2-.38c-5.49-.29-11-.63-16.49-.78q-7.41-.19-14.81,0c-3.25.08-6.49.43-9.73.76-2,.21-3.65,2-4.29,4.19-2.13,7.28-4.32,14.53-7.68,21.38-1.27,2.61-2.17,5.4-3.27,8.09a17.81,17.81,0,0,1-5.64,7.39c-2.08,1.59-4.51,1.12-6.2-.94a17.87,17.87,0,0,1-2.9-6c-3.63-10.74-2.21-21.81-2.55-32.77,0-.79,0-1.58,0-2.36,0-5-.12-4.61-5-6-8.78-2.46-18-2.73-26.7-5.19-5.28-1.48-10.58-2.84-15.87-4.26-4.53-1.2-9.09-2.28-13.57-3.64s-8.86-3-13.28-4.5c-3.36-1.15-6.74-2.27-10.07-3.52-3.55-1.34-7.09-2.73-10.55-4.26-4.08-1.81-8.16-3.66-12.1-5.75s-7.59-4.29-11.27-6.61c-6.77-4.27-12.52-9.72-17.95-15.55a75.78,75.78,0,0,1-14.1-22.32c-1.62-3.84-3.9-7.66-3.62-12.14a2.43,2.43,0,0,0-.21-1c-3.38-8.91-2.51-18.2-2-27.35a79.86,79.86,0,0,1,3.21-17.85,113.88,113.88,0,0,1,6.56-17.57A107.58,107.58,0,0,1,47.22,710c2.84-4,5.91-7.88,9.08-11.64,2.43-2.87,2.56-3.68.57-6.76a48.23,48.23,0,0,1-3.51-6.48c-1.28-2.85-2.32-5.8-3.46-8.72q-2.17-5.58-4.36-11.18a4.8,4.8,0,0,1-.24-.63q-1.72-7.53-3.42-15.06c-.2-.88-.36-1.76-.54-2.64A88.3,88.3,0,0,1,39.6,638c-.55-5.58-.46-11.24-1.23-16.78a60.68,60.68,0,0,1,0-16.65c.93-7,.65-14.16,1.59-21.16.79-6,2.58-11.79,3.91-17.68.25-1.1.41-2.21.7-3.29.59-2.27,1.23-4.52,1.87-6.78.15-.53.44-1,.59-1.57,1.16-4.08,2.13-8.22,3.5-12.23,1.19-3.46,2.84-6.76,4.27-10.14,1-2.36,2-4.71,2.95-7.11A122.59,122.59,0,0,1,68.2,503.27c3.94-6.36,7.57-13,12-18.94,6.83-9.14,14.16-17.91,22.87-25.4,7-6.06,13.9-12.35,21.13-18.17,5.22-4.2,10.81-8,16.41-11.64,6.91-4.55,14-8.89,21.05-13.15,3.64-2.19,7.49-4,11.25-6,2.18-1.14,4.36-2.25,6.56-3.35,4.69-2.35,9.37-4.74,14.09-7,2.21-1.07,4.5-2,6.79-2.88,3-1.19,6-2.3,9.06-3.44l7.53-2.81c3.87-1.45,7.73-3,11.64-4.32a47.91,47.91,0,0,1,8.35-2.43c5.52-.83,11.1-1.48,16.67-1.77,3.15-.16,3.8-.42,3.46-3.24-.65-5.35-1.29-10.7-1.71-16.07a6.68,6.68,0,0,0-2.16-4.71c-4.14-3.92-8.32-7.81-12.3-11.89-5.39-5.51-10.74-11.09-14.29-18.06-1.11-2.17-1.87-4.53-3.1-6.62a7.71,7.71,0,0,0-3-2.52c-4.54-2.43-7.83-5.5-8.77-11.05-.69-4-3.12-7.51-5.73-10.81-3.33-4.21-6.3-8.72-9.32-13.16a5.49,5.49,0,0,1-.8-2.87,62.22,62.22,0,0,1,.25-8.08,39.38,39.38,0,0,0-1.92-17.58,172.85,172.85,0,0,1-5.69-20,22.43,22.43,0,0,1,1.18-13.88,65.23,65.23,0,0,1,10.73-17.28,7.06,7.06,0,0,0,1.73-5.55c-.43-5.48-.33-11-.43-16.52-.06-3.14-.05-3.12-3-3.67-5.62-1-11.28-2-16.85-3.22-7.21-1.63-14.36-3.5-21.51-5.37-1.39-.37-2.61-1.34-4-1.76-2.26-.68-3.25,0-3.3,2.3-.09,4.5-.06,9,0,13.51,0,2.32.92,4.07,3.38,4.86a3.63,3.63,0,0,1,2.18,1.86c1.61,4.6,4.4,8.5,7,12.53a5.82,5.82,0,0,1,.89,1.8c1.78,8,3.48,16,2.64,24.34a10.4,10.4,0,0,1-1,2.41c-5.45-4.55-4.16-11-5.56-16.43-2.26,5.38,1,11.4-2.14,16.65-2.23-.38-2.06-2-2.54-3.36-2.52-6.82-2.58-14.07-3.65-21.71-1.74,7.56-.74,14.64-1,21.67,0,1.41.26,3-1.59,4.19a12.48,12.48,0,0,1-4-8.1c-.27-5.49-.23-11-.36-16.51a17.38,17.38,0,0,0-.42-2.55l-.82,0a10.63,10.63,0,0,0-.46,2.11q-.09,11.12-.09,22.24c0,2-.19,2.68-1.93,4.81a8.73,8.73,0,0,1-1.52-2c-1.28-3.69-2.89-7.27-2.9-11.33,0-5.61-.58-11.23,2.17-16.49a6.69,6.69,0,0,0-.06-5.87,8.54,8.54,0,0,1,3.31-11,5.28,5.28,0,0,0,2.74-5.57c-.55-5.45-1.47-10.93-.28-16.45a13.65,13.65,0,0,0-.21-4.35c-.27-2.28.15-4.29,2.19-5.6,4.32-2.79,8.59-5.66,13-8.24s9-4.85,13.55-7.18c2.27-1.16,4.61-2.21,7-3.19,4.95-2.06,10-4,14.9-6.07,3.07-1.3,6-2.9,9.1-4.17,3.3-1.37,6.7-2.47,10-3.77s6.57-2.72,9.85-4.08c2.57-1.06,5.1-2.23,7.72-3.14,3.58-1.24,7.27-2.18,10.84-3.45s7.19-2.81,10.79-4.23a4.2,4.2,0,0,1,1.24-.5,14,14,0,0,0,7.57-2.4,5.6,5.6,0,0,1,2.95-.53c3,0,6.07.09,9.11.16a3.39,3.39,0,0,1,1.65.24c3.82,2.55,8.29,1.52,12.42,2.32,1,.19,2.14.07,3,.54,2.75,1.59,5.85,1.38,8.77,2.08,5.53,1.32,11,2.93,16.48,4.4,1,.25,2,.36,3,.62,2.27.59,4.52,1.23,6.78,1.87.43.12.83.36,1.26.47,4.65,1.23,9.35,2.31,14,3.7,3.95,1.2,7.78,2.8,11.69,4.13,3.69,1.27,7.5,2.23,11.12,3.66,4.88,1.94,9.66,4.12,14.4,6.35,2.23,1.05,4.23,2.54,6.4,3.71,2.47,1.33,4.05,3.12,4,6.11s-2.42,4.65-4.61,5.71c-4.71,2.3-9.69,4-14.54,6.05-3.19,1.33-6.31,2.86-9.54,4.1-2.81,1.09-5.72,1.94-8.6,2.84-4.05,1.28-8.07,2.66-12.18,3.71s-5,2-5.09,6.23c-.05,3.49,0,7-.11,10.46a5.06,5.06,0,0,0,2,4.7c3.34,2.45,6.58,5,9.86,7.56,4.88,3.76,8,8.31,7.56,14.89-.26,3.67-.38,7.42,1.63,10.85a6.44,6.44,0,0,1,.37,3c.05,2.81.17,5.63,0,8.43-.17,2.43-.82,4.82-1.13,7.24-.53,4.11-1.07,8.23-1.34,12.36a7.24,7.24,0,0,0,1.12,3.82c3.57,6.23,3.41,12.55,1,19.12a28.27,28.27,0,0,0-1.55,7.52c-.34,4.48-.32,9-.48,13.48-.11,3.15-.25,6.27-1.65,9.22-.51,1.07-.36,2.43-.63,3.63-.64,2.83-1.35,5.64-2,8.45-.21.88-.5,1.73-.66,2.61-.77,4.45-3,8.39-4.4,12.58-1.57,4.56-4.36,8.33-6.84,12.27A36.81,36.81,0,0,1,326,359.22a4.1,4.1,0,0,0-2.42,4.29,3.73,3.73,0,0,0,.16,1q2.16,6.84,4.35,13.68c.57,1.78,1.12,3.57,1.74,5.56,1.57-.66,2.9-1.21,4.21-1.78,3-1.3,6-1.76,9.14-.43a16,16,0,0,0,4.61,1c5.58.53,10.61,2.63,15.49,5.22.3.16.69.26.86.51,2.73,3.86,7.07,5.24,11.05,7.12a76.36,76.36,0,0,0,8.68,3.61,9.06,9.06,0,0,0,7.47-1,9.44,9.44,0,0,1,1.45-.87c3.66-1.25,7.38-2.37,11-3.7s7-2.77,10.52-4.17c.41-.16.81-.39,1.23-.53,3.73-1.18,7.51-2.24,11.19-3.57,3.23-1.17,6.33-2.7,9.52-4s6.27-2.34,9.39-3.52c4.28-1.62,8.52-3.31,12.81-4.88,3.45-1.28,7-2.38,10.43-3.65s6.84-2.68,10.28-4c3.66-1.39,7.33-2.74,11-4.09,2.93-1.08,5.88-2.1,8.79-3.22,6.46-2.49,12.9-5,19.36-7.51,2.08-.79,3.09-2.06,2.77-4.38A165.12,165.12,0,0,1,520,320.05a165.76,165.76,0,0,1,.8-17.85c.69-5.41,2.36-10.69,3.62-16,.24-1,.54-1.95.84-2.92.79-2.55,1.53-5.11,2.39-7.64s1.94-5.21,2.88-7.83c3.25-9,8.14-17.09,13.18-25.18S555,227,561.24,219.74c3.83-4.48,8.41-8.34,12.79-12.32,3.48-3.17,7.1-6.19,10.81-9.1,4.21-3.31,8.51-6.53,12.91-9.58,3.75-2.61,7.62-5.07,11.58-7.34s8.29-4.29,12.42-6.47c2.54-1.34,5-2.79,7.57-4.14a26.43,26.43,0,0,1,2.47-1c1-.41,2.05-.82,3.07-1.25,1.22-.51,2.42-1.05,3.63-1.57s2.41-1.13,3.66-1.56c3.72-1.28,7.59-2.21,11.17-3.8,3.82-1.7,8.06-2.1,11.69-4.22.48-.28,1-.84,1.45-.79,4.91.58,8.67-3.69,13.55-3.22a2.79,2.79,0,0,0,1.64-.32c3.37-2.2,7.21-2.2,11-2.45a2.11,2.11,0,0,0,1-.22c4.62-3.09,10-1.79,15-2.76a36.55,36.55,0,0,0,3.79-1.13,11.15,11.15,0,0,1,2.55-.78c3.92-.19,7.85-.3,11.78-.36,7.86-.12,15.72-.34,23.57-.22,5.79.08,11.71-.47,17.25,2a2.58,2.58,0,0,0,1,.28c4.77.11,9.25,1.46,13.82,2.73a96,96,0,0,1,14.22,5c4.67,2.13,9.55,3.87,14,6.34a111.41,111.41,0,0,1,14,9.18,147.29,147.29,0,0,1,15,12.93,174,174,0,0,1,13.58,15.72A166.82,166.82,0,0,1,863,213.78,117.77,117.77,0,0,1,869.07,225c2.14,4.41,4,9,6,13.43,1.37,3,2.92,6,4.09,9.13,1.45,3.86,2.63,7.82,3.87,11.76,1.35,4.26,2.64,8.54,4,12.81a12.22,12.22,0,0,1,.5,1.26q1.83,9.24,3.61,18.48c.24,1.21.42,2.44.61,3.66.67,4.32,1.54,8.63,1.94,13a140.37,140.37,0,0,1,.77,16.13c-.2,8.53-.09,17.19-1.61,25.52-1.09,6-1.25,12.26-3.83,18-1.57,3.54-2,7.56-3.31,11.25-1.38,4-3,7.92-4.72,11.79-2,4.59-4.23,9.09-6.4,13.61a16.25,16.25,0,0,1-1.42,2.27c-2.09,3-2,4.92.64,7.43,6,5.75,12,11.36,17.91,17.2a38.15,38.15,0,0,0,13.1,8.49c6.73,2.69,13.12,6.21,19.7,9.26,4.76,2.21,9.64,4.16,14.41,6.34,3,1.39,6,3,9,4.47,2.12,1,4.33,1.85,6.46,2.83,6.59,3.05,13.23,6,19.74,9.24,5.9,2.93,11.66,6.18,17.47,9.3,4.14,2.2,8.34,4.29,12.38,6.66a78.88,78.88,0,0,1,8.87,6.06c3.79,3,3.7,7.21.26,10.73-4.52,4.62-10,7.9-15.47,11.13C992.82,519.09,988.05,522,982.91,525ZM179.65,566.63c2-.61,16.82-4.49,22.28-5.62,6.12-2.46,45.78-4.78,53.14-4.46,5.14.22,22.75,2.45,26.41,3,2.32.33,4.58,1.1,6.9,1.42,3.36.45,4.62,1.49,5.49,4.92.41,1.62.87,3.23,1.42,4.82,1.39,4,2.87,8,4.25,12s2.91,8.22,4.1,12.4a13.61,13.61,0,0,1,.59,6.2c-.47,2.22-1.87,4.28-3,6.34-2.37,4.29-4.78,8.57-7.29,12.8-3.76,6.33-7.34,12.8-11.51,18.86-4.61,6.69-9.81,13-14.69,19.47-.57.76-7.32,9.2-7.32,9.2-1.15,1.07-4.16,3.08-3.94,5.88l8.26-9c1.76-1.85,3.66-3.89,3.93-4.23,4.53-5.51,9.15-11,13.39-16.69,3.32-4.48,6-9.41,9.21-14a148.35,148.35,0,0,0,10.82-18.45,44.92,44.92,0,0,1,3.27-6.23,10.23,10.23,0,0,0,1.76-8,52.55,52.55,0,0,0-1.73-6.83c-.89-3-.22-4.28,2.7-4.92,3.38-.74,6.74-1.67,10.15-2.22,5.95-1,11.28-3.42,16.48-6.29,1.44-.79,2.32-2,1.88-3.55a3.25,3.25,0,0,0-3.36-2.35,7.11,7.11,0,0,0-2.56.71c-2.24,1-4.43,2.14-6.68,3.15-1.41.64-3.14.91-3.94-.55-.51-1-.11-2.53.22-3.73.17-.63,1-1.2,1.64-1.58,3.18-1.86,6.45-3.57,9.6-5.49,1.63-1,3.06-2.29,4.81-3.62a8,8,0,0,0-7.44.47,24,24,0,0,1-4.87,2.14,2.7,2.7,0,0,1-3.43-1.42c-.74-1.48.37-2.19,1.29-3.07,2.95-2.83,5.82-5.74,8.92-8.81a3.27,3.27,0,0,0-4,.4c-2.74,2.12-5.58,4.14-8.22,6.38a3.68,3.68,0,0,1-4,.64c-1.79-.61-2.26-2-2.57-3.63-.58-3-2.11-5.53-3.47-8-2.29.33-2.88,1.6-2.68,3.22s.84,3,1,4.57c.25,1.95,1,4.4.2,5.82a28.07,28.07,0,0,1-6.31,6.85c-1.7,1.42-3.43.61-4.22-1.49a10.81,10.81,0,0,1-.57-2.29,2.91,2.91,0,0,0-2.56-2.7,199.63,199.63,0,0,0-37.56-5c-7.41,0-40.73,1.56-55.1,4.83-5.11,1.12-20,5.5-22.46,6.19-.37.1-21.41,9.62-21.41,9.62-.73.08-1.82,1.35-2.56,1.42l0,.65h2.15Zm176,310c5.34-.55,10.68-1.18,16-1.63,6.6-.56,13.22-.92,19.82-1.5,2.45-.21,4.86-.92,7.31-1.2,10.71-1.24,21.45-2.21,32.13-3.66,7.32-1,14.54-2.68,21.83-3.94,3.32-.57,6.68-.94,10-1.28,4.83-.49,6.37-2,6.41-6.76,0-.9-.25-2,.14-2.67,1.73-3.17,1-6.58,1.21-9.9.11-1.93.2-3.77,1.81-5.24a3.92,3.92,0,0,0,.82-2.42c.13-1.68-.05-3.39.13-5.06a5.08,5.08,0,0,1,1.1-3,5,5,0,0,0,1.52-4.24,4.05,4.05,0,0,1,2-4c1.48-.9,2.47-8.08,1.44-9.36a4.51,4.51,0,0,0-1.1-.74c-1.85-1.2-3.7-2.41-5.56-3.6q-5.72-3.68-11.46-7.32-5.37-3.37-10.78-6.7c-3.5-2.16-7-4.32-10.54-6.44s-7.33-4.24-10.93-6.46-6.89-4.53-10.43-6.64c-5.35-3.19-10.83-6.15-16.18-9.34-5.17-3.08-10.18-6.43-15.38-9.46-5.47-3.18-11.09-6.11-16.64-9.17-7.21-4-14.4-8-21.64-12-2.15-1.18-4.41-2.18-6.64-3.23-3.23-1.53-6.45-3.08-9.73-4.52-3.05-1.34-6.15-2.58-9.26-3.79-3.33-1.29-6.87-2.17-10-3.83-3.74-2-6.74-2.16-10,1-4.54,4.31-9.53,8.15-14.1,12.43-2.4,2.26-4.7,3.76-8.22,3.67-11.47-.27-23-.07-34.43-.37s-23.06.68-34.63-1c-8.62-1.25-17.49-.74-26.26-.93-9.33-.21-18.66-.29-28-.48-4.84-.1-9.68-.2-14.49-.54-6.15-.43-12.27-1.24-18.42-1.66s-12.5.16-18.5-1c-9.36-1.83-19-1.4-28.22-4.41-2.38-.79-4.53-1.79-5.76-3.8-3-5-5.86-10-8.55-15.19-1.49-2.86-2.47-3.21-4.5-.76a105,105,0,0,0-13.87,20.94c-3.81,7.79-7,15.7-8.33,24.33-.38,2.54-1.65,5-1.81,7.51-.4,6.28-.49,12.58-.5,18.88a30.78,30.78,0,0,0,.86,8.7c2,6.61,3.69,13.28,6.94,19.54a84.21,84.21,0,0,0,19.24,24,65.33,65.33,0,0,0,13.21,9.19c4.54,2.37,9,4.88,13.63,7.1,2.9,1.4,6,2.34,9,3.55,3.71,1.49,7.36,3.19,11.12,4.55s7.48,2.33,11.22,3.49c3.21,1,6.41,2,9.62,3,4.6,1.41,9.16,3,13.83,4.12,5.88,1.43,11.84,2.55,17.79,3.71q12.69,2.47,25.42,4.79c2.21.4,4.46.52,6.69.82,9.11,1.19,18.19,2.61,27.33,3.53,7.37.74,14.8.94,22.21,1.29,3.82.19,24.65,1.29,31.26,1.48,3.71.11,7.42.05,11.13.23,5.95.28,32.22-.25,34.94-.46,3.57-.28,7.13-.74,10.7-1,2-.16,4.05,0,6.06-.21C343,876.89,355.58,876.29,355.62,876.61ZM868.12,569c-2.48-2.71-4.56-5-6.69-7.29-4.67-5-9.44-9.88-14-14.93-5.8-6.37-11.44-12.9-17.22-19.29-7-7.81-14.22-15.5-21.25-23.32-5.47-6.09-10.78-12.32-16.2-18.46-2.39-2.71-4.2-2.92-7.45-1.19a47.28,47.28,0,0,1-4.86,2.21c-2.59,1-5.28,1.85-7.84,2.94-4.93,2.12-9.84,4.25-15.2,5.07a8.26,8.26,0,0,0-1.29.37c-4.47,1.44-8.91,3-13.41,4.28-2,.59-4.28.5-6.29,1.14a134.52,134.52,0,0,1-21,4.62c-2.88.44-5.8.63-8.68,1.06-1.77.26-3.48,1-5.24,1.13-6.51.35-13,.76-19.55.69-9.31-.1-18.66-.08-27.83-2.23-5.67-1.33-11.47-2.15-17.07-3.68a105.1,105.1,0,0,1-12.18-4.64q-6-2.5-11.92-5.27a43.43,43.43,0,0,1-4.93-2.88c-4.79-3.08-9.88-5.82-14.25-9.42-5.41-4.47-10.11-9.79-15.32-14.52-7-6.3-12.21-14-17.36-21.67-5.41-8.06-10-16.66-14.76-25.16-2.75-5-5.06-10.2-7.47-15.36-1.23-2.63-2.21-5.37-3.32-8.05-1.36-3.3-2.8-6.57-4.12-9.88-1.06-2.69-2.16-5.38-2.95-8.16-1.94-6.9-3.69-13.85-5.55-20.77-.59-2.19-1.31-2.46-3.42-1.62s-4,1.49-5.94,2.24c-3,1.15-6.06,2.29-9.08,3.46-3.64,1.41-7.24,2.91-10.91,4.26-3.46,1.27-7,2.33-10.47,3.57-2.62.94-5.19,2-7.78,3-3.42,1.35-6.8,2.8-10.27,4s-7.19,2.31-10.79,3.45c-.21.07-.4.21-.61.29-3.82,1.53-7.61,3.12-11.47,4.55-3.45,1.28-7,2.3-10.46,3.58s-6.94,2.93-10.49,4.18-7.43,2.29-11.14,3.42c-.33.1-.63.26-.94.37-4.6,1.65-9.16,3.41-13.81,4.9-1.92.61-3.09,1.54-3.48,3.26,4,2.33,7.77,4.42,11.44,6.73,5,3.15,10.1,6.21,14.82,9.76,6,4.51,11.71,9.4,17.43,14.26a168.77,168.77,0,0,1,24.09,25.6,26.14,26.14,0,0,0,4.73,4.67c.94.71,2.41.74,3.47,1-1.56,1.31-3,2.52-4.46,3.72a8.74,8.74,0,0,1-1.13.73c-7.42,4.39-14.79,8.85-22.27,13.13-2.7,1.54-5.48,3-8.92,1.82a27.22,27.22,0,0,0-6.66-.91c-7.59-.55-15.18-.8-22.78-1.77-10.11-1.3-20.4-1.18-30.62-1.69-1.34-.07-2.67-.23-4-.41-1.88-.26-3.74-.67-5.62-.84-4.91-.46-9.84-.81-14.76-1.21-4.62-.38-9.2-.73-13.17,2.5a45,45,0,0,1-4.74,3.17c-.86.54-2.11,1-1.46,2.21a3.48,3.48,0,0,0,2.34,1.42c3.12.37,6.26.61,9.4.73,9.2.37,18.39.47,27.54,2,5.85,1,11.85,1,17.79,1.5a24.94,24.94,0,0,1,3,.46,53,53,0,0,0,6.5,1.39,134.14,134.14,0,0,1,15.68,2,97.52,97.52,0,0,0,24.85,1.41,21.78,21.78,0,0,0,5.95-1.09c7.13-2.5,13.1-7.12,19.5-10.95,3.72-2.23,7.17-4.9,10.76-7.35,5.06-3.44,10.13-6.88,15.22-10.27,1.86-1.24,18.28-11.73,19.69-12.35a24.71,24.71,0,0,0,4.09-2.26c1.9-1.3,3.27-.4,4.31,1a9.22,9.22,0,0,1,1.33,3.39c.5,2.3.76,4.65,1.24,6.95.61,2.85,1.35,5.66,2,8.49.3,1.32.54,2.64.81,4,.62,3.06,1.27,6.12,1.85,9.19.25,1.32.29,2.68.52,4,.72,4.19,1.62,8.36,2.15,12.57a6.83,6.83,0,0,0,2.61,4.86,14,14,0,0,1,5.51,11c.06,3.15.14,6.31-.06,9.45-.14,2.23-.22,4.69-1.23,6.57-1.84,3.41-1.36,6.69-.75,10.14s1.16,7.08,1.63,10.64c.56,4.23,1,8.47,1.5,12.71.32,2.55.85,5.09,1.12,7.65.41,3.91.84,7.83,1,11.75.13,3.63,2.41,5.24,5.23,6.7,2.48,1.27,4.82,2.81,7.23,4.22,5.31,3.1,10.61,6.25,16,9.28,4.18,2.37,8.45,4.58,12.65,6.9,5.29,2.92,10.49,6,15.83,8.77,4.54,2.37,9.27,4.35,13.84,6.65,6.27,3.14,12.42,6.54,18.72,9.62,5.52,2.69,11.17,5.11,16.79,7.59a5.48,5.48,0,0,0,2.6.51,73.9,73.9,0,0,0,8-1.07c5.38-1.1,10.73-2.32,16.07-3.58,4.79-1.12,9.59-2.23,14.32-3.57,5.7-1.61,11.34-3.45,17-5.2.53-.16,1-.43,1.56-.61,4.21-1.47,8.4-3,12.63-4.39,3.7-1.22,7.48-2.24,11.18-3.48,4.43-1.48,8.81-3.14,13.23-4.67,3.37-1.17,6.8-2.19,10.15-3.43,3.76-1.39,7.44-3,11.19-4.43,4.28-1.63,8.59-3.18,12.88-4.75q4.56-1.68,9.14-3.32c3.57-1.29,7.16-2.56,10.73-3.86,2.42-.88,4.85-1.73,7.23-2.7,3.2-1.3,6.31-2.8,9.53-4,5.63-2.17,11.31-4.19,17-6.28,2.63-1,5.28-1.86,7.85-2.95,5.34-2.26,10.6-4.72,16-6.93s10.63-4,15.88-6.24C866.49,571.09,867.23,569.86,868.12,569ZM888.3,324.5c-.48-7.26-1.06-17.46-1.88-27.64-.22-2.77-1.17-5.48-1.74-8.23-1.06-5.16-2.08-10.33-3.13-15.49a7.29,7.29,0,0,0-.35-.95c-1.55-4.89-3.07-9.8-4.67-14.69-1.1-3.39-2.2-6.79-3.49-10.12s-2.67-6.4-4.14-9.54c-2.45-5.26-4.88-10.54-7.56-15.7a119.58,119.58,0,0,0-6.18-10.31C852,207,849,202,845.31,197.5a144.57,144.57,0,0,0-16.56-17.11,129.62,129.62,0,0,0-22.72-16c-2.14-1.18-4.3-2.35-6.52-3.38a69.19,69.19,0,0,0-9.19-3.93c-4.16-1.24-8.07-3.41-12.53-3.63-.53,0-1-.47-1.56-.61-1.71-.47-3.42-1-5.16-1.3-3.42-.68-6.85-1.25-10.27-1.88a30.37,30.37,0,0,0-4-.76c-5.05-.24-10.11-.45-15.16-.51q-10.45-.12-20.9,0c-2.23,0-4.73-.06-6.63.88-3.75,1.84-7.63,1.57-11.53,1.81a13.39,13.39,0,0,0-5.2,1,16.54,16.54,0,0,1-7.14,1.64,11.31,11.31,0,0,0-4.86.93,15.3,15.3,0,0,1-7.09,1.81,7.16,7.16,0,0,0-3.78.91,10.07,10.07,0,0,1-5.67,1.74c-4,.28-7.16,3.35-11.27,3.2-.16,0-.31.33-.51.41-1.39.61-2.78,1.24-4.21,1.75-3.31,1.17-6.64,2.28-9.95,3.42-.2.07-.32.35-.51.43-1.19.54-2.39,1.06-3.58,1.58s-2.23.94-3.34,1.43-2,.92-3,1.38c-2.81,1.32-5.68,2.5-8.4,4-3.81,2.07-7.48,4.39-11.25,6.54-2.31,1.31-4.84,2.29-7,3.8-4.68,3.23-9.3,6.56-13.74,10.12-6,4.81-12,9.69-17.68,14.85a172.44,172.44,0,0,0-34.12,44.41,50.36,50.36,0,0,0-2.75,5c-1.36,3.29-2.48,6.68-3.72,10-1.46,4-3.56,7.83-4.27,11.93-1,5.62-3.38,10.89-3.48,16.74-.08,4.34-1.3,8.66-1.5,13-.27,5.95-.07,11.92-.05,17.88a18.62,18.62,0,0,0,.19,2.69,80.43,80.43,0,0,1,1.26,8.94c.18,7,2.83,13.58,3.8,20.47.46,3.29,1.75,6.48,2.83,9.66,1.39,4.12,2.92,8.19,4.44,12.26,1.21,3.23,2.41,6.48,3.78,9.64s3,6.48,4.6,9.69c2.22,4.51,4.37,9.07,6.81,13.47,2.82,5.09,6.07,9.94,8.88,15a156.5,156.5,0,0,0,15,21.85,109.35,109.35,0,0,0,22.12,21.38c4.82,3.42,9.77,6.71,14.87,9.7a121,121,0,0,0,11.76,5.65c3.47,1.55,6.91,3.34,10.55,4.28,7.48,1.91,15,3.6,22.66,4.85a111.41,111.41,0,0,0,16.44,1.26c7.07.11,14.15-.26,21.23-.45a25.6,25.6,0,0,0,3-.34c4.64-.71,9.28-1.46,13.92-2.17,2.77-.42,5.55-.74,8.31-1.22,2.43-.43,4.84-1,7.25-1.53,5.24-1.19,10.49-2.33,15.7-3.63,3.26-.82,6.48-1.83,9.69-2.85,4.15-1.3,8.27-2.7,12.4-4.05,3.61-1.18,7.32-2.11,10.79-3.6,5.43-2.33,10.77-4.91,16-7.63,4-2.1,7.94-4.53,11.83-6.92,3-1.87,6.07-3.78,8.94-5.9,6.57-4.84,13.46-9.37,19.44-14.87,7.39-6.8,14.8-13.7,20.8-21.86,4-5.4,8-10.8,11.66-16.39A106.89,106.89,0,0,0,871.81,397c2.49-5,5-10,7-15.21a145.89,145.89,0,0,0,5.32-16.57,112.56,112.56,0,0,0,3.05-16.55C887.89,341.67,887.88,334.56,888.3,324.5ZM317,549.06c1.34-.84,2.87-1.95,4.53-2.8,3.47-1.79,6.81-3.92,10.87-4.18,4.4-.29,8.89,1.71,7.91,8.12a4.44,4.44,0,0,0,.72,3c2.91,3.83,2.93,7.68-.38,11.14a2.37,2.37,0,0,0-.31,3.3,21.05,21.05,0,0,0,1.52,1.78,6.32,6.32,0,0,1-.29,8.3c-4.34,4.53-10,6.69-15.77,8.45-2.36.71-4.77,1.22-7.11,2-3.17,1-3.45,1.51-3.19,4.83.36,4.59.66,9.18,1.14,13.76.21,2,1.14,3.94,1.15,5.91,0,11.7,2.12,23.22,3,34.84.17,2.09,1.13,3,3.14,3.16,1.45.12,2.89.37,4.33.6,3.1.49,6.18,1.11,9.29,1.48,3.9.47,7.84.66,11.73,1.14,3.32.41,6.6,1.18,9.92,1.58,3.79.46,7.63.57,11.41,1,3,.37,5.92,1.31,8.91,1.58,6.49.58,13,.69,19.39,2.33a30.83,30.83,0,0,0,5,.5c4.26.34,8.52.56,12.76,1.05,3.1.35,6.15,1.4,9.25,1.52a208.87,208.87,0,0,1,24.72,2.64c5.41.85,10.63.18,15.06-3.09,7.3-5.37,14.63-10.75,21.46-16.7,9.27-8.09,18.17-16.61,27-25.15,5-4.8,9.56-10,14.37-15a7,7,0,0,0,2.21-6c-.89-7.9-1.69-15.81-2.48-23.72-.2-2,0-4.07-.41-6a154.65,154.65,0,0,1-2.66-23.41c-.1-3.51-1.11-4.26-4.56-4.43a35.13,35.13,0,0,1-5.33-.53c-1.94-.41-3.79-1.27-5.73-1.7-5.31-1.18-7.73-5.88-5.44-10.78.31-.65.68-1.27,1.06-2-.63-.32-1.05-.48-1.43-.72-5.37-3.39-6.63-4.94-5-10.9a6.29,6.29,0,0,0-.4-3.45c-1.47-4.29-.85-6.53,3.11-8.66a15.06,15.06,0,0,1,5.67-1.68c2.78-.25,5.61,0,8.43.05,1.51,0,2.71-.38,2.46-2.31-.62-4.68-1.15-9.36-1.84-14-.39-2.66-1.06-5.28-1.55-7.92-1.06-5.62-2.07-11.24-3.13-16.86a5,5,0,0,0-.59-1.57c-1-1.78-2-2.1-3.8-1q-6.79,4-13.5,8.07c-3,1.86-6,3.86-9,5.77-3.94,2.51-8,4.93-11.84,7.53-4.26,2.86-8.4,5.9-12.62,8.82-3.68,2.55-7.42,5-11.1,7.54-4.39,3-9.16,5.32-14.43,5.9a35,35,0,0,1-15-1.43A21.18,21.18,0,0,0,415,500c-3.92-.34-7.85-.51-11.76-1-3.76-.45-7.48-1.29-11.24-1.75s-7.91-.32-11.74-1.09c-7.88-1.6-15.86-1.56-23.81-2.09-7.6-.5-15.2-1.17-22.81-1.65s-15-.88-22.54-1.17c-3-.11-3.91.79-3.81,3.8.19,5.83.48,11.67.94,17.49.32,4.12,1.08,8.2,1.43,12.31.27,3.25.09,6.53.35,9.77a15.37,15.37,0,0,0,1.27,5.85A94.07,94.07,0,0,0,317,549.06ZM315.3,711.43c.5,2,1.75,2.82,3.45,3.46,5.34,2,10.68,4.05,15.89,6.37,4.68,2.09,9.19,4.54,13.75,6.87,5.85,3,11.74,5.92,17.5,9.07,4.59,2.51,9,5.27,13.52,8,4,2.41,8,4.9,12,7.34,3.14,1.92,6.27,3.86,9.45,5.72,3.65,2.15,7.39,4.17,11,6.36,4,2.43,7.93,5,11.88,7.5,3.76,2.4,7.5,4.84,11.28,7.22,3.21,2,6.46,4,9.7,6,3.61,2.2,7.27,4.32,10.83,6.6s6.79,4.66,10.26,6.88c5.15,3.29,10.39,6.43,15.54,9.72,2.66,1.71,3.8,1.83,6.36.12.66-.43,1.26-1,1.93-1.35,6.64-3.94,13.47-7.58,19.87-11.86,7-4.7,13.67-10,20.57-15a117,117,0,0,0,18.52-17,83.55,83.55,0,0,0,12.6-18.52c1.09-2.19,1.77-4.59,2.89-6.76a42.86,42.86,0,0,0,4.47-14.62c.82-6.89.47-13.92.69-20.89s-1.91-13.56-3.91-20c-1.74-5.6-4.61-10.88-7.25-16.15a84.81,84.81,0,0,0-13.44-19.2c-7.32-8-15.55-14.78-25.61-19.15-1.47-.64-2.55-.87-3.88.47-2.59,2.62-5.42,5-8.14,7.5-6.28,5.75-12.38,11.71-18.87,17.21a185.82,185.82,0,0,1-20.44,15.21c-6.05,3.84-12.43,4.11-19.1,3.41-4.55-.48-9.07-1.28-13.63-1.74s-9-.52-13.45-1c-4-.43-8-1.24-11.95-1.75-4.23-.54-8.49-.9-12.73-1.43-2.44-.3-4.85-.94-7.3-1.14a9.11,9.11,0,0,0-4.6.55c-3.4,1.67-6.64,3.67-9.89,5.63-3.64,2.2-7.21,4.53-10.83,6.76-5,3.11-10.23,6-15.14,9.32-7.22,4.87-14.28,10-21.36,15.09C323.55,705.17,319.49,708.3,315.3,711.43ZM887.82,590.16,880.39,582c-1.52-1.66-3-3.33-4.58-4.94a4.61,4.61,0,0,0-5.57-1q-5.85,2.51-11.75,4.9c-2.69,1.09-5.46,2-8.13,3.13-3.08,1.3-6,2.88-9.15,4.11-3.41,1.36-7,2.4-10.4,3.69-3,1.14-6,2.45-9,3.66-3.4,1.36-6.81,2.71-10.23,4s-6.92,2.57-10.38,3.85c-2.3.85-4.62,1.65-6.9,2.54-3.64,1.42-7.22,3-10.88,4.32-3.46,1.28-7,2.34-10.48,3.57-2.52.89-5,1.9-7.51,2.85-3.76,1.43-7.49,2.94-11.28,4.26s-7.64,2.42-11.45,3.64c-.43.14-.79.44-1.21.6-3.42,1.31-6.81,2.72-10.29,3.87-3.91,1.3-7.91,2.36-11.87,3.53-.32.09-.61.29-.92.4-2,.66-4,1.32-6,2-1,.3-1.95.5-2.9.82-4.13,1.39-8.2,2.94-12.37,4.19s-8.65,2.3-13,3.45c-.43.12-.82.39-1.24.52-2,.61-4.07,1.21-6.11,1.78-1,.28-2,.45-2.94.71-2.59.68-5.17,1.39-7.76,2.06-1.2.31-2.41.53-3.62.8-2.72.6-5.43,1.32-8.18,1.79-2.32.4-4.69.52-7,.78-2.11.23-4,1-5.07,2.9a88.26,88.26,0,0,0-4.94,9.81c-1.47,3.74-2.16,7.79-3.69,11.49-2.48,6-3.09,12.49-4,18.71-1.69,11.67-1.25,23.55-.4,35.35.22,3.14,1.88,4,4.89,2.78,1.65-.66,3.39-1.1,5.1-1.63,3.73-1.17,7.49-2.24,11.17-3.53,3.89-1.37,7.68-3,11.54-4.45,4.38-1.66,8.79-3.24,13.19-4.87,3-1.13,6.06-2.29,9.1-3.42,3.23-1.21,6.48-2.35,9.68-3.61,3.54-1.38,7-2.91,10.55-4.28,3.23-1.26,6.52-2.37,9.75-3.62,2.5-1,5-2.06,7.43-3.09,3.3-1.38,6.58-2.8,9.91-4.12,3.12-1.23,6.3-2.29,9.42-3.52,2.48-1,4.9-2.14,7.35-3.19,3.38-1.44,6.75-2.91,10.16-4.26,3.11-1.24,6.31-2.27,9.41-3.53,3.93-1.59,7.79-3.33,11.69-5,2.57-1.08,5.19-2.07,7.75-3.18,3.28-1.42,6.49-3,9.78-4.34,5.25-2.18,10.57-4.19,15.82-6.39,5.45-2.29,10.82-4.77,16.26-7.06,5.06-2.13,10.18-4.11,15.26-6.18q3.89-1.59,7.72-3.26c3.38-1.47,6.72-3,10.12-4.44,2.78-1.16,5.65-2.1,8.43-3.27,3.78-1.61,7.49-3.38,11.27-5,2.55-1.1,5.2-2,7.73-3.15,2.93-1.32,5.73-2.94,8.69-4.23,4.89-2.12,9.88-4,14.78-6.16a2.55,2.55,0,0,0,1.29-1.93c-.1-2.83-4.4-5.56-6.93-4.45-4.19,1.84-8.32,3.83-12.5,5.69-2,.91-4.18,1.59-6.22,2.48-3.77,1.63-7.5,3.38-11.27,5-2.56,1.11-5.21,2-7.77,3.15-3.27,1.42-6.46,3-9.74,4.42-4.11,1.74-8.26,3.37-12.41,5-2.91,1.15-5.83,2.26-8.76,3.37-3.24,1.23-6.49,2.42-9.72,3.66-2.29.88-4.56,1.84-6.84,2.73-3.85,1.5-7.7,3-11.57,4.45-3.34,1.26-6.71,2.43-10.05,3.67-3.75,1.4-7.46,2.91-11.24,4.23-3.56,1.25-7.2,2.27-10.78,3.48-4.74,1.62-9.45,3.33-14.17,5-.64.23-1.26.49-1.89.72-4.2,1.51-8.38,3.07-12.6,4.5-3.81,1.28-7.67,2.4-11.51,3.61-2.77.88-5.53,1.79-8.29,2.68-1.91.62-3.81,1.28-5.73,1.86-1,.29-2,.36-2.94.67-4.45,1.44-8.84,3.07-13.33,4.38s-9.08,2.32-13.62,3.48c-.54.14-1,.47-1.56.64q-2.73.84-5.47,1.61c-1,.26-2,.4-2.94.65-2.7.69-5.39,1.42-8.08,2.12-1,.25-2,.44-2.93.68l-7.77,2a28.51,28.51,0,0,0-4.47,1.19c-3,1.32-6.15,1.22-9.29.87-.58-.06-1.08-.79-1.66-1.24,1.39-1.82,3.09-1.26,4.59-1.47a18.64,18.64,0,0,0,4.9-.89c5.44-2.47,11.34-3.25,17-4.94.42-.12.9,0,1.34-.14a16.29,16.29,0,0,0,1.61-.47c2.11-.68,4.22-1.38,6.35-2,.85-.26,1.74-.41,2.59-.69,4.43-1.45,8.86-2.94,13.29-4.4,2.22-.73,4.47-1.4,6.7-2.12l10.85-3.52c4-1.3,8.08-2.56,12.1-3.9s8.25-2.86,12.38-4.26c3.5-1.18,7-2.28,10.51-3.48,4.53-1.56,9-3.19,13.53-4.78,3.16-1.12,6.33-2.21,9.46-3.37,4.18-1.55,8.34-3.17,12.51-4.74,3.14-1.19,6.3-2.34,9.44-3.53,3.75-1.44,7.47-3,11.24-4.35,3.25-1.21,6.55-2.28,9.81-3.48,2.51-.91,5-1.87,7.47-2.9,3.19-1.33,6.3-2.83,9.51-4.09s6.75-2.36,10.1-3.62c2.51-.94,5-2,7.45-3,3.4-1.42,6.78-2.9,10.2-4.29,3.09-1.26,6.25-2.36,9.33-3.65,3.28-1.37,6.47-3,9.76-4.31,5.27-2.16,10.61-4.12,15.87-6.3,1.91-.79,3.66-2,5.75-3.08q-7.1-7-13.48-13.35c-4.48,1.69-8.36,3.11-12.21,4.6-2.82,1.09-5.61,2.25-8.39,3.4-3.41,1.41-6.79,2.89-10.21,4.28-3.92,1.59-7.86,3.16-11.82,4.68-3.24,1.24-6.5,2.4-9.76,3.58s-6.69,2.41-10,3.64c-3.87,1.44-7.71,2.95-11.6,4.34-3.48,1.24-7,2.33-10.49,3.54-2.63.91-5.24,1.91-7.86,2.86-4.09,1.47-8.16,3-12.27,4.39-3.71,1.25-7.48,2.29-11.2,3.48q-4.15,1.31-8.25,2.77c-3.78,1.36-7.48,2.94-11.3,4.16-4.25,1.36-8.6,2.41-12.9,3.6-.33.09-.65.2-1,.31-4.21,1.44-8.39,3-12.66,4.3-4.5,1.34-9.09,2.38-13.64,3.56-.43.12-.83.33-1.26.46-4.59,1.41-9.15,2.93-13.78,4.18-4.86,1.31-9.8,2.34-14.71,3.51-.32.07-.62.26-1,.34-2.7.68-5.4,1.37-8.11,2-1,.24-2,.34-3,.57-2.81.68-5.62,1.4-8.43,2.1a16.89,16.89,0,0,0-3.53.88c-4,2-8.11,1.49-12.25,1.16-.35,0-.67-.47-1.15-.83,1.25-1.67,2.94-1.68,4.59-1.86s3.27-.08,4.62-.72a32.54,32.54,0,0,1,10.1-2.49,16,16,0,0,0,2.58-.71c2.25-.63,4.5-1.29,6.76-1.9.86-.23,1.76-.31,2.62-.56,2.45-.72,4.89-1.5,7.34-2.22.86-.26,1.76-.37,2.61-.65,4.34-1.4,8.64-2.94,13-4.24s8.64-2.29,13-3.44c.43-.12.83-.36,1.25-.5,4.22-1.44,8.42-3,12.67-4.27,4.05-1.26,8.16-2.32,12.23-3.48.32-.09.61-.31.92-.42,4.21-1.48,8.41-3,12.62-4.41,3.48-1.19,7-2.34,10.46-3.54,4.21-1.46,8.41-3,12.63-4.42,3.8-1.3,7.64-2.47,11.43-3.82s7.52-2.88,11.31-4.24c3.56-1.28,7.17-2.41,10.74-3.65q3.65-1.26,7.25-2.64c3.85-1.47,7.68-3,11.53-4.49l12.5-4.78,9.05-3.44c4-1.5,7.9-3,11.86-4.52,3.33-1.25,6.69-2.44,10-3.68,3-1.14,6.1-2.22,9.07-3.53A18.15,18.15,0,0,0,887.82,590.16ZM626.17,822.85l.06.28c2-.38,3.94-.68,5.87-1.18,1.72-.45,3.38-1.14,5.07-1.71,1.06-.35,2.14-.65,3.18-1,3.78-1.38,7.55-2.8,11.34-4.17,3.34-1.21,6.91-2,10-3.65,5.58-3,11.76-4.28,17.48-6.81,2.24-1,4.54-1.87,6.84-2.73,5.76-2.15,11.56-4.19,17.28-6.42,6.35-2.48,12.63-5.14,18.94-7.7,2.79-1.13,5.62-2.17,8.4-3.34,3.39-1.42,6.71-3,10.11-4.4,3.2-1.31,6.51-2.36,9.71-3.67,6.11-2.48,12.18-5.06,18.27-7.6,2.66-1.12,5.35-2.2,8-3.35,3.27-1.41,6.5-2.92,9.79-4.29,3-1.25,6-2.33,9-3.54,2.27-.92,4.52-1.89,6.77-2.89,3.14-1.4,6.22-2.93,9.39-4.25s6.5-2.4,9.68-3.76c5.23-2.24,10.38-4.69,15.62-6.92,5.05-2.14,10.18-4.1,15.26-6.17,2.59-1,5.17-2.12,7.73-3.23,3.48-1.51,6.93-3.09,10.42-4.59,2.87-1.24,5.78-2.38,8.66-3.62,3.38-1.45,6.73-3,10.11-4.44,2.88-1.23,5.81-2.34,8.68-3.59,5.52-2.42,11-4.92,16.54-7.33,4.92-2.15,9.89-4.16,14.79-6.33s9.9-4.56,14.87-6.77c2.86-1.27,5.81-2.34,8.68-3.58a32.26,32.26,0,0,0,5.07-2.59,5.4,5.4,0,0,0,2.24-2.74c1.11-4.79,3.2-9.37,3.25-14.4a26.53,26.53,0,0,1,.43-5,3.67,3.67,0,0,0-1.29-3.9,88.44,88.44,0,0,1-6.88-5.91c-1.44-1.48-2.51-1.29-4.11-.47q-6.71,3.45-13.56,6.61c-4.76,2.18-9.63,4.12-14.4,6.28-5,2.25-9.91,4.66-14.88,7-2.33,1.07-4.69,2.06-7.06,3-3.11,1.25-6.28,2.34-9.35,3.67-5.2,2.27-10.31,4.77-15.53,7-4.94,2.11-10,4-15,6-2.7,1.06-5.43,2-8.11,3.14-4,1.65-8,3.39-12,5.06-3,1.25-6,2.44-9,3.69s-6.15,2.64-9.26,3.9c-3.92,1.6-7.87,3.14-11.82,4.69-2.91,1.14-5.82,2.28-8.75,3.37-3.35,1.24-6.75,2.36-10.09,3.65-5.81,2.26-11.55,4.74-17.4,6.91-6.05,2.24-12.21,4.21-18.32,6.31-.32.11-.61.29-.92.41-3.61,1.45-7.19,3-10.85,4.3s-7.68,2.37-11.46,3.72c-6.3,2.24-12.52,4.72-18.84,6.91-4,1.38-8.14,2.41-12.21,3.6-.43.13-.82.36-1.25.51-4.44,1.49-8.86,3.05-13.34,4.45-4,1.23-8,2.24-11.93,3.42-4.6,1.37-9.12,3.05-13.78,4.15-6.32,1.49-12.74,2.57-19.12,3.79-2.31.45-4.69.64-6.95,1.27-1.45.41-3.28,1.06-4,2.2-2.39,3.87-4.16,8.13-6.56,12-1.59,2.57-1.8,5.55-3.08,8.08a20.25,20.25,0,0,0-2.12,8.06c-.35,5.4-1.58,10.72-.39,16.26.89,4.13.8,4.56,4.95,4.51Zm-95.33-35.19c1.13.91,2.24,1.89,3.45,2.75.63.45,1.45.61,2.12,1l22.28,13c2.51,1.46,5,2.92,7.56,4.31q5.61,3.06,11.27,6c4.77,2.46,9.64,4.73,14.34,7.32,3.73,2.06,28.14,13.78,31.54,14.89a53.84,53.84,0,0,0,9.39,2.75c11,0,66.75-20.4,73.48-22.48.43-.14.82-.35,1.24-.51,3.65-1.4,7.26-2.89,11-4.16,6.23-2.16,12.54-4.07,18.75-6.29,6-2.15,11.88-4.6,17.85-6.83,3.46-1.29,7-2.37,10.47-3.6q4.41-1.55,8.8-3.22c4.16-1.59,8.31-3.24,12.46-4.86,3-1.18,6-2.32,9.05-3.53,3.21-1.29,6.4-2.66,9.62-3.94,3.93-1.57,7.91-3,11.85-4.6,3.11-1.24,6.16-2.6,9.28-3.82,5.51-2.16,11.07-4.21,16.57-6.39,3.63-1.44,7.19-3.07,10.8-4.55,3-1.22,6.06-2.29,9-3.56,3.28-1.4,6.45-3,9.73-4.44,3-1.27,6.08-2.24,9-3.53,5-2.19,10-4.55,14.93-6.82,2.23-1,4.46-2,6.71-3,3-1.26,6-2.37,9-3.71,5.06-2.31,10.06-4.79,15.11-7.13,4.55-2.12,9.14-4.15,13.71-6.23,2.23-1,4.49-2,6.68-3.09,5-2.53,9.93-5.12,14.89-7.69,1.88-1,3.79-1.92,5.63-3,4.35-2.51,8.76-4.93,13-7.68a115.83,115.83,0,0,0,10.17-7.64,2.55,2.55,0,0,0-.14-4.29c-4.25-2.68-8.51-5.36-12.82-7.94a55.58,55.58,0,0,0-6.22-3.24c-3.19-1.41-4.4-.75-5.23,2.68-.37,1.53-.3,3.23-.94,4.61-1,2.19-2,4.91-3.81,6.09-3.73,2.4-8,4-12.09,5.79-2.55,1.15-5.17,2.13-7.73,3.27-3.35,1.5-6.64,3.15-10,4.61-4.81,2.09-9.69,4-14.48,6.09-5.12,2.24-10.15,4.67-15.26,6.9s-10.32,4.29-15.47,6.46c-2.57,1.09-5.12,2.24-7.68,3.37-3.06,1.35-6.12,2.73-9.2,4.07-3.48,1.52-7,3-10.47,4.5-2.88,1.22-5.77,2.45-8.67,3.63s-6,2.35-9,3.58c-3.92,1.6-7.83,3.25-11.74,4.88-.61.26-1.21.55-1.81.83-3,1.4-6,2.88-9.1,4.17s-6.28,2.33-9.39,3.57c-2.38,1-4.71,2.08-7.07,3.1-3.27,1.42-6.54,2.86-9.84,4.21-3.1,1.27-6.25,2.39-9.34,3.65-3.72,1.52-7.39,3.17-11.11,4.68-2.8,1.14-5.66,2.11-8.45,3.24-4,1.64-8,3.38-12,5-3,1.25-6,2.45-9,3.71s-5.93,2.61-8.92,3.82c-3.41,1.38-6.88,2.62-10.3,4s-7,2.84-10.55,4.27c-2.07.84-4.08,1.83-6.2,2.53-6.12,2-49.43,18.34-54,20.13-3,1.17-17.91,5.55-20.86,7.71-1.23.9-14.88,2.49-17.6-7-.86-8.76.64-17.25,2.81-25.65a45.07,45.07,0,0,1,2.94-7.83c1.23-2.61,2.78-5.07,4.22-7.58.88-1.54,1.8-3.07,2.71-4.6,1.46-2.46.94-3.65-1.64-4.85-4.84-2.25-9.59-4.7-14.39-7-2.29-1.12-4.61-2.21-6.92-3.3-2.61-1.24-5.27-2.4-7.85-3.7-3.08-1.57-6.1-3.25-9.16-4.87-2.17-1.15-4.38-2.25-6.53-3.44-3.61-2-7.18-4-10.87-6.06a32.12,32.12,0,0,0-2.88,3.65c-2,3.37-3.71,6.86-5.63,10.26a67.27,67.27,0,0,1-12.26,15.46C543.67,776.26,537.49,781.62,530.84,787.66Zm-232.21-478-.12-1.32a40.34,40.34,0,0,1,4-1.22c4.83-1,6.62-3.67,5.62-8.46-1.33-6.36-2-12.84-3.86-19.11-1.08-3.67-.94-3.87-4.85-3.79-2,0-2.53.93-3.09,2.73a28.38,28.38,0,0,1-3.75,8.15c-5.16,7.11-13.1,8.92-21.17,10-4.85.68-9.48-.78-14.21-1.87-5.33-1.22-12.35-8.47-12.72-14.24-.09-1.45-.58-2.88-.63-4.33-.08-2.37-1.48-2.9-3.5-3.21s-2.72.74-3.48,2.3c-.87,1.76-2.29,3.18-4.49,3s-3.37-1.6-4-3.56a3.35,3.35,0,0,0-.22-.63c-1.93-3.54-3.6-7.24-6.65-10-2.66-2.43-8.11-3.16-11-1.1-2.32,1.66-5.25,3-5.72,6.32-.61,4.13-1.22,8.54,1.06,12.2a43.78,43.78,0,0,0,8.37,10A37.44,37.44,0,0,1,226,310.54c1,3.62,1.22,7.36,2.74,11,1.93,4.63,4.14,9,7.5,12.59,6.14,6.49,12.68,12.59,19,18.87a15.32,15.32,0,0,1,4.67,7.53c1.54,6.42,1.56,12.92,1.89,19.42.18,3.66,1.06,4.65,4.64,5.41,2.5.53,4.94,1.41,7.41,2.11,1,.28,2,.48,2.92.76,4.18,1.21,8.39,2.34,12.53,3.69,3.72,1.2,7.34,2.71,11,4,5.07,1.75,10.18,3.38,15.26,5.09,1.65.55,3.13.59,4.13-1.08,1.66-2.79,3.37-5.56,4.82-8.46a4.78,4.78,0,0,0-.07-3.12c-1.23-4.07-2.64-8.08-3.89-12.14-1.48-4.81-2.8-9.67-4.28-14.49-.79-2.57-.16-4.53,2.24-5.54,6.51-2.75,11.36-7.46,15.45-13a62.79,62.79,0,0,0,8.54-16.53c2.21-6.24,4.4-12.45,5.21-19.06a15.2,15.2,0,0,1,.57-2.28,61.43,61.43,0,0,0,1.85-16.69,14.28,14.28,0,0,0-.82-3.45c-13.76,5.46-26.6,6.45-38.56-3.55a8.62,8.62,0,0,0,.4,5.76,52.15,52.15,0,0,1,1.78,7.17c.33,1.87.16,3.82.4,5.71.7,5.72.07,7.22-5.05,9.5C305.11,311.13,301.74,311.55,298.63,309.62Zm86-165.39c-4.81-3.86-10.47-6.09-16-8.48-5.91-2.57-12.15-4.4-18.24-6.55-.31-.11-.61-.29-.92-.4-3.77-1.38-7.5-2.88-11.32-4.09-4.15-1.32-8.37-2.36-12.56-3.56-.63-.18-1.19-.64-1.83-.84-4.27-1.28-8.52-2.65-12.84-3.76-5.62-1.44-11.3-2.68-16.95-4-.22-.05-.42-.16-.64-.21-2.05-.47-4.1-1-6.16-1.39-2.42-.5-5-.56-7.23-1.46-5.95-2.4-11.7-2.5-17.5.33a26.87,26.87,0,0,1-2.9.8c-1.45.5-2.86,1.09-4.29,1.64-.83.32-1.65.66-2.49,1-3.57,1.2-7.15,2.39-10.71,3.61-.31.1-.55.41-.85.54-3.35,1.44-6.69,2.91-10.07,4.29-3.08,1.26-6.23,2.35-9.3,3.65s-6.25,2.85-9.41,4.22c-3,1.29-6,2.45-9,3.71-2.26,1-4.51,1.95-6.73,3-3,1.42-6,3-9,4.38-2.73,1.27-5.57,2.34-8.26,3.68-4.71,2.33-9.4,4.71-14,7.24-3.42,1.88-6.74,4-10,6.11-.9.59-1.39,1.78-2.17,2.83,2.71,1.19,4.87,2.47,7.21,3.09,5.08,1.35,10.25,2.37,15.38,3.52.77.17,1.54.31,2.31.49,6.23,1.41,12.4,3.07,18.68,4.19,8.84,1.58,17.75,2.72,26.62,4.12,2.21.34,4.36,1.09,6.57,1.41,6.11.87,12.23,1.62,18.35,2.39,1.56.2,3.13.34,4.69.43,4.94.3,10,0,14.79,1,5.05,1,9.54-.5,14.15-1.65,5.85-1.46,11.62-3.27,17.42-4.94.43-.12.86-.27,1.29-.41,4.57-1.44,9.13-3,13.74-4.31,4.38-1.27,8.82-2.36,13.24-3.54.32-.09.61-.28.93-.38l13.41-4.33c4.88-1.59,9.76-3.18,14.62-4.81,3.08-1,6.12-2.13,9.19-3.18,3.48-1.2,7-2.31,10.45-3.6a59.67,59.67,0,0,0,5.45-2.53C383.15,146.74,384.4,146,384.67,144.23ZM520.72,622.18c4.78,2.8,8.91,4.87,12.65,7.49a86.28,86.28,0,0,1,17.41,16.19,109.18,109.18,0,0,1,14,21.65c3.52,7.28,6.91,14.54,8,22.66a17.22,17.22,0,0,0,.63,1.92,32,32,0,0,1,1.18,5.56c.29,5.83.42,11.68.49,17.53,0,2.52.86,4.19,3.29,5.28,3,1.33,5.72,3,8.57,4.61,3.42,1.87,6.82,3.78,10.28,5.59,2.16,1.12,4.41,2.09,6.63,3.11,3,1.4,6,2.84,9.11,4.17,3.85,1.66,7.34,4.29,11.74,4.8,1-1.86.51-3.58,0-5.3a23.69,23.69,0,0,1-1-3.54c-1.8-12.4-1.55-24.88-.75-37.32.33-5,1.58-9.93,2.52-14.87a65.64,65.64,0,0,1,1.81-7.15c1-3.19,2.49-6.26,3.18-9.51.82-3.85,2.81-7.06,4.64-10.37,1.43-2.57,1.22-4.11-1.39-5.52-2.16-1.17-4.4-2.21-6.62-3.26-6.35-3-12.71-5.95-19-9-1.91-.9-3.8-1.84-5.66-2.85-4.22-2.28-8.4-4.66-12.64-6.92-5.82-3.11-11.71-6.09-17.51-9.24-4.4-2.39-8.73-4.93-13-7.46-4-2.36-8-4.83-12.07-7.21-3-1.76-6-3.45-9.48-5.45-.29,1.66-.82,3-.67,4.15.47,3.82-1.48,6.34-4,8.71C528.92,614.3,525.08,618,520.72,622.18Zm414.53,16.71a17,17,0,0,0-1.31-1.88c-3.6-3.67-7.37-7.19-10.77-11a4.83,4.83,0,0,0-5.73-1.45A78.21,78.21,0,0,0,910,627.6c-3.15,1.42-6.24,3-9.4,4.37-2.34,1-4.74,2-7.11,2.93-3.09,1.25-6.19,2.48-9.26,3.77-3.5,1.47-7,3-10.45,4.51-3,1.28-5.93,2.56-8.88,3.86s-5.9,2.68-8.88,3.93-6.06,2.31-9,3.57c-5.76,2.43-11.48,5-17.24,7.39-2.88,1.22-5.86,2.2-8.72,3.44-3.27,1.41-6.44,3-9.7,4.47-3.68,1.62-7.4,3.13-11.12,4.66-2.79,1.15-5.6,2.26-8.4,3.38-3.51,1.41-7,2.78-10.54,4.22-3.1,1.27-6.15,2.65-9.26,3.9s-6.45,2.46-9.66,3.74c-3.94,1.57-7.85,3.21-11.77,4.81-2.8,1.14-5.59,2.29-8.39,3.42L731,702.51q-4.66,1.88-9.33,3.73c-3.74,1.47-7.47,3-11.22,4.37-3.13,1.19-6.32,2.23-9.44,3.46s-6.28,2.83-9.51,4c-3.66,1.35-7.42,2.44-11.13,3.66-.53.18-1,.5-1.53.7-3.52,1.38-7,2.83-10.59,4.11s-7,2.28-10.49,3.47c-4.22,1.44-8.39,3.06-12.66,4.38-3.83,1.18-7.76,2.09-11.66,3.08-1.2.3-2.22.79-2,2.21a14.09,14.09,0,0,0,1,4.57c.78,1.53,1.75,3.44,3.89,3.32a99.3,99.3,0,0,0,10-1.09c2.64-.43,5.22-1.23,7.83-1.86,1.41-.35,2.84-.64,4.25-1q7.56-2.11,15.12-4.28c4.09-1.16,8.21-2.23,12.26-3.54,3.82-1.23,7.53-2.8,11.36-4s7.92-2.32,11.89-3.48c.43-.13.83-.35,1.25-.49l13.6-4.69c3.6-1.23,7.2-2.43,10.78-3.72,3.77-1.36,7.5-2.85,11.28-4.2,3.56-1.28,7.17-2.41,10.73-3.68,2.64-.93,5.23-2,7.84-3,3.76-1.43,7.49-2.92,11.26-4.31,3.24-1.2,6.54-2.24,9.76-3.48,3.65-1.39,7.23-3,10.88-4.37,3.35-1.26,6.79-2.29,10.15-3.53,2.62-1,5.18-2.09,7.76-3.17,3.19-1.32,6.35-2.72,9.56-4s6.71-2.43,10-3.72c4-1.57,8-3.26,12.07-4.85,2.81-1.11,5.67-2.06,8.45-3.24,3.48-1.47,6.87-3.17,10.36-4.63,5.06-2.1,10.18-4.07,15.27-6.11,2.27-.9,4.55-1.78,6.8-2.76,3.76-1.64,7.49-3.38,11.26-5,2.55-1.11,5.2-2,7.73-3.15,2.84-1.3,5.53-2.89,8.38-4.17C921.05,645,927.92,642.08,935.25,638.89Zm13,10.41c-2.09-1.81-3.74-3.29-5.44-4.71-2.14-1.79-2.92-1.74-5.44-.45-3,1.52-6,2.91-9,4.28-2.64,1.18-5.37,2.18-8,3.39-4.87,2.24-9.64,4.71-14.57,6.83-7.38,3.17-14.87,6.12-22.3,9.19-2.48,1-4.91,2.17-7.37,3.25-3.17,1.38-6.32,2.8-9.53,4.11s-6.47,2.42-9.66,3.74c-5.37,2.23-10.65,4.67-16,6.83-5.71,2.28-11.51,4.31-17.26,6.5-2.61,1-5.18,2.1-7.76,3.17-3.08,1.28-6.12,2.7-9.25,3.86-6,2.21-12,4.27-18,6.42-2.31.82-4.67,1.56-6.9,2.57A74.54,74.54,0,0,1,767,713.67a6.87,6.87,0,0,0-.9.45c-3.62,1.43-7.23,2.93-10.89,4.26-3.46,1.26-7,2.29-10.48,3.53-3.88,1.39-7.69,3-11.59,4.34s-7.86,2.46-11.79,3.69c-.32.1-.61.29-.92.4-4.1,1.47-8.16,3-12.3,4.36-3.92,1.26-8,2-11.87,3.47-5.46,2-10.9,4.06-16.66,5.08a9.45,9.45,0,0,0-1.28.39c-4.58,1.43-9.09,3.21-13.76,4.21-5.7,1.21-11.15,3.62-17.1,3.61a2.27,2.27,0,0,0-1,.26c-4.12,2-8.55,1.66-12.92,1.65a7.18,7.18,0,0,1-2.93-.6c-4.66-2.15-9.28-4.39-13.91-6.61-2-1-4-2-6-2.9-4.78-2.19-9.64-4.2-14.35-6.51-6.13-3-12.13-6.26-18.21-9.35-2.22-1.12-3.7-.62-4.59,1.66a41.48,41.48,0,0,0-1.29,4.87,2.47,2.47,0,0,0,1.43,3.05c4.69,2.58,9.32,5.27,14,7.79,4.24,2.25,8.59,4.31,12.88,6.48s8.71,4.6,13.15,6.7c4.73,2.24,9.8,3.85,14.31,6.44,4,2.3,8,2.13,12.05,1.32,6.15-1.21,12.25-2.67,18.32-4.25,6.49-1.68,12.92-3.59,19.36-5.47,7.08-2.06,14.14-4.19,21.21-6.3.53-.16,1-.45,1.56-.64,3.79-1.37,7.55-2.8,11.37-4.07s7.51-2.2,11.22-3.43c5.08-1.69,10.12-3.52,15.17-5.3.53-.18,1-.52,1.52-.72q5.79-2.17,11.6-4.31c3.45-1.27,6.92-2.49,10.36-3.78,3.75-1.4,7.46-2.91,11.22-4.3,3.23-1.2,6.54-2.23,9.76-3.46,3.65-1.39,7.22-3,10.88-4.38,3.35-1.27,6.79-2.29,10.15-3.53,2.62-1,5.18-2.1,7.77-3.15q5.25-2.14,10.53-4.27c3.31-1.32,6.63-2.6,9.94-3.93s6.57-2.73,9.87-4,6.7-2.52,10-3.89,6.49-3,9.79-4.33c7.35-3,14.74-5.92,22.1-8.89,2.28-.92,4.55-1.85,6.78-2.87,2.93-1.35,5.77-2.91,8.74-4.18,5.13-2.2,10.37-4.15,15.48-6.4s9.88-4.68,14.82-7c2.11-1,4.24-2,6.38-2.93,3-1.29,6-2.44,8.92-3.83C946,651.53,946.81,650.51,948.26,649.3Zm-734.82-248a65.29,65.29,0,0,1,5.17,4.23c6.59,6.51,12.83,13.4,19.68,19.62,7.37,6.69,15.25,12.83,23,19.14a80.36,80.36,0,0,0,7.53,5.61c5.27,3.37,10.68,6.53,16,9.8a122.32,122.32,0,0,0,20.88,9.82c3.46,1.3,7.18,1.93,10.53,3.43,5.43,2.42,11.24,1.94,16.87,2.66,3.72.47,7.61-.15,11.41-.51a13.31,13.31,0,0,0,5.44-1.44c5.21-3.14,8.32-8.19,10.45-13.63a109.2,109.2,0,0,0,3.78-12.49c1.89-7.3,2.19-14.64,2.53-22a7.52,7.52,0,0,1,.22-2.67c1.4-3.12,1-6.4,1.07-9.64.07-2,.3-4,.42-6,.11-1.8.3-3.6.24-5.39-.09-2.45-.73-2.93-3.82-3.22-1,2.54-2.18,5.09-2.93,7.77-1.35,4.84-2.42,9.76-3.62,14.65a6.19,6.19,0,0,1-.24.63c-1.5,4.31-3.12,8.59-4.47,12.95-1.19,3.85-4.14,4.9-7,2.06-5.4-5.4-10.62-11-16-16.43-2.93-3-6-5.91-8.91-8.84-2.36,1.35-2.84,3.42-3.08,5.58-.2,1.79-.19,3.6-.49,5.37-.83,5-1.7,9.95-2.68,14.89-.56,2.86-1.23,5.7-2.07,8.48s-1.71,3.49-4.46,2.86a67.59,67.59,0,0,1-10.72-3.7c-3.19-1.33-6.24-3-9.31-4.6-3.88-2-7.74-4.05-11.54-6.2-4.07-2.3-8.05-4.76-12.09-7.12-5.21-3-10.49-6-15.64-9.13s-10.21-6.44-15.26-9.75c-4.49-2.94-9-5.9-13.34-9C217.9,396.7,216.23,396.88,213.44,401.31Zm-8.56-222a69.16,69.16,0,0,0,0,15,30.13,30.13,0,0,0,.92,4.25c.48,1.93,1.13,3.84,1.48,5.8s.37,4,.66,6c.67,4.54,2.25,5.41,6.74,4.21,5.61-1.5,11.25-3,16.94-4.15,6-1.24,12.15-2.1,18.23-3.11,5.31-.87,10.61-1.84,15.95-2.53,4.34-.55,8.73-.66,13.08-1.12,2.77-.29,5.49-1.13,8.25-1.25,12.34-.57,24.69-1,37-1.44,4.05-.14,4.73-.35,5.16-4.54.77-7.35,1.06-14.74,1.49-22.12a10.33,10.33,0,0,0-.6-2.59l-16.71,4.46c-.43.12-.85.29-1.28.43-4.14,1.33-8.25,2.79-12.43,4-4.62,1.32-9.31,2.39-14,3.57a7.1,7.1,0,0,0-1.27.45,29.57,29.57,0,0,1-14.1,2.72c-4.93-.19-9.87-.47-14.77-1-7.25-.76-14.48-1.71-21.71-2.7-5.86-.8-11.71-1.76-17.55-2.69-2.54-.41-5.06-1-7.6-1.37C207.65,179.42,206.44,179.42,204.88,179.3ZM912.35,452.09c2.59,2.93,5,5.85,7.58,8.55,4.84,5,9.85,9.84,14.74,14.8,6.92,7,13.8,14.11,20.69,21.17q6.32,6.47,12.6,13c3,3.14,6.1,6.24,9,9.47,1.18,1.31,2.23,1.2,3.54.45,5.7-3.28,11.51-6.4,17.09-9.88a91.15,91.15,0,0,0,9.91-7.4c1.87-1.55,1.57-3.27-.46-4.65-1-.7-2.06-1.36-3.12-2-5-3-9.9-6.07-15-8.83-4.49-2.42-9.23-4.38-13.79-6.67-4.37-2.19-8.65-4.55-13-6.8-2-1-4-2-6-2.89-5.38-2.46-10.79-4.86-16.16-7.34-4.36-2-8.67-4.14-13-6.15-3.54-1.63-7.12-3.17-10.68-4.74C915.1,451.64,913.92,450.86,912.35,452.09ZM237.06,260.34c0,1.12,0,2.25,0,3.37-.06,2,.75,3.22,2.86,3.4a3.49,3.49,0,0,1,1.62.39c2.09,1.39,4,.43,5-1.11a20.23,20.23,0,0,1,8.28-6.57c2.53-1.22,5.49-1.44,7.84-3.26.51-.4,1.52-.19,2.31-.2,3.93-.06,7.87-.09,11.8-.15,8-.14,13.82,3.55,17.77,10.42,1.25,2.18,2.84,3.74,5.7,3.13a17.82,17.82,0,0,1,3-.08c3.11-.1,3.31-.37,3.76-3.46a16,16,0,0,1,4.42-9.22c3.46-3.47,7.27-6.28,12.52-6.21.61,0,1.22-.49,1.83-.73,1.23-.47,2.44-1.28,3.7-1.35,4.12-.22,8.27-.16,12.41-.26.71,0,1.93-.11,2-.45a3.66,3.66,0,0,0-.24-2.47c-1.64-3.28-3.48-6.45-5.12-9.73-2.05-4.12-4.58-5.21-8.71-3.16a53,53,0,0,0-6.12,4.09,67.79,67.79,0,0,1-6.09,4.12,50.73,50.73,0,0,1-16.62,4.93c-4.43.63-8.8,1.89-13.24,2.21-7.27.54-14.59.71-21.88.7-3.79,0-7.7-.23-11.16-2.11a74.94,74.94,0,0,1-7.34-4.57c-1-.73-2-1.34-3-.52a15,15,0,0,0-4,4A27.14,27.14,0,0,0,237.06,260.34ZM510.35,886.18l1.14-.41a18.71,18.71,0,0,0,.74-3.78,72.24,72.24,0,0,0-.46-10.09c-.85-5.64-2.08-11.23-3.18-16.84-.09-.43-.42-.8-.55-1.23-.58-1.92-1.07-3.87-1.73-5.76a19.14,19.14,0,0,0-1.58-3.13c-1.37-2.34-8.45-20.61-8.81-21.9-1-3.58-3.61-5.66-6.9-6.79-2.45-.84-4.55.25-6.1,2.46a9.57,9.57,0,0,0-1.51,6.43c.19,2.88-.14,5.57-2.11,7.92a5.42,5.42,0,0,0-1.17,2.76c-.67,5.53-1.22,11.08-1.82,16.69,2.49,0,4.84-.06,7.18,0,.85,0,2.1.11,2.47.65a36.56,36.56,0,0,1,2.77,5.26c.36.78.33,1.81.82,2.48,4.24,5.79,8.41,11.63,12.9,17.23C504.78,881.06,507.7,883.52,510.35,886.18ZM350.47,267.58h-.29c0-2.92.14-5.85-.06-8.76-.1-1.38-.43-3.35-1.36-4-2.41-1.57-5.19-3.47-7.86-3.53-5.2-.11-10.75-2.18-15.68,1.47-.75.57-1.92.58-2.89.85-.75.21-1.7.21-2.22.68-3.45,3.14-7.41,5.59-8.25,11.12a17.85,17.85,0,0,0,2.43,11.77c1.21,2.19,3.56,4.67,5.82,5.19,5.91,1.35,11.92,3.18,18.18,1.27,3.08-.94,6.28-1.14,9.11-3.16,2-1.41,3-2.88,3.06-5.18C350.5,272.76,350.47,270.17,350.47,267.58ZM195.37,919c1.36-2.86,2.51-5.12,3.51-7.44,1.15-2.66,2.17-5.38,3.26-8.06,1.37-3.41,2.85-6.79,4.12-10.24,1-2.72,1.81-5.51,2.61-8.31s.11-3.82-2.64-4.17c-4.65-.58-9.32-1-14.37-1.59a11.88,11.88,0,0,0-.91,3.31c.2,9.76.44,19.52.83,29.27C191.88,914.26,193,916.49,195.37,919ZM505.11,519.49c1.25,2.54,3.14,3.21,5.34,3.63,4.29.83,8.55,1.8,12.8,2.82,1.33.31,2.64,1,2.48,2.72a2.68,2.68,0,0,1-2.88,2.35,19.07,19.07,0,0,1-5.63-.59,7.92,7.92,0,0,0-7.6,1.34c-.88.7-2,1-1.8,2.51.23,1.63,1.29,2.15,2.76,2.44A7.53,7.53,0,0,1,514,538c2.35,2.11,5.1,2,7.93,2.06,2.13,0,3.15-1,3.9-2.93a36.53,36.53,0,0,0,2-17.58c-.39-3.35-1.86-6.6-4.92-8.44-3.57-2.16-7.52-3.6-11.8-3.21-2.11.19-4.48-.46-6.38,1.14,1.54,2.77,1.71,2.76,4.31,3.39a97.07,97.07,0,0,1,9.36,2.67c.86.29,2,1.5,2,2.18a3.25,3.25,0,0,1-2.06,2.24,10.89,10.89,0,0,1-4.58-.06A16.49,16.49,0,0,0,505.11,519.49ZM149.69,199.21a18.66,18.66,0,0,0,2.93-.52c2.62-1,3.8-5.1,2-6.6-1.68-1.37-7.3-.48-8.22,1.51a3.89,3.89,0,0,0,.09,3.34C147.28,198.05,148.81,198.63,149.69,199.21Zm108.56,64.14,7.37-3.6c-1.7-.19-4.42.05-4.47.31L256,262.79a25.22,25.22,0,0,0-2.78,1.89,10.89,10.89,0,0,0-4.83,7.66,16.45,16.45,0,0,0,2.74,12.47c2.06,2.87,4.84,5.3,8,5.72,8,1.07,16.25,2.54,23.93-2.08,4.32-2.61,7.9-5.53,8-11.09,0-.67.29-1.33.31-2,.1-4.21,0-8.43-3.65-11.35a42,42,0,0,0-6.65-4.3c-.84-.44-2.17,0-4,.11l3.64,3c-1.95,1.91-2.19,1.91-4.93,2.15-2.9.24-5.79.64-8.68,1-2.43.33-4.83.93-7.27,1.07-1.16.08-2.37-.63-4-1.12l2.47-2.65m50,15.16.81-.1c-.12-.67-.25-1.34-.37-2l-.63.11Z"/><path d="M765.72,83.19c0-13.6,0-27.21,0-40.81,0-2.69.2-5.39.46-8.08a5.33,5.33,0,0,1,6.09-4.84c2.49.44,3.47,2.53,4.07,4.5a13.2,13.2,0,0,1,0,8.62,9.91,9.91,0,0,0-.61,2.61c-.29,4.37-.68,8.74-.71,13.11a155,155,0,0,1-2.53,25.44c-.27,1.54-.13,3.14-.26,4.71a49.61,49.61,0,0,1-.6,5c-.26,1.34-1.18,2.43-2.6,2a5.89,5.89,0,0,1-2.62-2.17c-.4-.54-.23-1.52-.24-2.31,0-2.58,0-5.17,0-7.76Z"/><path d="M732.1,99.23c-1.3-2.45-2.62-4.5-3.54-6.72-1.92-4.63-3.68-9.32-5.39-14-1.25-3.45-2.26-7-3.48-10.46-1.33-3.79-2.78-7.53-4.17-11.3-.23-.63-.38-1.29-.58-1.93-.8-2.54-1.8-5-2.38-7.64a46,46,0,0,1-1.23-8.64c-.08-2.87,1.17-4,3.75-4.27,2.81-.32,4.87.78,5.56,3.18,1.15,4,2.12,8,3.23,12,1.3,4.64,2.67,9.25,4,13.87.09.33.27.63.34,1,1.21,5.82,2.35,11.65,3.63,17.45.64,3,1.55,5.84,2.26,8.77.29,1.2.38,2.45.55,3.67C735,96.65,735,96.65,732.1,99.23Z"/><path d="M441.34,185.84c-.14-1.57.72-2.93,2.44-4a3.71,3.71,0,0,1,4.89.45c2.42,2.14,4.89,4.24,7.12,6.56,5.94,6.22,11.88,12.45,17.62,18.85,5.45,6.08,10.68,12.36,15.93,18.61.55.65,1.09,2.17.78,2.51A3.83,3.83,0,0,1,487.3,230a6.46,6.46,0,0,1-3.2-1.56c-5.18-4.43-10.38-8.86-15.39-13.47-6.43-5.92-12.68-12-19-18-1.94-1.83-3.95-3.63-6.05-5.28C441.83,190.23,441.41,188.36,441.34,185.84Z"/><path d="M410,252.64c1.64.43,4.45,1.17,7.25,1.94,1.3.35,2.59.75,3.87,1.14,5.35,1.6,10.7,3.22,16.05,4.81,4,1.17,8,2.22,11.91,3.48,4.23,1.36,8.4,2.92,12.61,4.37,1.16.41,2.35.73,3.51,1.15s2.14,1.28,1.65,2.82-1.21,2.43-2.93,2.09q-9.23-1.83-18.46-3.64c-1.1-.21-2.23-.24-3.33-.46-3.06-.6-6.12-1.26-9.17-1.9-.44-.09-.86-.29-1.29-.38-5.7-1.19-11.41-2.3-17.09-3.56-2.51-.56-5-1.41-7.44-2.11s-4.7-3.38-4.46-5.19C403.07,254.32,405.57,252.43,410,252.64Z"/><path d="M495.76,455.77a.84.84,0,0,0,.14-1.27c-1.81-1.89-3.12-3.17-6.7-1.38-3,1-18.57,9-19.32,9.51s-.83,1.46.21,1,19.11-9.5,21.12-9.5a6.21,6.21,0,0,1,3.55,1.59.83.83,0,0,0,1,0Z"/><path d="M732.16,185.2c6.4.3,12.81.58,19.21.91a16.42,16.42,0,0,1,2.64.52c2.72.6,5.46,1.15,8.16,1.85,1.61.41,3.16,1.05,4.73,1.6.53.19,1,.48,1.56.62,9.67,2.45,18.21,7.18,26.39,12.76a103,103,0,0,1,22.23,20.76,158.75,158.75,0,0,1,11.59,17.24,154.79,154.79,0,0,1,7.42,14.3c1.47,3.13,2.5,6.46,3.71,9.71,1.48,4,3.14,7.89,4.34,11.95,1.43,4.83,2.48,9.77,3.66,14.67a26.32,26.32,0,0,0,.64,3.64c1.83,4.49,1.71,9.25,2.19,13.93.5,4.91,1.14,9.8,1.67,14.7a23.73,23.73,0,0,1,.24,5c-.78,7.24-1.41,14.53-2.69,21.7-.94,5.26-3,10.33-4.19,15.56a74.68,74.68,0,0,1-6.39,16.18c-2.61,5.18-5.84,10.06-9,15-5.2,8.17-12.1,15-18.45,22.19a53.32,53.32,0,0,1-7.6,6.6c-5.56,4.3-11.08,8.67-16.88,12.62-3.86,2.63-8.16,4.62-12.29,6.86-1.77.95-3.56,1.9-5.41,2.69-5.64,2.39-11.31,4.69-17,7l-.31.11-13.9,3.7c-5.3,1.41-10.57,2.92-15.9,4.18-2.5.59-5.11.65-7.66,1s-5.28,1-7.94,1.38a72.45,72.45,0,0,1-8.68.85c-7.08.12-14.15.05-21.23,0-3.15,0-6.31,0-9.22-1.51a2.12,2.12,0,0,0-1-.28c-5.88.27-11.15-2.33-16.69-3.6a38.55,38.55,0,0,1-8.46-3.17A159.67,159.67,0,0,1,627,450.5a90.36,90.36,0,0,1-11.1-8.74,120,120,0,0,1-20.74-24.53c-3.34-5.17-6.83-10.27-9.69-15.69-3.35-6.31-6.08-13-9.08-19.44-1.41-3-2.94-6-4.18-9.1a81.48,81.48,0,0,1-2.6-8c-1.22-4.18-2.4-8.38-3.49-12.6a82.67,82.67,0,0,1-1.79-8.2,71.14,71.14,0,0,1-1.1-10.36c0-9.22.22-18.43.4-27.64a13.33,13.33,0,0,1,.44-2.65c.63-2.84,1.15-5.71,2-8.48,1.39-4.69,2.89-9.36,4.51-14a62.33,62.33,0,0,1,3.33-7.7,104.42,104.42,0,0,1,6.5-11.67,211.67,211.67,0,0,1,13.45-17.9,105.78,105.78,0,0,1,12.86-12.26c6.29-5.2,12.81-10.15,19.47-14.87,3.7-2.64,7.87-4.62,11.85-6.86,2.62-1.47,5.2-3,7.93-4.28,3.12-1.42,6.4-2.52,9.6-3.77,3.61-1.41,7.2-2.86,10.81-4.25.93-.36,1.94-.53,2.9-.83l14-4.4a3.22,3.22,0,0,1,.62-.25c6.36-.51,12-4.44,18.6-3.87a4.48,4.48,0,0,0,2-.19c7.33-2.85,15-2.43,22.64-2.47,1.69,0,3.37-.14,5.06-.22ZM846.52,326.13c-.64-5.8-1.3-11.58-1.92-17.37-.49-4.55-.17-9.24-2.35-13.52a10.62,10.62,0,0,1-.41-2.31q-1.82-7.85-3.66-15.68a10.29,10.29,0,0,0-.55-1.23c-1.29-3.46-2.55-6.92-3.86-10.37s-2.41-7-4-10.27c-2.93-5.9-5.44-12-9.44-17.38-3.41-4.55-6.49-9.36-10.09-13.75a88.11,88.11,0,0,0-9.81-10.08,109.18,109.18,0,0,0-11.71-8.95,93.44,93.44,0,0,0-10.54-5.77,65.46,65.46,0,0,0-10.35-4.55c-4.91-1.45-9.72-3.57-15-3.49a8.21,8.21,0,0,1-1.63-.39c-2.74-.55-5.46-1.47-8.22-1.56-8.75-.3-17.51-.3-26.27-.38a9.2,9.2,0,0,0-2,.37c-5.55,1.22-11,2.73-16.81,2.68a9.31,9.31,0,0,0-2.31.43l-8.41,2.15c-.76.19-1.54.3-2.28.52-2.23.67-4.44,1.39-6.67,2.05-1,.28-2,.36-2.94.71-3.62,1.38-7.18,2.93-10.82,4.24-3.46,1.23-7,2.24-10.49,3.35a6.46,6.46,0,0,0-.93.42c-2.86,1.46-5.74,2.9-8.58,4.41-4,2.15-8.14,4.15-12,6.61-4.59,3-8.83,6.46-13.37,9.51-8.74,5.85-15.81,13.51-22.75,21.22-6.64,7.37-12.65,15.33-16.7,24.54-2.3,5.21-5,10.26-6.82,15.64a102.77,102.77,0,0,0-3.3,15.43c-.82,5-1.33,10-1.79,15-.74,8,1.32,15.86,1.83,23.81.21,3.3,1.89,6.5,2.14,9.8.39,5.29,2.74,9.94,4.23,14.84,1.67,5.52,4.24,10.79,6.68,16.05,2.92,6.27,5.88,12.55,9.27,18.58,3.11,5.53,6.79,10.73,10.24,16.07a96.39,96.39,0,0,0,15.77,18.25c5.16,4.79,10.51,9.4,17,12.47,4.72,2.25,9.19,5.12,14.06,6.95,4.67,1.75,9.72,2.53,14.61,3.71,1.42.34,2.88.51,4.3.86,8,1.92,16,1.71,24.14,1.56a66.53,66.53,0,0,0,7.74-.37c7.66-1,15.34-2,22.93-3.46,5.26-1,10.39-2.68,15.58-4.07q6.79-1.8,13.58-3.63a8.33,8.33,0,0,0,.93-.39c3.3-1.38,6.63-2.68,9.89-4.14,4.8-2.14,9.79-4,14.25-6.69a220.86,220.86,0,0,0,20.24-13.75A133.67,133.67,0,0,0,826,393.63c1.13-1.66,2.18-3.38,3.16-5.13,2.32-4.19,4.73-8.35,6.81-12.66a80.46,80.46,0,0,0,3.68-9.71c1.5-4.57,3.37-9.11,4.09-13.81C845,343.68,845.61,334.93,846.52,326.13Z"/><path d="M454.41,643.93a46.94,46.94,0,0,1-4.69-16.75c-.31-3.43-1.21-6.81-1.68-10.23-.44-3.23-.57-6.5-1-9.72-.52-4-1.28-8-1.78-12-.42-3.23-.51-6.5-.93-9.73-.52-4.1-1.31-8.16-1.82-12.26-.35-2.89-.34-5.83-.64-8.74-.77-7.36-1.73-14.71-2.41-22.08-.57-6.14-.78-12.33-1.31-18.48-.3-3.55-1-7.07-1.35-10.62a17,17,0,0,1,.6-4.06l1.06-.11a29.53,29.53,0,0,1,1,3.14c.27,1.31.1,2.75.55,4,2.28,6.23,2.56,12.73,2.94,19.24a29.11,29.11,0,0,0,1,4.54,29.74,29.74,0,0,1,.75,3.59c.68,6.58.71,13.22,2.5,19.7.76,2.77.46,5.81.83,8.71.56,4.32,1.41,8.6,1.89,12.92.46,4.13.47,8.31.91,12.44.4,3.78,1.11,7.52,1.68,11.27a24.23,24.23,0,0,1,.3,2.67c.31,7,.52,13.93.92,20.89a19.55,19.55,0,0,0,1.24,4.85A8,8,0,0,1,454.41,643.93Z"/><path d="M303.92,336c-7.68-.25-13.4-2.7-17.35-8.59a4.62,4.62,0,0,1-.93-1.74,2.22,2.22,0,0,1,.55-1.77,2.36,2.36,0,0,1,1.81-.12,4.48,4.48,0,0,1,1.38.93c5.49,3.94,11.39,6.59,18.37,6,1.34-.12,2.7,0,4,0s2.83.35,2.92,2.06-1.41,1.91-2.58,2.11C309.15,335.34,306.15,335.69,303.92,336Z"/><path d="M270.76,134.67c6.39,0,9.82,4,9.91,11.2.05,4.37-6,7.54-10.14,7.4-4.42-.15-10-3.58-9.83-9.46C260.86,138.81,265.37,134.66,270.76,134.67Zm1.05,13a8,8,0,0,0,1.13-.1c2.8-.6,5.23-4,4-5.9-1.48-2.35-4-1.59-6.11-1.29-2.73.38-3.53,1.23-3.6,3.17C267.18,145.83,269.05,147.6,271.81,147.66Z"/><path d="M276.09,282.55c-2.75-2.32-3.84-5.68-2.49-8.11a3.59,3.59,0,0,1,2.46-1.81c.72,0,1.77,1.21,2.08,2.09C279.45,278.45,278.93,280.18,276.09,282.55Z"/><path d="M328.68,261.83c-2.81,0-5.62.12-8.41-.07-.94-.06-1.83-.91-2.74-1.4.53-.78.89-1.82,1.61-2.3a9.2,9.2,0,0,1,4.15-1.85,91.62,91.62,0,0,1,11.36.21,6.06,6.06,0,0,1,3.12,1.76,10.61,10.61,0,0,1,1.62,2.59,8.89,8.89,0,0,1-2.64,1c-2.69.14-5.38,0-8.07,0Z"/><path d="M322.84,273.85a19,19,0,0,1,0-2,2.36,2.36,0,0,1,2.25-2.44,3.25,3.25,0,0,1,3.58,2.31,14.85,14.85,0,0,1,.13,3.65,3.47,3.47,0,0,1-3.64,3.52c-2.16-.09-2.2-1.82-2.37-3.38a15.31,15.31,0,0,1,0-1.66Z"/><path d="M813,327.93c.51,7.71-7.88,12.8-15.39,9.22a9.66,9.66,0,0,1-4.73-6.26c-1.41-4.81-3.09-9.55-4.69-14.3-1.22-3.6-2.41-7.21-3.77-10.75-.84-2.19-1.92-4.29-3-6.4a151.71,151.71,0,0,0-13.25-22.53A106.13,106.13,0,0,0,746,254.11a100.14,100.14,0,0,0-16.3-10c-3.29-1.59-6.88-2.56-10.33-3.83-1.58-.58-3.16-1.17-4.69-1.85-2.46-1.1-3.33-2.83-2.66-5.05.55-1.83,3.47-3.75,5.39-3.1,4.69,1.57,9.78,1.05,14.38,3.37,3.44,1.73,7.46,2.26,11.07,3.7a65.83,65.83,0,0,1,8,4.22c3.49,2,7,3.88,10.4,6.06a95.72,95.72,0,0,1,18.62,16.41,85.28,85.28,0,0,1,6.61,8c3.41,4.85,6.83,9.73,9.73,14.88,3.71,6.61,7.09,13.43,10.28,20.31,1.63,3.52,2.51,7.39,3.8,11.08.48,1.36,1.34,2.6,1.73,4C812.43,324.16,812.64,326.06,813,327.93Z"/></g></svg>