<svg xmlns="http://www.w3.org/2000/svg" viewBox="0 0 1080 952"><defs><style>.cls-1{fill:none;stroke:#000;stroke-linecap:round;stroke-linejoin:round;stroke-width:2px;}</style></defs><title>octopus</title><g id="Capa_6" data-name="Capa 6"><path d="M399.7,770.25c9.81-.73,81.75,0,86.22.06q75.23.2,150.45.08c2,0,41.09-.07,43.92,0,17.13.17,34.25.33,51.37.19a38.59,38.59,0,0,1,16.49,3.61c27.13,12.14,54.26,24.27,81.54,36.06,23.24,10,47.06,18.22,72.69,19.56,3.13.16,7-.08,7.64,4.29.49,3.58-1.83,6.2-4.67,8-5.3,3.38-11.39,4.49-17.5,4.68q-14.65.46-29.33,0c-48.11-1.32-96.19.88-144.29.64s-322.89-.57-412.18-.63c-16.71,0-33.42-.32-50.13-.57-2.33,0-5.39.57-6.35-2.29-.72-2.14,1.55-3.54,3.1-4.74,23.68-18.33,44.05-39.92,62.5-63.4,2.69-3.43,3.47-4.63,10.15-6.22S399.7,770.25,399.7,770.25Zm-79.52-6c-7.42-1.37-11.82,2.43-16.17,8.11a357,357,0,0,1-85.28,79.86c-11.24,7.55-23.22,13.69-36.3,17.13-33.51,8.83-61.54-2.71-78.36-31.59C89,812,89.3,785,100.5,757.91c13.25-32.11,35.95-57,61.86-79.22A368,368,0,0,1,217.22,640c3-1.71,5.76-3.08,2.33-7.26-21.08-25.65-31.8-56.6-44-86.76-5.2-12.83-9.93-25.86-16.52-38.07a118.87,118.87,0,0,0-8.41-13.43c-1.81-2.49-4.15-7.22-6.91-5.72-3.42,1.86.36,5.86,1.23,8.65,3.66,11.8,1.18,21.86-8,29.89-3.35,2.93-4.18,5.29-2.49,9.32s2.48,8.61,4.05,12.79c3.53,9.35,5.64,18.71,1.89,28.53-.42,1.09-.23,2.41-.43,3.61-.43,2.58,2.53,6.49-1.16,7.51-3.4,1-3.82-3.34-4.9-5.76s-3-3.76-5-5.11c-8.77-5.83-13-14.31-14.41-24.48-.33-2.4-1.16-4.74-1.54-7.14-1.43-8.88-4.68-15.37-14.56-18.53-9.34-3-16.46-10.33-22.15-18.57-13-18.76-11.32-38.36,5.54-53.77,4.38-4,5.24-7.05,3.58-12.38a252.29,252.29,0,0,1-6.14-24.88c-1.21-5.93,1.09-8.75,7-10.76,5.7-1.95,8.6,1.1,10.28,5.69,2.38,6.49,4.2,13.17,6.41,19.72,2.68,7.92,3.06,8.09,11.43,6.48,9.58-1.83,19.1-3,29-2.31,18.94,1.26,34.41,9.45,47.76,22.11,12.78,12.13,23.86,25.72,31.39,41.81,10.35,22.12,20.29,44.44,30.69,66.55,3.63,7.72,7.95,15.12,12.25,22.51,1.59,2.73,3.92,6.51,7.28,5.52,4.22-1.24,3.23-6,3.51-9.57.37-4.8-2.25-8.55-4.54-12.4-21.1-35.36-33.93-73.83-42.7-113.8-6.82-31.1-5.43-62.32-.68-93.51,4.35-28.6,11.8-56.52,19-84.48,1.44-5.59.33-6.75-5.08-7.52-14.49-2.07-28.89-4.78-43.28-7.47a35.23,35.23,0,0,1-25.12-17.68c-1.88-3.24-4.12-6.75-2.56-10.3,3-6.89-.91-10.31-5.38-14.28-15.74-14-23.48-31.39-19.28-52.43,3.72-18.62,13.06-34.49,29.62-44.5,6.77-4.08,10.37-8.35,10.17-16.15-.07-2.78,1-5.6,1.51-8.4,1.33-6.69,5.49-10.86,11.95-12.46,3.93-1,8.12-2,12.06-1.65,19.41,1.82,39.06.83,58.22,5.66,18.32,4.62,25.25,12.5,26.05,31.4a54.25,54.25,0,0,1-1.82,16.95c-2.91,10.58.71,20,5.17,29.3,1.5,3.13,3.67,4,6.94,3,5.07-1.46,10.13-3.31,15.32-3.93,7.23-.87,9.86,3,6.82,9.6A62.69,62.69,0,0,1,314,200.64c-4.73,4.39-6,9.05-5.48,15.18,3.47,37.13-1.1,74-4.37,110.84-.25,2.84-.54,5.69-.55,8.54,0,7.46.15,7.75,7.7,6.07,27.22-6,47.82,3.74,63.23,26.11,10,14.56,16.64,30.74,22.44,47.32,7.52,21.53,13.07,43.64,19.35,65.53,1,3.35,1,7.51,5.11,9.11,6.84,2.69,12-1,11-8.71-2.37-19-5.11-37.89-8.07-56.77-3.6-22.91-7.12-45.83-9-68.94-.55-6.76-2.56-10.92-9.68-11.42-8.54-.6-11.92-5.79-12.61-13.7-1.31-15-2.83-30-4.14-45-.32-3.74-.52-7.27-4.53-9.22-3-1.43-3.21-4.32-3.52-7.28-1.66-16.25-.62-18.08,15.86-20.28,6.35-.85,9.07-3,9.78-9.51a234.88,234.88,0,0,1,4.78-26.4c7.12-31.06,26.64-53.41,53.38-68.35,52.08-29.1,108.63-29.7,158.41,7.59,27.3,20.44,42,48,45.12,81.9.87,9.58,1.13,9.94,9.24,11.16,11.53,1.74,18,15.55,10,24.45-7,7.78-6.25,16.18-6.89,24.75-.79,10.53,0,21.12-2.08,31.65-1.39,7-3.72,12.44-11.18,14.29-4.65,1.15-6.08,4.18-6.62,8.86-4.89,42.43-12,84.56-18.68,126.73-.33,2-.52,4-.82,6-.77,5.31.43,8.49,6.86,8.53s13,1.18,19.44,1.91c15.13,1.69,24.13,9.88,27.68,24.92,1.6,6.8,1.75,13.71,2.17,20.62.06,1.14.45,2.51,2,2.52s1.8-1.3,2-2.45c2-12,4.78-23.94,5.44-36.19.3-5.38-1.58-8.88-5.93-12.31-30-23.63-22.51-63.42-4.39-81.22,7-6.93,8.55-12.75,4.24-21.21-2.57-5.05-4.15-10.61-6-16-1.61-4.8,0-7.93,5.26-8.75,4.42-.69,8.85-1.4,13.26-2.14,10-1.68,11.75-3.07,12.36-13.25,1-16.68,3-33.25,5.32-49.76,5.36-37.62,13.21-74.73,31.54-108.41,15.39-28.29,35.41-52.83,65.42-67.19,42.92-20.53,91.06-11.64,121.91,22.44,14.81,16.36,22.15,36,23.86,57.65,1.66,20.89,0,41.56-9.26,60.88-2.27,4.76-1.37,8.12,2,12a72.77,72.77,0,0,1,12.14,19.7,112.78,112.78,0,0,1,4.12,12.75,6.5,6.5,0,0,1-2.5,7.58c-2.39,1.62-4.67,0-6.73-1.25-4.48-2.84-8.86-5.81-13.37-8.59-1.32-.81-3.21-1.9-4.36-1.5-1.62.58-1.38,2.78-.8,4.28,3,7.64-1.09,12.64-6.59,16.68a248.93,248.93,0,0,1-41.83,25.16c-8.62,4-13.32,2.65-19.09-4.74a27.55,27.55,0,0,1-3.34-5.11C880,330,873.84,324.6,864.26,320.86c-18.74-7.33-31.63-32.84-27.55-52.5a24,24,0,0,0-2.32-17.27c-7.29-14.1-6-19.55,7-28.79a218.71,218.71,0,0,1,39.15-22.48c9.57-4.18,13.81-3.16,20.05,5.08,6.4,8.47,11.42,17.82,16.21,27.28a14.34,14.34,0,0,0,2,2.42c.25-.76.48-1.54.77-2.3,10.65-27.87-10-58.61-39.51-58.63-23.88,0-42.39,10.07-55,30.54-15,24.38-22.23,51.44-27.1,79.25-2.74,15.61-5.68,31.21-5.65,47.2,0,8.5-.9,8.79,8.72,6.79s19.14-3.86,28.73-5.71c13.15-2.53,14.81-1.57,17.8,10.94,3.4,14.23,7.3,28.39,9.65,42.81,1.51,9.28,4.89,14.81,14,18.82,15.77,7,29.08,17.93,40.25,31.24,16.18,19.28,25.42,41.56,28.19,66.47,5.7,51.15-12,92.61-52.22,124.52-5.09,4.05-1.56,4.53,1.67,5.75,9.9,3.72,20,7,29.6,11.38,31.76,14.44,57.3,35.59,71.86,68.26,9.16,20.54,10.47,41.69,4.71,63.25-8,30.05-29.67,44.26-58.59,50.07-21.18,4.26-41.24-.91-61.19-6.78-21.52-6.34-41.9-15.66-62.55-24.31-30.4-12.75-61.08-24.8-91.65-37.15a69.31,69.31,0,0,1-7.88-3.31c-3.14-1.76-6.92-3.43-7-7.76-.06-4.52,3.43-6.37,7.17-7,5.94-1,3.27-4.4,2.22-7.09-4.83-12.37-6.07-25-4.94-38.27.65-7.59,4.48-11.16,10.87-12.69a97.19,97.19,0,0,1,18.1-2.7c16.78-.77,33.32,1.49,49.58,5.5,8.44,2.09,15.68,5.67,13.8,16.54-.61,3.55,1.84,3.55,4.23,4.37,11.7,4,15.49,8.71,14.79,17.7s-8.11,16.48-18,19.15c-3.63,1-10.34-1.84-10.36,3.06,0,5.4,7.11,3.81,11.12,4.81a585.87,585.87,0,0,0,69.47,13.22c8.85,1.09,17.91.7,26.87.46,5.68-.16,7.22-2.6,5.17-8A61.33,61.33,0,0,0,895,736.45C867.7,705.58,834,684,796.15,668.56a37.61,37.61,0,0,0-14.36-2.46c-29.35,0-58.7-.24-88-.28-10.18,0-10.72,0-12.51,10.35-2.31,13.33-8,25.63-10.79,38.78-1,4.47-3.85,7-8.52,7.41-8.1.76-16.18,2-24.3,2.36-43.56,2.1-87.16,3.37-130.74,1.55-29.68-1.24-59.45-1.11-89.06-4.13-15.11-1.55-16-2.27-19.59-16.67-2.67-10.65-5.44-21.27-8.14-31.91-1.17-4.64-2.81-8-8.85-7.86-18.34.48-36.69.41-55,.6-1.53,0-3.57-.25-4.17,1.56s1.48,2.54,2.62,3.53c.92.81,2.17,1.35,2.83,2.31,4,5.83,8.31,7.23,13.67,1.62a11.85,11.85,0,0,1,4.13-2.55c4.43-1.75,7.21,0,7.42,4.72.22,5-1.81,9.54-3.82,14-3.51,7.77-3.5,7.82,5.36,7.93,6.93.09,13.87.25,20.79,0,5.26-.22,8.35,2.14,10.43,6.69,6.91,15.19,14,30.29,20.83,45.53,2.89,6.49,2,7.8-4.37,9.29a23.52,23.52,0,0,0-2.42.3C397.23,762,321.26,764.48,320.18,764.28ZM885.43,227.86a19.18,19.18,0,0,0-1.19-3.42c-5.67-9.82-7-10.18-17-4.77-3.21,1.73-6.46,3.39-9.54,5.32-7.2,4.55-7.85,7.19-3.78,14.92,1.13,2.15,2.55,4.13,3.8,6.21,11.36,19,9.22,20.26,31,6.85,7-4.34,7.64-6.81,4-13.82C891.42,236.68,887,228.94,885.43,227.86ZM268.85,741.73c7.38-5.21,12.74-12.41,18.65-19.06,1.8-2,3.89-4.24,2.48-7.58-2.09-4.89-8.78-8.88-14.28-8.35-3.63.35-7.27.77-10.91.91-3.16.12-5.47,1.32-6.79,4.21q-8.33,18.27-16.63,36.54c-1.71,3.75-.21,5,3.55,5.37C255.62,754.82,268.85,741.73,268.85,741.73Zm138-149.65c1.45,6.81,3.33,8.42,10.15,6.9,13-2.91,25.92-6.45,38.85-9.83,4.62-1.21,6.79-4.25,5.64-9.09-2.81-11.81-5.73-23.59-8.54-35.39-1.19-5-4.5-6.53-9.1-5.4-13,3.19-25.91,6.55-38.85,9.86-4.77,1.22-6.93,4.36-5.47,9.06C402,566.25,406.17,588.93,406.84,592.08ZM315.18,445.69c0-4.89-.51-9.85.13-14.65.73-5.42.58-12.9,7.53-13.68,6.19-.7,7.94,6.15,9.85,10.93,5.43,13.63,8.92,27.86,12.56,42,7.8,30.3,13.41,61.17,24,90.72,1.75,4.88,2.32,10.32,6.51,14.06a49.22,49.22,0,0,0-.49-15.74,34,34,0,0,1-.56-3.62c-.79-13.81-2.21-27.64,1.41-41.31,3.5-13.22,12-20.9,25.42-22.82,9.86-1.41,10.08-1.47,7.24-11.48-4.87-17.21-9.73-34.43-15.15-51.47-6.43-20.2-14.59-39.64-26.19-57.59-15.5-24-41.93-27.65-65.51-16.39-20.79,9.92-31.5,27.48-35.11,49.75-5.48,33.8-3,67.32,3.67,100.68,4.85,24.32,9.82,48.61,12.1,73.35.69,7.48,0,14.72-4.24,21.07-3.57,5.37-7.35,5.73-12.26,1.61a38.33,38.33,0,0,1-9.4-12.7c-9.17-18.61-18-37.39-27.11-56-10.94-22.35-23.08-43.9-39.52-62.87-20.14-23.22-45.62-28.4-74.23-22.63-8,1.61-8.09,1.62-5.81,9.61,2.39,8.41,5.49,14.84,15.25,16.31,3.83.58,7.25,3.38,11.25,4.48a39.52,39.52,0,0,1,24.33,19.16,184,184,0,0,1,10.67,21.92c11.72,28.62,23.18,57.34,37.31,84.9A121.47,121.47,0,0,0,236.09,639c10.78,9.62,23.62,14.15,37.51,16.28,6,.92,7.06-.74,4.31-6.5-1-2.16-2.79-4-4-6a51.06,51.06,0,0,1-4.53-8.62c-2.52-7.2,0-12,7.61-15.54,7.35-3.39,10.77-2.32,14.87,5.1,1.77,3.19,2.28,7.38,4.67,9.84,4.26,4.4,3.82,14.34,9.83,14,5.54-.28,10.45-7,14.34-12.4,3.62-5,6.6-10.43,8-16.37,2.47-10.71,4.49-21.63,3.13-32.67-3.32-27-7.31-54-10.36-81.06C319.21,485.28,315.22,465.68,315.18,445.69ZM537,489.27c28.92,0,57.84-.16,86.76.13,6.51.06,8.88-1.68,9.75-8.57,5.33-41.92,11.31-83.77,17-125.65,2.07-15.29,1.95-15.3-13.36-14.05-.81.07-1.62.2-2.43.3-20,2.53-39.79-1.46-59.71-1.15-2.36,0-4.73-1.14-7.1-1.68-6.27-1.43-9.5-5.38-10.94-11.63-2.05-8.87-1.67-17.79-1.8-26.74-.13-9.76-2.73-13.18-12-15.27a39.15,39.15,0,0,0-17,0c-7.59,1.65-9.74,4.57-10,12.8-.35,9.36-.44,18.73-1,28.07-.48,8.31-4.85,13.4-13.22,15.25a75.87,75.87,0,0,1-19.36,2.11c-17.54-.72-34.92,2.39-52.43,2.16-4.44-.06-6.78,1.18-6,6.42,1.94,12.45,3.47,25,5.09,37.46C433,418.64,437,448,440.53,477.49c1.41,11.62,1,11.75,13.37,11.77Q495.45,489.34,537,489.27Zm429.1-278.64c.75-4.92-1.07-13.36-3-21.65-7.74-33.47-26.59-57.83-60.49-67.06-41-11.16-76.52.31-105.59,30.76-18.77,19.67-31.85,43-41,68.69-8.41,23.49-13.29,47.76-16.7,72.34-2.47,17.71-4.83,35.48-5.41,53.39-.24,7.56.34,8,7.44,6.26,10.26-2.54,20.43-5.41,30.62-8.19,11.1-3,12-3.28,12.29-14.69.34-15.55,3.26-30.69,5.38-46,3.84-27.69,11.77-54,25.71-78.33,13.59-23.74,33-38.57,61.19-40.8,19.44-1.53,37.56,7,45.82,23.69,6.26,12.64,8.79,26.06,6.1,40.29-5.44,28.79-30.49,54.3-59.09,59.81-9.83,1.9-13.51.25-19.2-8.61-.88-1.37-1.57-2.88-2.57-4.15s-1.76-4.3-4.29-2.84c-.93.54-1.33,3-1.07,4.45,1.85,10.15,5.54,19.49,12.34,27.49,8.68,10.23,19.67,14.36,32.72,12.09,21.12-3.69,39.29-13,53.15-29.77C958,266.52,965.52,241.69,966.09,210.63Zm-865.54,587c0,2.44-.1,4.89,0,7.33,1.33,27,21.87,55.9,52.94,60.28,14.35,2,27.7-1.31,40.11-7.68,54.83-28.09,96.72-69.75,127.23-123.06a68.49,68.49,0,0,0,7.88-20.45c2.32-11.64,3.76-23.54-4.13-34-1.87-2.48-4.22-6.06-7.49-4.73-2.27.91.83,4.33.4,6.68-1,5.61-2.06,11.28-4.88,16.31A154.11,154.11,0,0,1,302.45,715,353.43,353.43,0,0,1,206.5,804.5c-8.58,5.41-17.63,10.14-28,11.72-9.68,1.49-18.05-2.4-22-11.12a26.37,26.37,0,0,1-1.72-17.88c2.91-11.3,8.71-21,15.86-30,13-16.46,29-29.7,45.7-42.14a561,561,0,0,1,65.91-42c2.19-1.2,5.83-1.52,4.5-5.84-1.14-3.7-3-4.86-7.06-4.67A62.94,62.94,0,0,1,237.57,649c-7.71-6-13.23-4.74-20.52.12-18.66,12.44-37.1,25.15-54.16,39.74-16.79,14.37-32,30.22-43.86,49C107.5,756.14,100.37,775.78,100.55,797.66ZM610.24,242.17v.34c13.85,0,27.71.07,41.55,0,7.72-.06,8.85-1.06,7.93-8.39-2.25-17.93-6.58-35.41-17.4-50.21-24.15-33-57.29-49.77-97.93-51.37-39.9-1.58-74.54,11-102,40.64-17.34,18.69-25.25,41.4-26.57,66.64-.28,5.27,1.11,6.9,6.93,6.3,25.17-2.6,50.46-1.58,75.71-1.6,13.49,0,13.9.52,15.68,14.08.4,3,.89,4.58,4.31,3.41,10.28-3.52,20.63-4.25,31.13-.83,3.55,1.15,4.91-.54,5.6-4.13,2.62-13.75,3.41-14.48,17.19-14.79C585,242,597.6,242.17,610.24,242.17ZM733.91,658.41v0c7.34,0,14.68-.09,22,0,22.11.32,43.93,1.66,63.64,13.66,11.53,7,24.36,11.13,37.22,15.15C877.46,693.71,897.33,702,915,715a48.91,48.91,0,0,1,13.28,14.18c9,14.92,4.35,30.29-11.39,37.65a53.26,53.26,0,0,1-20.06,4.65c-22.69,1.17-44.54-3.74-66.37-8.77-29.73-6.85-59.44-13.78-89.76-17.49-6.44-.79-13-.58-19.53-.66-1.91,0-4.86-.47-5.31,1.71-.63,3.08,2.82,3.27,4.79,4.27a51.35,51.35,0,0,0,5.69,2.18c19.15,6.91,38.24,13.94,57.06,21.72,29.71,12.28,59.33,24.76,89.67,35.48,20.74,7.33,41.93,10.44,63.63,7.18,24.32-3.64,42.8-15.9,50.66-40.2,9.3-28.75,4.24-55.56-13.8-79.67-23.77-31.76-57-49-94-60.14-4.62-1.4-8.58.1-12.79,2.19-32.15,16-66.22,18.89-101.19,13.68-24.32-3.63-47.57-10.84-69-23.21-5.45-3.14-7.08-2.34-8.2,3.5-1,5.19-1.53,10.46-2.33,15.68-1.29,8.4-.72,9.35,7.62,9.47C707,658.54,720.46,658.41,733.91,658.41Zm62.24-10.28c10.68-.78,24.07-1.72,37.15-4.93,60.53-14.88,101.68-64.13,99.63-130.28-1.42-46-25-79.81-65.78-101.32-1.37-.72-3.31-1.76-4.41-1.29-1.45.62-1.26,2.82-.91,4.42,3.21,14.73,4.1,29.78,6.08,44.68.55,4.16,1.73,7.67,4.86,10.78,28.7,28.59,18.39,69.14-2.82,89.74-22.92,22.26-51.25,26.93-81.44,24.29-28.9-2.52-55.21-12.93-79.77-28.18-11-6.86-12.9-6-13.35,6.77a448.07,448.07,0,0,1-4.61,49.79c-.69,4.65,1.36,6.62,4.86,8.53C726.13,637.77,758.56,647.37,796.15,648.13ZM734.38,513.49c.43,4,1,8.08,1.26,12.14.77,14.94.71,14.87,15.4,11.85,35.06-7.21,70.19-13.87,106.2-14,8.25,0,8-.3,7.63-8.31q-2.14-48.78-9.15-97.09c-3.59-24.95-7.51-49.82-14.8-74-2.36-7.87-2.38-7.72-10.86-6.26-42.11,7.22-82.2,23.08-124.6,29-4.5.63-5.08,2.45-3.3,6.51a440.4,440.4,0,0,1,20.71,59.88c.72,2.6,1.26,5.6,4,7.36,14,9.14,31.11,14.63,45.16-4a185.72,185.72,0,0,0,13.62-21.69c9.13-16.41,19.3-32.1,32.68-45.47,2.88-2.88,5.68-5.89,9.59-7.4,2.29-.88,4.68-1.62,6.93.2s1.89,4.21,1,6.61c-.71,1.91-1.25,3.88-2,5.75-6.2,14.71-9.68,30.07-12.12,45.83-2.37,15.23-5.34,30.42-11.41,44.78-11.75,27.78-39,44-68.36,40.62C734.33,504.88,734,505.19,734.38,513.49Zm-431-271.62-.95,0c0-6.52.46-13.08-.11-19.55-.77-8.63-2.22-9.14-9.31-4.5-6.13,4-12.05,8.37-18.43,11.92-4.61,2.56-6.94,5.73-8.47,10.93-9.75,33.19-18,66.74-25.7,100.44C232.3,376.7,229.3,412.62,235.05,449c5.9,37.31,18.35,72.46,35.14,106.16.51,1,.8,3.3,2.82,2.44.47-.2.39-2.31.16-3.46-1.88-9.58-3.74-19.16-5.83-28.69-7.84-35.9-13.43-72-10.91-108.95C258,393.4,264,371.7,283.18,357.1c9.48-7.21,14.07-14.93,13.25-26.39a27.22,27.22,0,0,1,.49-3.63Q300.16,284.48,303.38,241.87ZM745.13,497.46c31.48.22,53.52-16.06,61.86-43.52,3.67-12.09,5.41-24.54,7.41-37a185.72,185.72,0,0,1,12.45-42c.56-1.36,1.91-3.05-.05-4.12-.58-.31-2.2.78-3,1.56-2.38,2.21-4.7,4.5-6.86,6.93-10.65,12-18.2,25.94-25.65,39.95-4.41,8.28-9.07,16.41-15.11,23.59-14.44,17.18-42.67,17.33-57.24.54-2-2.25-2.52-4.75-3.07-7.65-1.44-7.54-3.48-15-5.64-22.36-1.21-4.15-3.78-5.14-6.94-1.46-16.2,18.86-21.46,50.4,1.9,69.86A69.27,69.27,0,0,0,745.13,497.46ZM385.5,650.68c-3.26-14.47-4.48-31.54-6.95-48.43a15.19,15.19,0,0,0-2.53-5.49c-9.33-14.55-14.73-30.73-19.73-47.1-7.26-23.75-11.1-48.3-16.88-72.39-3.32-13.84-6.72-27.66-10.57-41.35-.93-3.28-1.47-9.68-4.39-9-3.39.75-2,6.75-2.13,10.52s.14,7.32.27,11c.66,18.74,4.25,37.12,6.85,55.63,4.57,32.62,9.53,65.18,8.7,98.32-.48,19.2-8.16,34.5-22.35,46.92-1.53,1.33-3.26,2.44-4.87,3.68a5.93,5.93,0,0,0-1.76,7.68c1.33,2.88,4,1.74,6.41,1.25A167.31,167.31,0,0,1,349.52,659c9.78,0,19.55,0,29.33,0C382.83,658.9,386.4,658.33,385.5,650.68ZM218,235.27c46.27.7,76.61-21.82,103-51.89,1.27-1.45,3-4.23,2.4-5.26-1.37-2.48-4.39-1.47-6.49-.61-8.28,3.39-16.41,7.13-24.64,10.63-20.22,8.6-40.4,17.19-62.76,18.9C202.55,209.1,183,191.43,183,164.41c0-9.77,0-19.55,1.54-29.25.23-1.54.81-3.43-1.18-4-.87-.25-2.29.63-3.18,1.34a83.06,83.06,0,0,0-17.45,18.63c-14.55,21.83-13.4,57.43,18,74.7C193.57,232.93,207.24,235.74,218,235.27ZM801.35,577c8.12,1.28,16.95-1,25.63-2.77a71.27,71.27,0,0,0,42.69-26.42c15.21-19.41,17.07-47.1,4.21-64.9-1.11-1.53-2.09-3.79-4.4-3.17-.5.13-.63,3.06-.32,4.58,2.2,10.88,1.75,21.91,1.86,32.87.1,10.31-1.77,12-12.17,12.08-24.09.09-47.72,4.35-71.51,7.29-4.41.54-6.2,2.5-6.77,6.9-1,7.64-2.45,15.23-4.09,22.76-1.14,5.23-.64,8.37,5.74,9.21C788.27,576.25,794.24,577.5,801.35,577ZM541.81,495.1c-30.12,0-60.23-.21-90.34.08-16.25.16-32.48,1.2-48.73,1.78-4.15.15-8.2.58-11.32,3.63-2,1.93-4.9,4-3.71,7.07,1,2.71,4.18,1.71,6.5,1.6,17.05-.8,34.09-2.21,51.14-2.43,76.48-.95,153-1.69,229.39,2.34,3,.16,7.54,2.14,8.55-1.74s-3.42-5.86-6.54-7.7a17.54,17.54,0,0,0-8.11-2.35c-13-.72-25.95-2-38.94-2.17C600.41,494.87,571.11,495.1,541.81,495.1Zm-100-174.78c11.7.76,25.38-2,39.19-2,5.63,0,8-2.36,7.81-8.09-.34-8.93.08-17.89-.41-26.81-.58-10.85-1.65-11.74-12.36-11.42-14.19.42-28.39.52-42.57,1.85-21,2-21.07,1.64-19.54,23.28C415.61,320.83,415.61,320.83,441.82,320.32Zm140.66-28.18c0,5.68.09,11.36,0,17-.09,4.6,2.12,6.63,6.58,6.71,19.46.35,38.85,2.35,58.35,2,5.86-.1,7.92-2.66,8-8.05.12-9.33.62-18.66.57-28-.05-9.73-1.14-11.2-11.27-11.56-18.25-.64-36.53-.5-54.79-.83-4.91-.09-7.69,1.4-7.45,6.86C582.65,281.58,582.48,286.87,582.48,292.14ZM223.59,95.81c-6.42,0-11.72-.17-17,0-9.58.39-12.07,2.59-13.53,12.05-2.92,18.94-2.1,38.17-4.21,57.18a19.07,19.07,0,0,0,.24,6.08c.63,2.79,1,4.34,4.09.84,4.34-4.9,9.87-5.14,14.45-.72,2.07,2,1.14,1.73,2.88,0,4.17-4.19,9.75-2.92,13.06.49,3.54,3.64,2.32,9.31.3,13.8-2.21,4.94-6.91,3.67-10.69,2.54-3.56-1.06-6.94-2.13-10.67-1.37-1.5.3-4.1.11-4.35.81-.63,1.74,1.52,2.51,2.68,3.58,12.87,11.87,39.61,9.14,52.51,4.51,2.87-1,.91-2.22-.39-2.84-1.82-.86-4.51-.86-5.54-2.21-2.67-3.47-4.18-4.2-8-.75-3.18,2.9-8.72,1.6-11.14-1.48-3.08-3.92-2.13-9.53-.58-14.11s6.64-3.9,9.45-2.54c5.75,2.78,11.6,1.64,17.39,2.38,8.86,1.13,10.18,3,10.21,12.36,0,1.19-.54,2.87.84,3.22,2.05.53,2.48-1.32,2.78-2.88,3.38-17.13,6.68-34.28,10.14-51.4a109.75,109.75,0,0,0,2.58-23c-.05-6.18-2.74-10.22-9-11.07C255.62,99.06,239.28,95.25,223.59,95.81ZM717.33,705.94c1.38,6.41,2,14.5,4.6,22.26,2.22,6.67,6.69,10.17,13.48,10.21,13.45.09,26.63,2.09,39.72,4.93,6,1.29,10.18-.11,12.12-6.64,3-10.1,6.08-20.13,7.9-30.56,1-5.5-.77-4.89-4.87-4-22.63,4.75-45.1,4.06-67.17-3.25C717.35,697,717,700.2,717.33,705.94ZM589.75,653.28a34,34,0,0,1-.24,4.52c-1.1,7.44,1.62,12.33,8.84,15.12a117.52,117.52,0,0,1,15.31,7.55c5.83,3.28,11.59,3.17,17.56.73,3-1.23,6-3,9.1-3.47,11-1.82,14.16-9.33,14.55-19.09.07-1.62-.22-3.39.31-4.85,5.41-14.84-3.49-21.1-14.58-28.18-10.83-6.91-20-7.51-31.44-2.35C590.51,631.64,590.25,631.05,589.75,653.28Zm-229.66,52c-5.29,0-10.61-.26-15.88.07-6,.38-8.47,3.39-8.76,9.38-.17,3.46,1.6,6.27,2.54,9.35,1.55,5.14,2.54,10.33,1.7,15.66-.73,4.65-2.64,7.92-8.17,4.94-1.07-.58-2.19-1.07-3.27-1.64-3.72-2-5.28.86-6.63,3.3-1.93,3.47-5.33,6.37-4.85,10.81.05.54,2.05,1.24,3.13,1.22,4.41-.1,9.05.67,12.7-2.95a28.39,28.39,0,0,1,10.33-6.4c5.28-1.93,6.24-5,4.75-10.43-1.73-6.22-2.26-12.79-3.1-19.24-.31-2.36-1-6.32,1-6.72,2.81-.56,2.45,3.46,3,5.45,1.74,6.25,2.64,12.74,4.51,19,.87,2.91,0,8.62,5.73,7.17,4.48-1.12,2.71-5.4,2.08-8.32-.95-4.39-2.24-8.7-1.83-13.24.1-1.14.54-3,1.22-3.19,1.19-.36,1.82,1.11,2.19,2.26,1.37,4.27,3.26,8.44,4,12.81,1.18,7.22,3.34,12.58,11,16,6.28,2.78,11.61,7.08,19.14,6.38,4.67-.44,5.63-1.93,3.71-6-4.29-9.22-8.63-18.43-12.6-27.79C379.86,704.5,380,704.45,360.09,705.32Zm271.9-128c11.06.34,20.91-1.52,29.73-7.21,15-9.71,15.17-26,0-35.36-11.82-7.3-24.94-9.35-38.6-7-7.62,1.31-15,3.38-21.13,8.63-10.44,9-10.49,22.75.13,31.51A41,41,0,0,0,632,577.32ZM225.37,770.43c8,.19,15.62,1.57,21-5.34,1.21-1.54,4-2.72,3.1-4.78-.8-1.9-3.53-.85-5.41-.95-10.56-.56-11.2-1.46-8.09-11.52,4-12.89,10.12-24.77,16.78-36.47,3.57-6.25,8-9.34,15.44-9.67,11.58-.52,11.54-1.06,13.84-12.27.31-1.54,1.62-3.22.23-4.54s-2.94.21-4.17,1c-22.41,13.46-43.62,28.49-61,48.33C211.75,740.31,206.9,747,204,754.61c-3,7.95-.51,12,7.61,14.61C216.41,770.76,221.29,770.18,225.37,770.43ZM772.46,545.56c.69-5-1-6.31-6.16-5.25-8.31,1.72-16.64,3.53-25.22,3.79-10.51.33-11.62-.44-12.18-11.29-.16-3.24,0-6.5,0-9.74,0-5.28.14-10.57-.2-15.83-.4-6.1-5.9-6.32-9.93-7-5.28-.9-3.77,4-4.28,6.8-2,11.15-3.6,22.4-6,33.46-.93,4.3-.34,6.73,3.46,9A222.36,222.36,0,0,0,762,571.22c4.38,1.31,6.1-.33,6.79-4.12C770.08,559.93,771.24,552.74,772.46,545.56ZM547.73,719v.19c30.1,0,60.21-.05,90.32,0a123.56,123.56,0,0,0,20.6-2.15c2.67-.44,6.38-.15,5.73-4.42-.52-3.37-3.74-2.51-6-2.37-8.51.53-17,1.71-25.52,1.89-54.52,1.15-109,.77-163.58-.06-18.67-.28-37.33-1.91-56-2.94-2.78-.15-6.91-3.44-7.84,1.07-.79,3.83,3.88,4.46,7,5.31a24.5,24.5,0,0,0,4.8.84c12.57.9,25.14,2.34,37.72,2.48C485.88,719.27,516.81,719,547.73,719Zm-11.35-77.4c14.4-.15,26.07-10,28-23.75.8-5.57-.1-6.44-5.23-5.07-17.72,4.76-28.84-2.7-31-21.47-.57-4.92-1.79-5.39-5.74-3.38-10.92,5.55-17.33,18.85-14.6,30.56C511.33,633.34,521.74,641.78,536.38,641.63ZM162,792.15c0,13.86,7.79,19.47,20,15.5,2.69-.88,5.27-2.09,7.92-3.1,3.93-1.5,5.44-4.28,5.34-8.5-.19-8.53.3-17.09-.07-25.6-.54-12.43,3.63-23.11,11-32.79,1.71-2.26,3.6-4.39,5.37-6.62.5-.62,1.36-1.73,1.17-2-1.11-1.64-2-.09-2.74.53-16,13.26-31.63,26.88-42,45.29C164.66,780.53,162.35,786.6,162,792.15ZM74.41,488.32c.06,11.09,16.45,31.7,28.92,34.32,2.1.44,2.91-.47,2.36-2.58-.82-3.14-1.4-6.36-2.45-9.41-1.93-5.62-.9-13-6.48-16.44-4.91-3.07-6-6.64-4.12-11.09,3-7.24-.66-13.4-2.13-20-.74-3.3-1.71-4-4.56-1.5C78.47,468.23,75,476.55,74.41,488.32Zm850.37,257.3c.34-11.34-4.93-17.92-12.07-23.14A139.51,139.51,0,0,0,880.66,705c-4-1.57-7.59-4.8-12.4-4,1.93,4.14,6.11,6,9.23,8.86,13.46,12.45,27.16,24.67,34.88,41.88,1.1,2.44.91,6.29,4.77,6,3.07-.22,4.73-3.11,5.84-5.69A36.11,36.11,0,0,0,924.78,745.62ZM247.94,256.52c4.05.63,7.27-.12,8.41-4.78.48-2,1.56-3.77,2.1-5.72.62-2.28,2.08-5.35,1.17-6.8-1.54-2.41-4.41-.31-6.61.44-8.61,3-17.49,3.42-26.5,3.54-14.75.19-29.35-.07-43-6.6-1.43-.68-3.16-1.13-4.33.62a4.88,4.88,0,0,0,0,5.71c1.71,2.47,4.43,3.47,7.32,3.92ZM138.74,507.43a35.51,35.51,0,0,0-5.85-20.55c-6.26-9.57-21.29-12.81-30.36-6.82-1.68,1.12-3.64,2.38-3.64,4.55,0,2.69,2.74,2.63,4.48,3.16,12.77,3.87,20.75,12.16,24.18,25.09.83,3.11.39,8.49,4.58,8.24,3.44-.2,4.72-5.17,5.89-8.62A22.48,22.48,0,0,0,138.74,507.43Zm410.44,88.48c8.76-1.1,18.89-10.79,20-19.14.4-3,.37-5.75-3.92-5.83-9.68-.16-20.92,13-19.23,22.7C546.36,595.6,547.36,596.39,549.18,595.91ZM958.52,277.27a22.39,22.39,0,0,0-2.18,1.54c-6.7,6.16-6.37,10.45,1,15.24,4.76,3.11,9.37,6.45,14.07,9.66.92.63,2,1.56,3,.51a2.52,2.52,0,0,0,.29-2.21c-3.1-8.43-6.71-16.59-13.3-23A14.44,14.44,0,0,0,958.52,277.27ZM288.2,694.85c.06,4.39.92,7.83,2.32,10.08,3.29,5.26,6,5,9.84-.06,4.7-6.11,2.2-11.33-1.17-16.56-1.45-2.26-2.26-6.32-5.1-6-3.3.38-4.56,4.12-5.17,7.39C288.55,691.69,288.36,693.69,288.2,694.85ZM865.5,280.24c-.5-1.06-1.1-2.54-1.88-3.93-7.32-13.08-16.27-25.23-22.44-39a19,19,0,0,0-1.23-2c-1.19.76-1.13,2-.93,3.09a13.63,13.63,0,0,0,1,3.51c6.38,13.62,14.93,26,22.27,39.08a3.71,3.71,0,0,0,.87.85c.8.72,1.47.75,1.9,0A8.5,8.5,0,0,0,865.5,280.24ZM352.44,758.13c4.81-.37,12.07-.92,19.33-1.51,1.15-.1,2.46-.38,2.22-1.92a2.63,2.63,0,0,0-1.58-1.6,38.77,38.77,0,0,0-30.56,2c-.66.33-1.55,1-1.6,1.6-.16,1.87,1.48,1.3,2.43,1.34C345.11,758.2,347.55,758.13,352.44,758.13Zm-59-114.43c-2.39,1.74-6.27,3.16-7.13,5.62-.75,2.15,2,5.46,3.08,8.29,1.73,4.47,4,6.7,9,3.57,4.41-2.78,3.1-5.33.77-8.66C297.7,650.43,295.27,643.52,293.46,643.7ZM806,710.51c-.9.34-1.92.41-2.29.94-.82,1.19.25,1.94,1,2.86,6,7.9,5.77,10.73-1.21,15.09-1.64,1-5.92,0-4.22,3.59,1,2.16,4.47,1,6.71.2a12.89,12.89,0,0,0,8.7-14.27C813.83,713.91,810.85,711.11,806,710.51ZM286.68,629.84c-3.18,1.73-7.51,2.24-9.29,6.22-.95,2.11,3.1,7.26,5.2,6.65,3.74-1.09,7.94-2.29,8.05-7.32A5.25,5.25,0,0,0,286.68,629.84Zm51.81,65.38c.62-.41,1.43-.7,1.81-1.27,1.37-2,3-4,3.75-6.24.86-2.52,4.29-5.89,1.67-7.58-2.86-1.84-5.2,2.46-7.66,4.19-3.58,2.52-1.76,5.78-.74,8.82A12.26,12.26,0,0,0,338.49,695.22Zm-85-517.09c-3.8-.35-3.51,2.39-3.69,4.72-.27,3.43,1.17,5.13,4.79,5.25,4.18.14,6.1-2.27,6.06-5.76C260.58,177.55,256.21,178.9,253.47,178.13Zm-14.41,2.48a3,3,0,0,0-3.17-3.64c-3.07-.13-4.2,2.12-4.6,4.66s1.29,3.58,3.56,3.87C238.13,185.91,239.22,184.15,239.06,180.61ZM216.14,183c2.86,0,3.64-1.65,3.74-3.91s-.46-4.09-3.06-4.25-3.43,1.51-3.45,3.84C213.36,180.83,213.76,182.66,216.14,183Zm-15.51-9.92c-2.92-.31-3.43,2.12-3.93,4.44-.61,2.77,1.27,3.37,3.39,3.46s4,.07,4.44-2.61S203.68,173.85,200.63,173.05ZM899.34,336.46c-1.83-3-3.63-6.13-5.63-9.12-.8-1.21-1.67-3.54-3.28-2.68-2.08,1.13.08,2.86.71,4,1.73,3.14,3.81,6.1,5.85,9.06.36.52,1.21.69,1.83,1C899,338,899.15,337.3,899.34,336.46Z"/><path d="M304.29,852c8.75.49,9.64,2.25,7,10.68-4.64,14.69-9.75,29.23-14.19,44-1.95,6.48-5.42,9.29-12.25,9.09-11.77-.34-23.56.09-35.33-.16-12.26-.27-14.13-2.18-15.15-14-1.19-13.75-2.84-27.46-1.53-41.31.79-8.35,1.14-9,9.35-9.13,10.15-.19,20.3,0,30.46,0C272.63,851.38,293.76,851.41,304.29,852Z"/><path d="M834.8,915.61c-5.69,0-11.37,0-17.06,0-7.31-.05-12.26-3.19-14.53-10.49C798.52,890,793.45,875.05,788.8,860c-2-6.45-.95-8,6-8.14,21.52-.36,43.05-.26,64.57-.48,5.62-.06,8.18,2.47,8.35,7.95A315.24,315.24,0,0,1,866,905.47c-.71,6.11-4.32,9.55-10.5,9.72-6.89.19-13.8,0-20.7,0Z"/><path d="M715.52,220.25c-.5,4.38-3.15,6.28-7.46,5.71-7.5-1-21.08-19.37-19.93-26.9a2.26,2.26,0,0,1,2.51-2.05c2.4.22,23.91,18.49,24.48,20.74C715.32,218.53,715.38,219.34,715.52,220.25Z"/><path d="M726.56,144.88c.92.08,2.26.15,2.41,1.54.07.61-.64,1.49-1.23,1.93a12.78,12.78,0,0,1-3.18,1.69,399.69,399.69,0,0,1-45.37,13.09c-2.41.56-5.17,1.35-5.86-2-.46-2.27,1.91-3.43,3.69-4.14,12.45-5,25.62-7.24,38.61-10.19C719.17,146,722.78,145.54,726.56,144.88Z"/><path d="M666.91,60.51a15.94,15.94,0,0,1-2,2.8Q647,79.72,629.1,96a8.32,8.32,0,0,1-3,2,5.41,5.41,0,0,1-3.32-.25c-1.48-.62-1-2-.56-3.12a11,11,0,0,1,1.9-3.06c11.54-12.63,25.14-22.73,39.35-32.08,1-.63,2.09-1.38,3.19-.2C666.88,59.51,666.82,60,666.91,60.51Z"/><path d="M540.79,55.78c2.56-11.59,1-23,2.11-34.2.18-1.91-.12-4.58,2.31-4.93,2.85-.41,2.67,2.4,2.87,4.23,1.67,15.25.32,30.53.15,45.79,0,2-.64,4.29-3.23,4.19-1.8-.06-2.32-1.85-2.55-3.51C541.9,63.37,541.31,59.39,540.79,55.78Z"/><path d="M457.51,48.72a13.65,13.65,0,0,1,2,2.4c6.82,13,12.13,26.59,17.32,40.26.69,1.82,1.07,4.17-1.47,5a3.55,3.55,0,0,1-3-1.47,180.3,180.3,0,0,1-17.16-44.1C454.87,49.75,455.11,48.38,457.51,48.72Z"/><path d="M396.2,196.78a7.45,7.45,0,0,1-.25,2.33c-3.43,7.55-8.5,13.64-15.93,17.56-2.67,1.41-5.42,2.09-7.62-.68a5.69,5.69,0,0,1,.14-7.79c6-6.13,13.63-9.82,21.32-13.34C395.54,194.1,395.72,195.72,396.2,196.78Z"/><path d="M390.71,107.21a33.11,33.11,0,0,1,3.33,1.54c11.84,7,22.36,15.88,33,24.56,1.57,1.29,3.34,3.18,2.05,5.05-1.9,2.76-4.39.87-6.27-.48a282,282,0,0,1-31.89-26,6.88,6.88,0,0,1-1.63-3C389.18,108.49,390.15,107.82,390.71,107.21Z"/><path d="M885.33,239.05c-1.85,2.78-4.89,2.53-7.61,1.34a7.32,7.32,0,0,1-4.55-7.75c.23-3.15,2.83-5.64,5.18-5.7C879,227,884,226,886,230S886,238.05,885.33,239.05Z"/><path d="M537.75,356.54c-1.43-.2-3-.46-4.63-.65-2.73-.32-5.46-.6-8.18-.89.19,3.87,2.52,6.69,5.16,9,4.42,3.91,9.93,5.18,15.73,5.57,1.5.1,3.39.56,3.11,2.75-.24,1.91-2,2.43-3.55,2.61-15.27,1.76-25.59-7.35-28.85-23.23-.91-4.43,2.1-7.05,6.5-5.55,9.78,3.32,19.43,5.63,29.57,1.67,1.13-.44,2.76,0,3,1.2a3.88,3.88,0,0,1-1.47,3C549.32,355.63,543.57,355.89,537.75,356.54Z"/><path d="M584.45,182.8a9.64,9.64,0,0,1,2.83,1.57c6.11,6.59,11.85,13.46,15.2,22,.74,1.86,1.56,3.87-.06,5.72-1.91,2.19-4.45,1.82-6.79,1.25-3.81-.92-6.33-3.76-8.19-6.94-3.57-6.09-4.56-13-5.44-19.86C581.82,185.08,581.8,183.14,584.45,182.8Z"/><path d="M508.28,176.63c-1.32,6.78-2.14,13.74-6.66,19.38-2.77,3.44-6.33,5.48-10.6,2.9-4.7-2.83-3.42-7.26-1.21-10.68,3.29-5.1,7.43-9.64,11.18-14.43,1.22-1.55,2.37-4.06,4.44-3.35C507.9,171.3,508.36,174.07,508.28,176.63Z"/><path d="M758.93,517c-3.76,0-5.43.2-7-.07-1-.18-2.59-1-2.68-1.63a3.48,3.48,0,0,1,1.53-2.9,30.2,30.2,0,0,1,6.9-2.34c26.71-5.61,53.86-7.91,80.93-10.82a8.25,8.25,0,0,1,2.43,0,32.74,32.74,0,0,1,3.42,1,26.41,26.41,0,0,1-2.43,2.42,5.77,5.77,0,0,1-2.24.93C812.34,509.43,784.62,513.53,758.93,517Z"/><path d="M723.29,385.26c-2,0-4.65.76-5.36-1.5-1-3.16,2.05-3.85,4.26-4.53A433.64,433.64,0,0,1,780,365.73c1.54-.26,3.36-.65,3.9,1.35.35,1.32-.93,2.19-2.08,2.56C762.54,375.79,743.14,381.37,723.29,385.26Z"/><path d="M778.69,398.46a19.35,19.35,0,0,1,3.64-.11,2.22,2.22,0,0,1,1.6,1.33,2.36,2.36,0,0,1-1.07,1.84,23.22,23.22,0,0,1-4.44,2,367,367,0,0,1-45.92,11.71,14.56,14.56,0,0,1-4.75,0c-.67-.09-1.34-.85-1.81-1.46-1-1.33-.08-2.37.88-3a13.36,13.36,0,0,1,4.3-2.15c15.79-3.66,31.6-7.21,47.41-10.79C778.58,398,778.64,398.23,778.69,398.46Z"/><path d="M730.12,399.73c-3.34-.13-6,.61-6.56-1.75s1.88-3.28,3.8-4c13.78-4.94,28.25-6.9,42.52-9.68.91-.18,2,.78,3.06,1.21-.77.87-1.36,2.1-2.32,2.55C757.33,394.39,743.07,397.23,730.12,399.73Z"/><path d="M740.7,431.5a40.77,40.77,0,0,1-4.17,0c-1.46-.22-3.48.18-3.61-2.06-.12-1.91,1.56-2.85,3-3.38a83.74,83.74,0,0,1,9.32-2.76,43.07,43.07,0,0,1,8.41-1.33c4.09-.13,10.25-3.73,11.67.93,1,3.4-6.07,4.2-9.7,5.26C750.24,429.71,744.81,431.82,740.7,431.5Z"/><path d="M811.08,487.5c-2.42-.46-5,.44-5.29-2.38-.21-1.82,1.5-2.73,3.05-3.19,8.11-2.41,16.31-4.44,24.87-3.15a3.71,3.71,0,0,1,2.67,2c.33,1.31-1.21,1.63-2.3,1.86C826.23,484.29,818.37,486,811.08,487.5Z"/><path d="M469.79,296.06c-.46,3.16-.81,7.25-4.51,7.5-4.93.34-5.22-4.28-5.2-7.82,0-3.17.77-7,5-6.85S469.51,292.75,469.79,296.06Z"/><path d="M601.7,284.62c2.94-.08,3.84,2.42,4.32,4.7.86,4.06,1,8.51-3.79,10.1-2.75.91-4.08-2.08-4.78-4.43C596.23,290.83,598.47,285.27,601.7,284.62Z"/><path d="M252.6,142.13c-12.46-1.29-28.65-2.82-44.79-4.72-8.23-1-9.39-2.6-9.93-10.93,0-.82-.12-1.63-.11-2.44.52-27.5,4.81-24.2,24.25-22.11,12.52,1.34,25.1,2.19,37.63,3.48,13.39,1.37,16.07,5.08,13.73,18.42-.35,2-.94,4-1.31,6C269.6,142.78,269.61,142.78,252.6,142.13Zm-49.15-22.66c-.29,10.56-2.33,13,12,13.39,12.89.33,25.74,2.49,38.61,3.77,10.71,1.06,10.77,1,12.45-10.21.3-2,.93-3.94,1.23-5.94,1.21-7.92.47-8.81-7.94-9.56-14.1-1.25-28.24-2.12-42.29-3.8C203.64,105.47,203.68,105.12,203.45,119.47Z"/><path d="M371.18,717.93c-1.18-2.93,0-3.11.24-4.3.33-1.94,2.37-3.28,3.08-1.53,1.68,4.22,9,6.89,4.07,13.15a3.28,3.28,0,0,0-.68,2.12c.19,2.13,4.5,4.42,1.62,5.82-3.42,1.65-5.35-2.43-6.95-5.15C370.59,724.69,372.37,720.85,371.18,717.93Z"/><path d="M439.1,583.06c-3.62,0-6.7-.52-7.19-4-.4-2.86,2-3.85,4.61-4.51,4.15-1.05,3.34-2.56,0-3.89a43.59,43.59,0,0,1-4.4-2c-3.64-2-5-5.18-4.54-9.15.53-4.48,3.3-7.4,7.37-8.81,2.74-.94,5.87-.93,7.31,2.31,1.31,3-.77,4.24-3.25,5.29-3.54,1.49-3.28,3,.26,4.19,1.89.66,4,1.13,5.52,2.32,3.68,2.9,6.28,6.58,4.3,11.55C447.23,581,443.36,583,439.1,583.06Z"/><path d="M406.59,583.18a2.6,2.6,0,0,1,.06-2.41c1.33-2.39,2.91-4.13,6.45-1.82,5.83,3.8,4.86-.52,4.25-3.58-.78-3.92-2.24-7.71-3.29-11.59-.57-2.09-.2-4.16,1.85-5.19,2.92-1.45,4.35.66,5.57,2.86a44.63,44.63,0,0,1,5.31,18.41c.32,4.13-.7,8.2-4.88,10.25-3.65,1.8-7.16.56-10.12-1.79A42.47,42.47,0,0,1,407,584Z"/><path d="M265.38,712.93c1.57-.07,2.27,1,1.9,2.22a229.34,229.34,0,0,1-11.58,30.27c-.3.68-1.93.9-3,1a2.72,2.72,0,0,1-.88-2,87,87,0,0,1,12.57-30.94C264.6,713.22,265.05,713.11,265.38,712.93Z"/><path d="M268,741a2.69,2.69,0,0,1-3-3.09,12.12,12.12,0,0,1,1.13-4.71c3-5.69,2.35-13.47,9.44-16.87,1.29,6.44-3.23,11.43-4.36,17.27C271.25,733.6,269,741,268,741Z"/><path d="M867,242c-1,0-4.22.63-6.68-1.25-2.82-2.15-4.49-4.71-3.07-8.32,1.11-2.79,3-5,6.3-4.72,4.21.32,6.42,3,7.21,6.95C871.37,237.72,868,242,867,242Z"/><path d="M868.26,242.62c1.74-1.62,5.65-.23,8.11,1.66,2.86,2.2,4.14,4.89,2.68,8.41-1,2.39-2.81,4.14-5.38,4.29-3.76.22-5.67-2.48-7.19-5.48C864.69,247.93,866.52,244.23,868.26,242.62Z"/><path class="cls-1" d="M671.39,621.74c15.54.44,29,6.19,43.11,12.83,19.6,9.23,40.9,15.32,63.31,15.49,6.89.05,13.67,3.15,20.79,2.25,24-3,48.19-5.75,69.71-18.36,3.46-2,7.45-3.64,11-2.29,33.21,12.75,66.55,25.58,90.47,53.77,11.15,13.14,20.33,27.82,23.22,45.19,4,24,3.45,47.32-13.35,67.25-11.82,14-27,20.79-45.2,23.52-27.31,4.11-52.32-3.92-77-12.74-29.43-10.51-57.68-24.11-86.81-35.54-16.34-6.42-33-12.21-49.06-19.25-4.41-1.93-11.68-2.13-10.59-8.51,1-5.87,9.62-6.25,12.95-5.65,15.86,2.87,32.08,2.62,47.76,5.81,13.92,2.83,27.74,6.44,41.66,9.43,13,2.78,25.9,5.73,39,8,13.9,2.39,27.68,3.6,41.65,4.76,9.21.76,16.52-3.47,24.38-5.7,9.85-2.81,14-22.16,7.28-31.26A56.89,56.89,0,0,0,911.27,717a176.92,176.92,0,0,0-45.42-21.73c-1-.31-2.42.73-3.64,1.13"/><path class="cls-1" d="M845.08,265.79c-6.63,4.95-7.16,7.51-4.93,17.13,4.68,20.24,15.6,34.7,36.79,38.88,4.53.89,5.49,3.48,7.31,6.35,3.16,5,6.29,10,9.83,14.65,2.95,3.92,6.13,3.36,9.8.15a29.15,29.15,0,0,0,8.48-13.55"/><path class="cls-1" d="M940.49,307.38c5-6.51,1.84-15.51,6.26-21.92s9-12.33,12.29-19.58a124.8,124.8,0,0,0,10.63-63.68c-4.22-44.42-32.61-78.07-74.41-85.79-42.48-7.83-75.83,6.56-104.18,37.9-22.84,25.26-36.15,54.83-45.12,87-5.37,19.28-8.42,38.9-11.25,58.69-2.68,18.73-3.74,37.56-5.83,56.31"/><path class="cls-1" d="M228,638.86c-43.95,25-84.06,54.31-112,97.79-12.82,19.93-20.64,41.1-19.36,64.89,1.5,27.9,15.93,52.36,42.81,63.38,15.93,6.53,32.67,5.41,48.83-1,22.36-8.86,41.55-22.71,60-37.88,23.13-19.06,42.53-41.56,61.18-64.83,3.62-4.52,5-10.11,8.23-14.91,3.45-5.1,7-9.39,12.51-12"/><path class="cls-1" d="M662.83,258.45c3.51-23.21-.13-45.07-10.87-66.12-10.85-21.27-27-36.53-47.79-47.73-20.35-11-41.52-17.71-64.89-17.08-41.84,1.12-77.72,15.67-105,47.9C420.8,191.32,414.87,211,412,231.53c-1.31,9.38-1.07,18.75-1.16,28.14"/><path class="cls-1" d="M908.69,246.22c13.61,1.26,15-10.33,16.66-18.44,2.52-12.52-1.52-24.8-6.68-36.69-4.5-10.37-12.61-16.37-22.29-19.21-17.17-5-34.45-2.75-50,6-15.9,9-25.73,23.85-33.06,40.21-6.5,14.52-11.92,29.3-15.23,45.12-2.47,11.83-3.42,24-6.92,35.56-4.24,14.06-.75,28.7-3.61,42.83"/><path class="cls-1" d="M253.06,264c-.92,1.37-4.76,1.13-2.44,4.28,3.63,4.92,1.55,9.46.21,14.74-7,27.61-14.14,55.23-19.52,83.17-4.48,23.32-4.82,47.47-2.2,70.84,3.8,33.87,13.34,66.69,27.56,97.94,5.25,11.52,8.81,23.7,18.22,33.18,5.9,5.95,5.59,23.52,1.48,29.22-2.71,3.76-5.89,3.89-8.54,1.09-6.63-7-10.66-15.67-14.91-24.31-13-26.51-23.58-54.29-39.15-79.49-10.74-17.38-22.89-33.47-41.25-44.45-11.79-7.05-24.19-9.18-36.89-9.1-12.29.07-24.82,1.6-36.69,5.76"/><path class="cls-1" d="M403.51,702.47c-3.54,10.19.29,16.42,12.24,16.89,11.48.45,22.85,2.06,34.25,2.49,51.35,1.93,102.74,1.8,154.11,1.15,13.43-.16,26.91-.93,40.37-.91,6.66,0,12.69-4.08,19.59-2.6,2.07.44,3.62-1.35,3.61-3.57,0-4.6,1.05-9.45-2.41-13.45"/><path class="cls-1" d="M859.76,404c38.67,15.79,63.74,43.59,73.31,84.42,11.41,48.69-2.49,90.37-36.65,125.93-5.7,5.94-13.93,9.12-18.31,16.55"/><path class="cls-1" d="M387.61,586.27c-9.41.85-15-3.19-18.5-12.18-7.95-20.3-13.07-41.36-18.15-62.45-6.21-25.77-10.77-51.95-19.52-77.08-1-3-2.33-5.84-3.4-8.67-1-2.58-3.57-5.87-3.89-5.7-3.14,1.67-5.18,4.11-5.13,8.28.22,19.71-.33,39.34,4.66,58.8,1.88,7.33,1.1,15.41,2.52,23.2,3,16.6,5.48,33.43,7.1,50.16,1.71,17.72,3.9,35.91.36,53.74A54.57,54.57,0,0,1,314,647.14c-3.4,2.69-7.25,4.05-8.39,8.83-1.63,6.9-4.52,13.95-1.06,20.76,7.53,14.81,1.84,25.61-7,38.3-14.45,20.79-34.27,36-50.56,54.77a20.15,20.15,0,0,1-9.85,6.08c-9,2.79-17.94,5.69-26.91,8.54"/><path class="cls-1" d="M847.53,833.35c11,1.22,22.14,1.81,33,3.87,8.59,1.63,16.45-.06,24.5-2"/><path class="cls-1" d="M414.52,490.86c.61-7.46-3.07-13.93-5-20.78-6.37-23.14-12-46.52-21.92-68.53-7.39-16.35-14.35-32.83-28.1-45.31-8.81-8-19.23-11.54-30.65-12.08C296,342.58,272.12,368,265.32,391.79c-3.53,12.36-4.62,25-5.15,37.9-1.39,33.69,5,66.35,11.21,99.09,1.86,9.74,3.93,19.45,5.47,29.26.63,4-2.36,5.66-1.77,8.65"/><path class="cls-1" d="M386.39,519c-6.9-12.61-.12-23.52,14.67-24.52,71.32-4.84,142.72-1.16,214.06-2.47,18.43-.34,36.72,1.43,55,2.59,15,1,20.79,10.83,14.69,24.4"/><path class="cls-1" d="M671.39,658.43a62.56,62.56,0,0,0,22,3.75c20.38-.22,40.82.84,61.14-.3a127.28,127.28,0,0,1,74.69,18.48,98.69,98.69,0,0,0,18.23,8.82c12.62,4.42,18.94,16.92,29.31,24.44,5.08,3.67,8.93,9,13.59,13.28,10.65,9.81,18.56,21.26,22,35.51"/><path class="cls-1" d="M706.86,404c-20.08,14.41-23.23,35.06-20.57,57.46.5,4.26,3.43,8.48,6,12.21,10,14.72,24.27,23.88,41.55,26.73,20.89,3.45,40.76.69,57.52-14.37,12.56-11.3,18.29-26,21.86-41.69,3.67-16.21,6.63-32.59,9.87-48.9,1.63-8.21,5.62-15.53,8.42-23.3.6-1.67,1.4-4.94-1.15-5.87a5.48,5.48,0,0,0-6.08,1c-9.91,10-18.94,20.53-25.76,33-6.4,11.71-13.84,22.84-20.66,34.32C766.29,454,747.25,458.76,724,443.17c-2.26-1.51-3.13-3.14-4-6.05-3-10.78-6-21.55-10.12-32.12-4.51-11.56-7.76-23.74-12.71-35.29-1-2.4,1.12-3.69,3.45-5,3.24-1.85,6.71-1.29,10-2,25.51-5.69,51.07-10.65,76-19.26,12.21-4.22,25.84-5.87,39-7.71,5.2-.74,11.19-5.82,15.56-1.12,3.1,3.33,2.54,9.77,4.27,14.27,7,18.07,6.51,37.87,13.78,55.77-1.91,20.12,5.78,39.38,5.36,59.32a12.82,12.82,0,0,0,4,9.51c23.56,18.62,22.06,45.95,10.45,67.38-12.21,22.53-32.09,35.43-58.34,38.47-6.51.75-13,2-19.61,2.06-4.49.06-9.26,1-13.41-.16-16.74-4.81-34.38-6.53-50.2-14.5-9.77-4.92-20.61-8.47-29-15.1-6.92-5.44-13.61-5.62-21.12-5.7"/><path class="cls-1" d="M681.18,572.81c2.44-8,2.51-16.3,3.67-24.46,1-7.19-1.56-13.56-5-19.53-2.56-4.47-7.64-5-12.15-6.17-23.14-6.18-46.33-9.27-69.72-1.21"/><path class="cls-1" d="M284.86,657.21c-8.15,6.54-17.1,1.71-24.29-.54a76,76,0,0,1-35.87-23.73C211.26,617.05,203,598.72,194,580.32,181.62,555,173.94,527.73,160.31,503a67.94,67.94,0,0,0-12.59-16.85c-1.9-1.81-5.07-4.42-8.42-1.38"/><path class="cls-1" d="M657.94,330.62c-.47,16.5-3.86,32.64-6.11,48.93-2.49,17.93-4.35,36-7.53,53.79-2.54,14.26-2.86,28.85-7,42.89-1.21,4.13-.19,8.92-.19,13.4"/><path class="cls-1" d="M418.19,335.51c1,12.31,1.86,24.58,4.6,36.76,1.6,7.07,1.37,14.62,2.43,22,3.75,26.08,6.51,52.3,11.17,78.26,1.07,6-.3,12.3,1.37,18.33"/><path class="cls-1" d="M286.08,679.23c-6.56-2.47-11.27,2.76-15.68,5.27a285.46,285.46,0,0,0-35.54,24.27c-7.76,6.12-16,11.08-24.27,16.27a122,122,0,0,0-32.28,28.7C170.4,764,162.45,774,158.8,786.85c-3.22,11.27.94,20.69,11,25.87,5,2.57,8.28-.68,12.31-1.41,13.34-2.41,21.34-10.54,26-23.12,1.14-3.1.89-5.57-.41-7.33-4.9-6.67-10.24-13.26-8.3-22.1,2.19-9.91,7.53-18.4,14.59-25.67,2.74-2.82,6-5.19,4.86-9.83"/><path class="cls-1" d="M867.1,475c-2,12.63.83,25.26.32,37.93a42.56,42.56,0,0,0,.89,6.1c.86,5.7-1.6,7.6-7.33,7.44-25.15-.72-50,3.16-74.57,7.48-15.9,2.8-31.93,5-47.76,8.27-2.81.58-6.31.08-6-3.61,1.14-12.26-3.62-24.47-.13-36.7"/><path class="cls-1" d="M286.08,176.5c10,3.87,19.9,4.5,29.28-1.36,2.22-1.38,4.15-.73,6.2-1.08,2.5-.42,4.94,0,6,2.47,1,2.15-1.48,3.27-2.26,4.91-3.77,7.84-10.23,13.67-16.29,19.21-6.44,5.88-6.1,12.7-4.25,18.54,3.66,11.52,2.61,23.12,1.6,34.32-.88,9.8-2.59,19.62-1.73,29.38.71,8.12-3.28,15.25-2.91,23.28.34,7.29.65,14.58-1.71,22.16-1.78,5.74-2.54,13.35,1.95,19.41"/><path class="cls-1" d="M668.94,662.1c.17,5.63-2,10.7-3.67,15.9"/><path class="cls-1" d="M676.28,259.06c-3.59,1.52-6.17,4.49-11.25,1-5.27-3.68-12.55-4-19.33-4q-32.41.06-64.83,0c-1.37,0-2.8-.25-3.67,1.23"/><path class="cls-1" d="M568.64,285.36c0,9-.18,17.95.05,26.91.29,11.69,4.38,15.52,15.85,15.93s22.83.56,34.32,1.79c11.89,1.27,24.38-.53,36.63-.61,5,0,7.8-3,9.85-7.29a19.77,19.77,0,0,0,2.39-9.82c-.92-16.34,1.25-32.61,1.21-48.93"/><path class="cls-1" d="M395,264c2,.21,4.23,1,6.09.52,21.46-5.66,66.32-8.14,90.54-4.8"/><path class="cls-1" d="M502.59,285.36c0,10.19.08,20.39,0,30.58-.09,8.43-5.26,14.72-13.42,14.53-23.31-.53-46.4,3.9-69.73,2.66-11.18-.6-15.18-4.81-16-17.19-1-16.73-2.4-33.43-3.62-50.15"/><path class="cls-1" d="M535.62,575.26c2.63,5.13,1,10.59,1.2,15.9.52,12.94,8.19,18.1,19.51,12.08s22.61-5.12,34.33-3.52"/><path class="cls-1" d="M96.49,452.94c-23,6.39-33,32.56-19.45,52.51,6,8.82,14.32,15,24.13,20.08,6.45,3.32,10.81-.16,16.11-.42"/><path class="cls-1" d="M402.29,658.43c-12,3.44-24.27,4-36.7,3.76-13.46-.29-26.94-.5-40.37,1.09-3,.36-5.87.08-8.65,2.38-5.17,4.27-9.75,9.17-18.39,6.71-4.47-1.27-9.32,3.2-11,9.27-3.43,12.5-5.15,24.31,7.45,33.06"/><path class="cls-1" d="M845.08,500.64,749.67,514.1"/><path class="cls-1" d="M283.64,701.25c-4.08,1.22-8.51,4.12-12.17,3.35-11.25-2.34-15.69,5.09-19.47,12.63-5.15,10.27-9.23,21.08-13.58,31.74-2.31,5.65-1.39,6.87,4.85,7.31,4.19.3,8.71-1.12,12.23,2.46"/><path class="cls-1" d="M177.22,232.76c-5.35,13.34-3.19,12.89,11,22,6.67,4.27,14.89,4.33,22.11,5.55,12.88,2.19,25.87,4.8,39,5.48"/><path class="cls-1" d="M185.78,126.35c-21.88,11.86-35.11,28.89-35.72,55-.36,15.62,5.81,27.16,16,38,13.13,14,29.41,19.2,47.82,19.4,13.08.15,26.43,1.5,39.09-2.55,13.85-4.42,26.45-11.73,37.9-20.72a31.74,31.74,0,0,1,11.08-6"/><path class="cls-1" d="M805.94,720.82c-2.83-.46-7.68,3.08-7.33-3.67.25-4.91-.28-9.79,1.1-14.71,1.61-5.79-2.71-9.75-7.21-9.48-23.78,1.4-47.23-4.36-71-2.73-.81.06-1.63,0-2.45,0"/><path class="cls-1" d="M783.92,367.31q-25.06,6.12-50.14,12.25c-4.52,1.12-9,2.43-13.46,3.66"/><path class="cls-1" d="M89.15,410.13C86.28,421,92,430.86,94.79,440.49c2.07,7.28,2.56,15.39,6.56,22.25,3.16,5.43,0,10.05-2.43,14.66-4.18,8-4.07,7.86,3.64,14.73,6.34,5.63,11.7,12.42,13.32,20.78,2.57,13.26,7.34,25.87,10.33,39,2.78,12.22,8.61,23.73,13.09,35.56"/><path class="cls-1" d="M783.92,397.89c-2,6.75-8.3,3.32-12.33,4.56-13.59,4.15-27.62,6.89-41.5,10.07a22.07,22.07,0,0,1-4.88.05"/><path class="cls-1" d="M563.75,275.57c-3.7-.13-7.32.06-11-1.12-12.69-4-25.42-3.33-37.85,1.22a40.94,40.94,0,0,1-8.6,2.35"/><path class="cls-1" d="M730.1,145.92c-15.91,4-31.49,9.33-47.68,12.32-3,.56-5.73,2.35-8.58,3.58"/><path class="cls-1" d="M801.05,707.36c5.74-.9,10.38.92,14.78,4.78,3,2.67,2.29,5.66,2.31,8.68.05,10.43-7.12,17.13-18.31,17.06-2.05,0-4.08-.75-6.12-1.16"/><path class="cls-1" d="M545.4,16.26c-.79,12.63,2.22,25.26-1,38-1.22,4.9.55,10.54,1,15.84"/><path class="cls-1" d="M774.14,385.66l-51.38,12.23"/><path class="cls-1" d="M103.83,468.84c7.89,5,17.77,4.83,25.69,9.78,2,1.26,4.37,2.14,6.06,3.73,5.93,5.59,9,28.56,4.94,35.42-3.86,6.52-9.45,10.38-17.12,11"/><path class="cls-1" d="M711.76,495.75c-1.23,9-2.32,18-3.71,26.9-1.23,7.94-2.07,16-6.08,23.25"/><path class="cls-1" d="M845.08,229.09c1.89,15,12.06,25.9,19.85,37.74,5,7.66,12.81,7.72,20.51,2.61,5.37-3.57,10.94-6.93,15.83-11.08,7.46-6.31,8.73-14.33,3.65-23.09-3.3-5.69-6.56-11.4-9.84-17.09-5.89-10.22-15.45-13-25.46-7.31C859.28,216.71,850,224.32,839,229.25c-4.4,2-6.14,9.8-3.67,14.48,6.72,12.75,13.41,25.55,20.87,37.87,4.37,7.25,9.37,6.55,17-1.13"/><path class="cls-1" d="M456.11,48.06,475.68,97"/><path class="cls-1" d="M380.27,757.51A116.19,116.19,0,0,1,333.79,760"/><path class="cls-1" d="M666.5,57.85c-13.39,14.13-29.21,25.45-44,37.92"/><path class="cls-1" d="M303.21,653.54c-4.58-8.51-7.71-17.75-13.38-25.74-2.31-3.26-3.83-6.44-8.67-3.67-6.53,3.74-9.27,8.38-7.3,13.51A23.77,23.77,0,0,0,280,646.2"/><path class="cls-1" d="M716.65,693.91c-1.34,2.8-4.54,4.82-3.67,8.56,2.8,11.95,2.71,24.7,9.78,35.47"/><path class="cls-1" d="M390.06,106.77a180.93,180.93,0,0,0,39.14,30.58"/><path class="cls-1" d="M958.84,271.91c10.77,8,15.7,19.52,19.74,31.74.66,2,1.59,3.24-.15,5s-3,1.44-5,.06c-3.88-2.72-8.7-4.34-12-7.56-5.4-5.22-10.44-4.5-16-1.08"/><path class="cls-1" d="M556.41,349c-9.46,4.68-19.37,5.84-29.28,2.23-2.94-1.07-6-1.55-7.12.39s.9,4.8,2.09,7.19c5.64,11.35,15.3,14.34,27,13.43"/><path class="cls-1" d="M210.25,147.14C199.2,143,198.32,143.5,197.88,152c-.19,3.59,1,6.33,3.86,7.14,3.13.88,7,.9,8.51-3.47"/><path class="cls-1" d="M776.58,538.56a78.38,78.38,0,0,1-4.77,28.18c-.79,2.15-.12,4.85-.12,7.29"/><path class="cls-1" d="M766.8,422.36l-34.25,7.34"/><path class="cls-1" d="M837.74,481.07c-8.07-2.29-15.59,1.06-23.2,2.63a55,55,0,0,1-8.6,1"/><path class="cls-1" d="M689.74,198.51c5,7.55,10.6,14.42,18.17,19.82,2.67,1.91,4.89,1.93,7.52,2.2"/><path class="cls-1" d="M911.14,327c-5.09-2.59-11.21-2.48-15.91-6.11s-7.39,1.39-11,2.44"/><path class="cls-1" d="M395,194.84c-2.84,6.95-8.92,10.87-14.83,14.43-2.42,1.45-2.94,3.68-4.74,5.15"/><path class="cls-1" d="M262.84,235.21c.1,9.54-2.08,18.33-8.56,25.69"/><path class="cls-1" d="M505,170.38c-.4,3.37.65,6.62-2.26,10-3.65,4.2-5.9,9.62-8.75,14.51"/><path class="cls-1" d="M332.57,684.12c3.67-2.45,7.46-4.73,10.95-7.4,1.92-1.47,3.14-1.57,5,0a4.12,4.12,0,0,1,1.05,4.91C347,687.85,344,693.91,341.13,700"/><path class="cls-1" d="M275.08,715.92q-4.29,11.63-8.57,23.24"/><path class="cls-1" d="M293.42,638.86c-2.64,5.26-11.61,4.83-11.83,11-.16,4.73,5.88,8.12,7.07,13.41.41,1.81,2.32,3.29,3.54,4.92"/><path class="cls-1" d="M417,561.8c2.65,5.42,5.23,10.67,5.15,17.13,0,3.19-.29,6-2.79,7.15-3,1.37-5.43-1-7.26-3.48"/><path class="cls-1" d="M244.5,159.37c.11-4.86.81-10-6.11-11-1.07-.16-4.16.86-6.13,2.48"/><path class="cls-1" d="M313,760c4.58,2.64,10.08-.19,14.67,2.45"/><path class="cls-1" d="M797.38,724.49c-5.53,6.79-5.61,15.88-9.79,23.24"/><path class="cls-1" d="M205.35,103.1c-4.54.51-3.81,4.74-4.7,7.41s-.19,5.64-.19,8.5c0,15.19.27,13.68,14.59,16.37,11.91,2.23,24,0,35.51,3.38,4.21,1.24,8.24.37,12.28,1.08s5.81-2.24,5.93-4.94c.25-5.46,1.64-10.62,2.55-15.91,1.11-6.45-1.85-10.66-8.48-10.86-18.87-.58-37.48-3.74-56.26-5"/><path d="M609.16,663.07a10.9,10.9,0,0,1-10.43-11.3l0-.46a10.87,10.87,0,0,1,11.31-10.42l1.05,0a1.88,1.88,0,0,1,1.2,3.26,1.77,1.77,0,0,1-1.35.49l-1.06,0a7.12,7.12,0,0,0-7.39,6.83l0,.45a7.12,7.12,0,0,0,6.82,7.4l1.05,0a1.84,1.84,0,0,1,1.32.6,1.77,1.77,0,0,1,.49,1.34,1.86,1.86,0,0,1-2,1.81Z"/><path d="M630,654.32a2.11,2.11,0,0,1-.66,1.49,2,2,0,0,1-1.55.54l-3.86-.16-.15,3.86a2.08,2.08,0,0,1-.65,1.49,2.27,2.27,0,0,1-3.06-.13,2,2,0,0,1-.53-1.53l.15-3.86-3.85-.15a2.05,2.05,0,0,1-2-2.21,2,2,0,0,1,2.21-2l3.86.15.15-3.85a2,2,0,0,1,.66-1.51,2.11,2.11,0,0,1,3.58,1.68l-.15,3.85,3.85.16a2.05,2.05,0,0,1,1.51.64A2.1,2.1,0,0,1,630,654.32Z"/><path d="M647.51,655a2.11,2.11,0,0,1-.66,1.5,2.09,2.09,0,0,1-1.55.54l-3.86-.16-.15,3.86a2.17,2.17,0,0,1-3.71,1.36,2,2,0,0,1-.53-1.53l.16-3.86-3.86-.16a2.05,2.05,0,0,1-1.5-.66,2.1,2.1,0,0,1-.54-1.54,2,2,0,0,1,2.21-2l3.86.16.15-3.86a2.1,2.1,0,0,1,.66-1.51,2.12,2.12,0,0,1,3.58,1.69l-.15,3.85,3.85.16a2.05,2.05,0,0,1,1.51.64A2.09,2.09,0,0,1,647.51,655Z"/><path d="M616.15,559.75a7.8,7.8,0,0,1-3.78-1.31l-.49,6.28a2,2,0,0,1-.72,1.41,2,2,0,0,1-1.5.48,2.05,2.05,0,0,1-1.9-2.21L609,548.6a8,8,0,0,1,8.6-7.35h.06a8,8,0,0,1,7.34,8.59l-.2,2.54a8,8,0,0,1-8.59,7.36Zm4.74-10.22a3.85,3.85,0,0,0-3.56-4.16h-.05a3.74,3.74,0,0,0-2.81.91,3.81,3.81,0,0,0-1.36,2.65l-.19,2.54a3.68,3.68,0,0,0,.92,2.82,3.72,3.72,0,0,0,2.63,1.34h.06a3.79,3.79,0,0,0,2.82-.92,3.7,3.7,0,0,0,1.34-2.64Z"/><path d="M636.11,543.21a7.54,7.54,0,0,1,5.4,2.77,7.62,7.62,0,0,1,1.89,5.76l-.66,8.42a1.93,1.93,0,0,1-.71,1.38,2,2,0,0,1-2.89-.22,2,2,0,0,1-.49-1.48l.66-8.42a3.85,3.85,0,0,0-3.52-4.12h-.06a3.62,3.62,0,0,0-2.78.91,3.67,3.67,0,0,0-1.33,2.61l-.66,8.41a2.07,2.07,0,0,1-2.22,1.88,2,2,0,0,1-1.39-.72,1.92,1.92,0,0,1-.48-1.48l1.68-21.54a2,2,0,0,1,.72-1.41,1.93,1.93,0,0,1,1.48-.48,2.05,2.05,0,0,1,1.9,2.21l-.49,6.21a7.7,7.7,0,0,1,3.9-.69Z"/><path d="M654.07,562.72a7.7,7.7,0,0,1-3.78-1.31l-.49,6.28a2,2,0,0,1-.71,1.41,2,2,0,0,1-1.51.49,2.07,2.07,0,0,1-1.89-2.22l1.24-15.8a8,8,0,0,1,8.59-7.34h.06a8,8,0,0,1,7.34,8.6l-.2,2.54a8,8,0,0,1-8.59,7.36Zm4.74-10.22a3.74,3.74,0,0,0-.91-2.82,3.78,3.78,0,0,0-2.64-1.34h-.06a3.68,3.68,0,0,0-2.8.91,3.73,3.73,0,0,0-1.36,2.64l-.2,2.54a3.74,3.74,0,0,0,.93,2.83,3.69,3.69,0,0,0,2.63,1.33h.05a3.8,3.8,0,0,0,2.83-.91,3.73,3.73,0,0,0,1.33-2.65Z"/><path d="M265.25,150.7c-4.93-1.66-10.2-3.74-15.05-.32-1.51,1.06-1.69,4-2.48,6.08-.36-2.39-.23-5-1.2-7.12-1.39-3.06-4.8-2.84-7.54-2.83-11,0-21.69-2.5-32.55-3.55-8.18-.79-11.23,1.95-11.32,10.16-.07,6.42,5.16,10.24,12.73,7.94,3-.9,4.19-.28,6.65.63,4.93,1.83,10.93,5.25,14.29-2.72,2.51,7.06,8.51,7.2,14,5.76,3.4-.89,5.49-1.94,8.3,1.12,2,2.12,5.39,1.17,8.21,1.44,5.59.54,8.27-2.6,9.44-7.43C269.62,156.14,269.79,152.23,265.25,150.7Zm-61.18,5.39c-2.34,0-3.49-1.34-3.16-4.69.15-.92,0-3.11,2.68-3.4,3.21-.34,4,1.7,3.91,4.34C207.46,154.55,206.46,156.11,204.07,156.09ZM224,155a4,4,0,0,1-8,0v-1a4,4,0,0,1,8,0Zm15.51,5c-3.09-.39-4.52-2-4.31-4.81.14-1.83-.35-4.38,2.6-4.28,2.78.1,4.2,2,4.09,4.74C241.82,157.5,242.07,159.74,239.51,160Zm24.22-2.51c-.23,2.45.8,6.19-3.94,5.16-2.79-.61-7.07.52-6.92-4.34.11-3.52,2-5.94,6-5.67C262.52,152.25,264.06,154.06,263.73,157.48Z"/></g></svg>