<svg xmlns="http://www.w3.org/2000/svg" viewBox="0 0 1080 1080"><defs><style>.cls-1{fill:#0a0214;}</style></defs><title>illustrations</title><g id="Capa_2" data-name="Capa 2"><path class="cls-1" d="M789.2,439.4c1.18-.14,2.58-.75,3.49-.32,5.84,2.69,11.58,5.59,17.33,8.47,5.19,2.6,6.25,7.65,7.21,12.64,1.53,7.92,1.48,7.79,9.49,9.31,4.71.89,9.36,2.18,14,3.53a9.48,9.48,0,0,1,6.84,7.48,46.38,46.38,0,0,1,1.42,7.76c.06,1.38-.64,3.44-1.68,4.1-2,1.23-2.38,2.67-2.58,4.78-1.62,17.62-3.37,35.23-5.07,52.85a1.74,1.74,0,0,0,.19.64c5.93.35,11.85.76,17.78,1,1.12,0,2.88-.31,3.31-1.07,3.57-6.26,9.68-7.77,16-8.8,4.75-.77,9.57-1.25,14.37-1.61,2.36-.17,3.57-.88,3.6-3.43.09-6.25,3.31-10.7,8.1-14.49a17.85,17.85,0,0,0,4.87-6.5C917,495.54,926,475.28,935,455c5.1-11.43,10.21-22.86,15.17-34.35.53-1.23.12-2.91,0-4.37-.2-2.36-.43-4.72-.85-7.05-.28-1.54-.48-3.46-1.47-4.47q-27.95-28.44-56.14-56.62a26,26,0,0,0-7.23-5.08c-2.84-1.33-4.22-.08-4.32,3.1-.14,4.43-2.39,7.49-6.67,8.51-1.16.28-2.61-.29-3.84-.71a36.89,36.89,0,0,1-3.88-1.82l-.83.57c.71,2.66,1.25,5.39,2.17,8,1.07,3,.28,5.28-2.46,6.63-4.72,2.32-7,6-8.72,11-4.39,12.46-19.45,20.43-33.36,18.11-3.29-.55-6.33-2.45-9.55-3.53a7.11,7.11,0,0,0-3.69-.13c-3.23.78-6.35,2.21-9.61,2.55-1.46.16-3.64-1.29-4.61-2.64-8.82-12.16-8.86-26.17-.35-38.56,8.76-12.78,21.18-19.28,36.37-20,8.65-.39,16.66,2.77,23.79,7.86,1.63,1.15,3.37,2.14,5.84,3.69.15-4.87.7-8.28,4.52-11.08,4.4-3.22,7.42-.64,11.29,1.29.37-2.36.62-4,.91-5.7,1-5.82,5.9-11,10.9-11.51,6.65-.7,11.71,2.57,14.52,8.68a34.85,34.85,0,0,0,6,9.47q26,27.38,52.49,54.36a43.13,43.13,0,0,0,9.22,7c8,4.67,10.73,12,6.21,20.14-15,27.15-25.71,56.33-39,84.29-3.55,7.46-7,15-10.13,22.61-.9,2.23-.38,5-.46,7.59-.07,2.35.13,4.74-.15,7.07-.25,2.11.28,3.17,2.44,3.66,6.94,1.58,12.3,4.77,12.15,13.15,7.82.54,15.37,1,22.92,1.59,1.93.14,3.85.57,5.78.74,2.3.2,3.85,1.42,3.79,3.66-.18,6.17-.43,12.36-1.16,18.48-.15,1.24-2.39,2.82-3.93,3.22-7.22,1.87-14.54,3.33-21.79,5-6.15,1.44-12.25,3.06-18.39,4.49-2.26.52-3,1.55-2.56,3.88s.51,5,.8,7.54-.7,4-3.08,4.63c-10.15,2.82-20.26,5.78-30.46,8.44q-45.42,11.84-90.88,23.49c-.53.14-1,.37-1.74.62,1.4,11,2.69,22,4.19,32.86q3.92,28.51,8,57,5.77,40.1,11.67,80.17c2.32,15.92,4.69,31.83,6.89,47.77.36,2.59,1.21,3.77,3.94,4.11,22.69,2.86,45.36,5.87,68,8.82q20.68,2.69,41.37,5.33c1.57.2,3.16.22,5.59.38-1.55-5.77-2.9-11-4.48-16.25-.19-.62-1.61-1.11-2.53-1.24-13-1.85-25.94-3.62-38.91-5.41q-26.28-3.63-52.58-7.27c-3.41-.47-6.83-.94-10.26-1.26-2.31-.22-3.43-1.31-3.79-3.62-2.48-16.24-5.51-32.41-7.34-48.72-.72-6.44.79-13.24,2-19.75,4.94-27.24,10.15-54.43,15.23-81.64q5.12-27.44,10.1-54.88c.51-2.82,1.51-4.32,4.66-4.89,6-1.07,11.82-2.81,17.72-4.26.86-.21,1.75-.32,3.27-.58-11.94,65-23.8,129.55-35.79,194.8l92.73,11.68L893.53,626.35l23.13-5.74c1.44,5.78,2.88,11.4,4.25,17Q936.08,700,951.23,762.42q11.6,47.87,23.08,95.74c1.77,7.35,3.58,14.7,5.25,22.07a3.53,3.53,0,0,0,3.45,3.12q25,3.2,49.91,6.51c6.95.91,13.89,1.83,20.82,2.84a9.1,9.1,0,0,1,2.5,1.2c0,.38-.11.77-.16,1.15a21.93,21.93,0,0,1-4,.28c-10.27-1.18-20.53-2.45-30.8-3.69l-39.87-4.8c1.16,5.29,2.2,10.3,3.37,15.27,1.66,7,3.47,14,5.11,21.1,1.08,4.65.63,5.4-3.79,7.17-7.89,3.16-15.29,1.18-22.62-2.06-1-.44-2.76-.58-3.43,0-14.22,12.18-28.33,24.49-42.47,36.77q-37.62,32.65-75.26,65.29c-2.08,1.8-4.47,3.23-6.55,5a45.21,45.21,0,0,0-5.53,5.54c-6,7.39-11.89,14.89-17.88,22.3a4.11,4.11,0,0,1-2.81,1.25c5.19-10.06,12-19,19-29a81.59,81.59,0,0,0-9.61-1.9c-.88-.08-2.12,1.49-2.85,2.54-6.53,9.53-13.65,18.51-22.86,25.64-1.06.82-2.24,1.49-3.37,2.22l-.9-.53a11.92,11.92,0,0,1,1.29-3.22c3.3-4.13,6.71-8.17,10.12-12.21q6.2-7.35,12.44-14.68c-6.71-4.94-14.06-4.08-19.36,1.57-6.59,7-13.41,13.87-20.28,20.63a9.45,9.45,0,0,1-5.32,2.1c6.67-11.08,17.34-18.52,24.69-28.89-7.53-2.82-10-2.17-14.52,3.78-5.48,7.23-10.89,14.53-16.4,21.74a6.08,6.08,0,0,1-3.41,2c1.14-5.94,4.85-10.45,8-15.2s6.66-9.26,10-13.89c-5.68-3.54-11-2.56-15.35,1.65-8.4,8.17-17.12,16-25.78,23.9a7.24,7.24,0,0,1-4.15,1.57c8.5-11.39,19.79-20.16,29.19-31.59-4.58-.75-8.38-1.61-12.22-1.87a6.82,6.82,0,0,0-4.42,1.93c-8.3,7.6-16.46,15.35-24.68,23a14,14,0,0,1-2.26,1.52c-.14.08-.43-.08-1.44-.3a30.9,30.9,0,0,1,3-4.42c6.32-6.53,12.75-12.94,19.09-19.44a38.87,38.87,0,0,0,2.82-3.78c-5.9-1.09-11.3-1.54-16.34-3.16-6.47-2.08-10.32.19-14.4,5.16-5.68,6.91-12.31,13-18.63,19.42a12.78,12.78,0,0,1-5.16,3.08c5.54-11.9,16.05-19.69,24.38-30.23l-28.6-4.64c-5.84,11.31-19.53,26.48-24.3,26.44,5.48-9.92,13-17.94,20.1-27.25-4.08-.78-7.82-1.07-11.26-2.25-6.23-2.15-9.51.28-13,5.5-5.45,8.05-12.13,15.28-18.32,22.84a17.19,17.19,0,0,1-1.94,1.77l-1.07-.36c.28-1.2.24-2.63.9-3.58,5.42-7.83,11-15.57,16.49-23.34,1-1.47,2-3,3.53-5.16-5.94-1-11.19-1.91-16.48-2.57-.81-.1-2,.93-2.64,1.75-6.52,9.18-12.91,18.45-19.49,27.58-.67.93-2.44,1.07-3.93,1.16,3.95-12.2,11.7-21.72,19.53-31.9-3.91-.83-7.31-1.77-10.76-2.14-1-.11-2.3,1.28-3.09,2.28-7.9,10.09-16.39,19.58-27,26.92a7.55,7.55,0,0,1-3.93,1.33,9,9,0,0,1,1.08-2.7c2.49-2.86,5.1-5.62,7.7-8.37q9.07-9.63,18.19-19.23l-.26-1.4c-3.92-.74-7.82-1.58-11.77-2.1-.61-.08-1.47,1.25-2.13,2-6.28,7-12.53,14.05-18.83,21.05-.31.34-1,.37-2.46.87,3.28-10.75,11.47-17,18.43-25-5.49-.92-10.06-1.81-14.67-2.36-.74-.08-2.13,1.2-2.43,2.1-3.78,11.49-10.09,21.6-16.88,31.46a28.89,28.89,0,0,1-2.62,2.93l-1.19-.42c.25-1.49.15-3.16.82-4.44,4.8-9.28,9.76-18.47,14.65-27.7.74-1.41,1.36-2.89,2.4-5.1-5.08-.82-9.74-1.66-14.43-2.24-.69-.08-1.63,1-2.3,1.7-9.82,10.31-19.59,20.68-29.46,30.95-.78.81-2.23,1-3.73.91,8-13.21,20-22.82,30.13-34.69-7.65-1.38-14.62-2.56-21.56-3.94-2.27-.46-2.83,1-3.93,2.36-5.88,7.47-11.9,14.83-17.94,22.18a4,4,0,0,1-2.7,1.08c4.42-10.06,11.95-17.8,19-26.51-6.31-1.23-12.19-2.48-18.11-3.41-.78-.12-2.15,1.21-2.67,2.18-5.47,10.19-13.5,18.25-21.79,26.08-.72.68-2.15.62-3.25.91a11.12,11.12,0,0,1,1.13-3.26c6.09-7.93,12.29-15.77,18.43-23.66,1.19-1.54,2.12-3.15-.95-4.93-.89,6.43-5.72,7.5-10.85,8.35-6.15,1-9-2.62-11-7.79-7.95,10.67-16.14,20.67-26.32,28.77l-1.15-.73c.42-1.16.57-2.52,1.3-3.43,6.46-8.06,13-16,19.57-24.06,1.05-1.29,2-2.64,3.44-4.5-5-.94-9.52-1.32-13.69-2.68-7.72-2.52-13.12-.11-18.23,5.92-4.88,5.76-10.71,10.75-16.38,15.78-1.35,1.21-3.72,1.27-5.63,1.85.77-1.78,1.1-4,2.36-5.28,6.82-7,13.86-13.72,21.21-20.93l-11.05-2a69.35,69.35,0,0,1-8.45-1.66c-3.67-1.19-5.92.1-8.3,2.88-5.9,6.88-12,13.58-18.32,20.1-1.73,1.79-4.37,2.71-7,3.47,2.18-5.94,6.86-9.69,10.66-14.11s7.83-8.9,12.33-14c-3.79-.77-6.64-1.42-9.52-1.91-5.21-.89-10.41-1.84-15.66-2.39a5,5,0,0,0-3.73,1.95c-6.35,8.94-14.76,15.74-23.09,22.62-.45.37-1.21.36-2.8.79,1-1.86,1.31-3.14,2.1-4,6.56-7.38,13.2-14.7,20.19-22.44a23.18,23.18,0,0,0-3.08-1.07c-7.34-1.34-14.68-2.75-22.07-3.81-1.28-.18-3.12.91-4.14,2-7,7.15-13.8,14.45-20.73,21.65a6.18,6.18,0,0,1-3.05,1.54c1.93-5.38,6-9.2,9.51-13.4S346,954.44,350,949.79c-4.77-.84-9.14-1.14-13.21-2.43-7.67-2.43-13.26-1.24-18.51,5.69-4.57,6-11.08,10.61-16.79,15.77a14.55,14.55,0,0,1-2.83,1.62c-.31-.25-.62-.5-.92-.76a24.71,24.71,0,0,1,2.62-4.29c5.47-5.89,11.08-11.66,16.63-17.49.92-1,1.81-1.94,3.18-3.42-6.78-1.24-12.83-2.36-18.89-3.45a9.46,9.46,0,0,1-2.38-.29c-5.51-2.7-9.26-.4-13.19,3.62-5.36,5.51-11.34,10.41-17.17,15.45-2.05,1.78-4.42,3.19-6.67,4.79-2.33-2.23-.66-3.65.55-4.83q9.17-8.89,18.51-17.58a27.3,27.3,0,0,1,4-2.64l-.86-1.5c-2.95-.62-5.9-1.29-8.86-1.85-3.27-.62-6.63-.88-9.82-1.77-2.84-.78-4.74.06-6.8,1.94-7.22,6.57-14.58,13-21.94,19.43a52.16,52.16,0,0,1-4.72,3.28l-1.18-.61c.47-1.51.51-3.45,1.5-4.46,4.8-4.92,9.77-9.68,14.85-14.32,2.36-2.15,5.09-3.87,8.18-6.19a25.65,25.65,0,0,0-3.7-1.44c-6.19-1.22-12.37-2.58-18.62-3.38a9.77,9.77,0,0,0-6.25,1.76c-8,5.62-15.7,11.61-23.64,17.29-1.3.93-3.24,1-4.89,1.43.92-1.4,1.57-3.1,2.79-4.16,6.75-5.86,13.63-11.56,21.05-17.82-2.89-.74-5.43-1.46-8-2A40.45,40.45,0,0,0,206.9,924a8.68,8.68,0,0,0-4.72,1.25C192,931.72,182,938.4,171.91,945a5.41,5.41,0,0,1-1.59.44l-.91-.71c.92-1.42,1.57-3.18,2.82-4.19,4-3.24,8.24-6.24,12.43-9.27,3.77-2.74,7.6-5.39,12.13-8.59a28.85,28.85,0,0,0-4.09-1.47c-6.33-1.08-12.66-2.25-19-3a8.11,8.11,0,0,0-5.45,1.75c-6.65,5.48-13,11.3-19.61,16.86a7.23,7.23,0,0,1-4.68,1.22c5-9.1,13.51-14.21,21.67-20.92-2.18-.71-3.6-1.29-5.07-1.62-2.23-.5-4.53-.74-6.77-1.26-3.15-.74-5.53,0-8.08,2.26-5.88,5.31-12.17,10.16-18.35,15.13a6.61,6.61,0,0,1-3.28,1.19c1.14-4.68,5.21-7,8.19-10.09,3.15-3.28,6.58-6.29,10.74-10.22-6.72-1.14-12.48-2.17-18.27-3-.64-.1-1.51.53-2.09,1-6.69,5.78-13.32,11.62-20,17.38a6.62,6.62,0,0,1-4,1.51c5.43-8,12.87-13.89,20.79-20.64-2.17-.66-3.68-1.24-5.23-1.56-2-.41-4.25-.23-6.1-1-4.53-1.87-7.77-.12-11.21,2.68-6,4.86-12.23,9.37-18.39,14a3.06,3.06,0,0,1-2.44.45c4.31-8.73,12.54-13.41,20.78-19.16-4.08-.77-7.26-1.57-10.48-1.87a8.17,8.17,0,0,0-4.47,1.23c-6.75,3.92-13.41,8-20.1,12-.2.11-.38.33-.58.35-1.25.13-2.51.22-3.77.32.63-1,1-2.42,1.92-3.06,4.59-3.24,9.33-6.28,14-9.42,1.2-.81,2.31-1.74,3.46-2.61l-.24-.95c-1.67,0-3.56-.51-5,.09-6.64,2.84-13.13,6-19.72,9a21,21,0,0,1-4.09.93l-.67-1.53a69.94,69.94,0,0,1,6.65-4.26c2.86-1.44,6-2.36,8.88-3.73,2.37-1.12,4.59-2.07,5.89-5.11.85-2,4.31-3.07,6.79-4.13,23.93-10.25,47.86-20.53,71.89-30.54,10.16-4.24,20.54-8,30.9-11.71,3.38-1.22,5.07-3.22,6-6.72,4.34-16.9,8.94-33.73,13.45-50.59.14-.54.22-1.09.43-2.15-3-.45-5.94-1-8.86-1.3-15-1.75-29.88-3.66-44.86-5.06a45,45,0,0,0-13.91,1.06C99,791.6,67.79,799,36.52,806.35c-3.32.78-6.7,1.35-10.08,1.9-.58.09-1.25-.41-2.68-.92a42.25,42.25,0,0,1,4.33-2.25c19.44-7.16,39.6-11.68,59.8-16q22-4.7,44.21-8.88c3.13-.6,3.88-2.08,3.86-4.91-.17-26.12-.23-52.24-.39-78.37q-.27-44.54-.65-89.07-.75-97.35-1.51-194.71-.42-61.29-.64-122.57-.44-106.52-.78-213c0-3.68-.17-7.37,0-11,.05-1,1-2.55,1.79-2.75,1.89-.47,2.35.77,2.36,2.67q.14,37.64.47,75.26.59,78,1.21,156.06.72,101,1.34,202,.73,115.49,1.46,231c.1,15,.5,29.91.55,44.87,0,3.18,1.7,4,4.15,4.3q15.24,1.86,30.48,3.58c6.86.76,13.74,1.27,20.59,2.14,2.28.28,3.19-.15,3.82-2.51q16.61-62.42,33.41-124.77c4.29-16,8.67-31.91,13-47.87a49.71,49.71,0,0,0,.8-5.5c-5.48-.3-10.5-.66-15.52-.83-2.36-.08-3.2-1-3.12-3.39.17-5.06.05-10.13.19-15.19.06-2-.48-2.91-2.61-3.1-14.08-1.29-28.13-2.79-42.22-4-6-.5-6.64-.59-6.65-6.52,0-4.46.65-8.92,1-13.38.22-3,1.93-4.16,4.73-4.42,6.28-.59,12.54-1.42,18.83-1.9,2.49-.2,3.59-.7,2.86-3.5-1.44-5.56-2.68-11.17-3.87-16.79-.58-2.8-1.62-5.8-1.13-8.47,1.39-7.69-3.2-13.67-5.06-20.41a2.61,2.61,0,0,0-1.16-1.65c-5.76-2-5.3-7.16-6.08-11.68-.29-1.69-.3-3.44-.58-5.14a4.11,4.11,0,0,0-1-2.48c-5.19-3.88-4.59-9.56-4.27-14.82.41-6.95,1.6-13.86,2.48-21-1.92-.11-4-.34-6.12-.33s-2.64-1.09-2.38-2.84c.45-3,1-6.05,1.51-9.27-1.15.12-2.47.34-3.79.38-4.71.15-6.41-2-4.88-6.4,2.15-6.16,6.62-10.47,12.06-13.69a9,9,0,0,0,4.34-5.75c3.08-10.44,8.12-19.95,14.19-28.94,1.27-1.89,2.6-3.74,3.94-5.66,4.19,3.64,4.63,7.15,5,10.65,1,8.91-.1,7,8.44,7.71,5.47.44,8.74-1.53,11.29-6.18,1.64-3,4.2-5.46,6.35-8.17l1.4.37c.78,2.19,1.95,4.33,2.27,6.59a107.68,107.68,0,0,1,1.26,14.76c0,4,1.52,6.86,4.28,9.64,3.63,3.65,6.82,7.74,10.09,11.73a3.65,3.65,0,0,1,0,5.26c-.67.79-.36,2.65-.07,3.92.22.93,1.24,1.64,1.72,2.55,1.28,2.43,2.18,4.83-.42,7.14-1.54,1.36-1.14,2.72.73,3.39,6.5,2.33,11.33,6.28,13.89,12.94.43,1.13,2.57,1.72,4,2.32,5.13,2.17,10.28,4.12,11.49,10.67.21,1.12,2.14,2.36,3.5,2.75,9.14,2.58,16.57,7.81,22.93,14.62,1.49,1.59,2.2,3.9,3.23,5.91.8,1.55,1.17,3.52,2.36,4.65A26.07,26.07,0,0,1,325,512.25c1.5,9.52,6.14,17.42,12.16,24.41l10.06-.55c-.6-5.22-1.26-10.41-1.78-15.61-1.18-11.9-2.36-23.8-3.4-35.7-.37-4.16,1.89-6.8,6.62-8.41l7.27-2.46v-1.31c-2.56-.64-5.09-1.5-7.69-1.88-4-.58-8.05-.53-12-1.28-5.73-1.1-6.54-3.42-2.32-7.4,8.45-8,18.3-12.15,30.2-9.38.85.2,1.72.32,3.41.62a29.35,29.35,0,0,0-1.69-3c-6.08-8.19-14.18-12.52-24.43-12.72-1.84,0-3.67-.19-5.51-.26-2.85-.1-3.47-1.57-2.13-3.83a24,24,0,0,1,13.91-11.12c7.08-2.19,14.11-1,21.13.38,1.2.24,2.39.51,4,.87-1-5.08-3.8-8.68-6.73-12.13-4.71-5.56-11.06-8.86-17.37-12.18-3.05-1.61-3.37-3.06-1-5.55,4.22-4.5,9.78-4.76,15.33-4.26,7.39.67,13.47,4.31,18.83,9.27,1.08,1,2.24,1.92,3.87,3.31,5.63-18.65,18.42-30.29,34.51-38.84l1.22.66-7.56,40,29-13.22,1.12,1.18a20,20,0,0,1-1.62,4.07c-7.45,11.17-15,22.28-22.51,33.42-.43.64-.78,1.34-1.75,3a198.63,198.63,0,0,1,40.29-10.8l.73.88c-1.06,1.63-1.8,3.64-3.22,4.83-9.75,8.2-19.62,16.25-29.5,24.28-2.61,2.13-5.4,4-8.1,6l.4.82a56.39,56.39,0,0,1,6.66-1q11.49-.42,23-.49c1.19,0,2.38.93,3.57,1.44-.82.95-1.45,2.23-2.48,2.82-7.39,4.18-14.86,8.21-22.29,12.32-1.06.59-2,1.32-3.42,2.22a14.77,14.77,0,0,0,2.55,1.84c5.46,2.12,6.22,6.35,5.49,11.48-1.76,12.4-3.38,24.8-5.05,37.21a11.89,11.89,0,0,0,0,1.48,11.28,11.28,0,0,0,2,.28c23-.72,45.66,1.63,68.3,5.53,9.69,1.67,19.69,1.63,29.57,2,25.52,1.06,51,1.93,76.56,2.9,2.18.08,4.35.42,6.52.44,2.51,0,3.66-1.09,3.38-3.87-.48-4.92-.72-9.86-.87-14.8-.06-2-.79-2.53-2.65-2.65-9-.58-17.89-1.37-26.83-1.93-18-1.13-36.06-2.14-54.09-3.23-12.63-.75-25.27-1.38-37.88-2.39a90.42,90.42,0,0,1-16.55-2.7c-5-1.38-6.18-3.41-5.8-8.74.59-8.47,1.24-17,2.47-25.37,4.07-27.62,8.59-55.17,12.59-82.8,2.68-18.42,4.68-36.94,7.15-55.4,1.43-10.7,3.18-21.36,4.84-32a23.33,23.33,0,0,1,1.18-4.31c2.39-6.82,4-8.06,11.26-8.15,25.08-.28,50.16-.71,75.24-.69,26.58,0,53.16.44,79.73.81,24.74.34,49.48.72,74.21,1.35a193.9,193.9,0,0,1,25,2.05c8.58,1.34,13,7.34,12.14,16-2.49,25.16-5.09,50.31-8,75.43-2.28,19.62-5,39.2-7.73,58.77-2.85,20.48-5.78,40.94-9,61.36-1.58,10.05-5.38,13.27-15.42,15.32-13.63,2.79-27.28.78-40.93.48-4.45-.1-8.89-.4-13.6-.61,1.14,7.37,2.21,14.35,3.31,21.46,7.79.52,15.66,1.41,23.54,1.5,13.33.15,26.65-.27,40-.3,3.42,0,7,0,10.23,1,12.54,3.86,25.48,2.21,38.43,3.8-.27-5.77-.55-11-.78-16.27-.52-12.18-1.19-24.36-1.42-36.55,0-2.64-.17-4.49-2.57-5.95a4,4,0,0,1-1.29-3c-.09-4.91,2.72-13.39,10.14-15.15,3.66-.87,7.21-2.18,10.68-3.25-.67-3.07-1.35-5.72-1.81-8.4-.57-3.32-2.12-5.63-5.47-6.76-4-1.35-8-2.91-11.91-4.44-4.75-1.82-5.36-5.82-1.43-9.11-.8,2.19-1.71,4.39.54,6.36C792.64,443,792.46,441.52,789.2,439.4ZM563.78,610c.07.74.09,1.31.17,1.87q4.86,35.16,9.74,70.32c1.3,9.33,2.71,18.65,4,28,.36,2.51,1.38,3.91,4.18,4.55,6.59,1.52,13.12,3.39,19.56,5.45,13.77,4.42,27.45,9,40,16.49,20.22,12,20.48,36.09,12.38,50-4.89,8.43-12.42,14.08-20.8,18.62-18.44,10-38.66,13.87-59.12,16.07-16.55,1.77-33.26,2-49.9,3-.44,0-.89.12-1.34.18a7.41,7.41,0,0,0,3.08,1c8.32,1,16.65,2,25,3q34.89,4.35,69.79,8.75c17.44,2.18,34.9,4.26,52.32,6.63,3.15.43,4.43-.13,5.4-3.24q24.6-78.72,49.44-157.37c4.48-14.2,9.09-28.36,13.82-43.08-3-.21-5.87-.26-8.65-.64-4.86-.65-5.31-1.25-5.36-6.17,0-3.09,0-6.19,0-9.94ZM268.69,498.09l.74,1.17c-.95,1-1.85,2-2.87,2.9-2.81,2.46-6,5.09-4.84,9.17.9,3.08-.41,4.61-1.93,6.68-2,2.72-4.37,5.53-5.21,8.67-2.43,9.09-.34,18,2.48,26.7,1.71,5.26,1.66,6.08-2.77,9.19a14.28,14.28,0,0,0-6,8.94c-.72,3.41.85,6.18,4.18,7L251.22,575c3.1-1.75,3.22-1.59,4.13,1.93.28,1.1,1.47,2,2.24,2.94a21.37,21.37,0,0,0,1.57-3.09,12.67,12.67,0,0,0,.31-2.78l1-.18c.57,1.67,1.15,3.34,2,5.86,1.68-1.86,3.23-3.16,4.24-4.79A18.86,18.86,0,0,1,277,566.54c9.76-3.32,19.53-6.6,29.34-9.74,4.22-1.35,8.2-3.4,10.08-7.29,2.91-6,5-12.51,7.27-18.84a8.8,8.8,0,0,0,.45-4.42c-2.18-11.27-3.66-22.9-14.47-30.06a2.84,2.84,0,0,1-.65-2.72c1.41-2.39.81-4-1.18-5.68-7.1-5.92-14.47-11.35-23.65-13.67-1.71-.43-2.83-1.21-2.71-3.31.17-3-1.49-5-4.06-6.25-3.21-1.5-6.61-2.62-9.75-4.25A5.85,5.85,0,0,1,264.9,457c-1.18-4.56-6.68-10.23-11.27-11a4,4,0,0,0-2.64.39c-4.12,2.56-8.45,1.53-12.72.79-1.4-.24-2.68-1.27-4-1.94l.21-.87a30.53,30.53,0,0,1,3.27-.44c2.19-.05,4.38.08,6.56,0a27.65,27.65,0,0,0,3.25-.47c-.3-1-.63-2-.9-3s-.54-2.24-.83-3.43l1.5-.26,4.54-.7a37.6,37.6,0,0,0-2.22-4.66c-1.28-2-2.85-3.77-4.54-6l5.84-2.47c-3.15-3.95-5.56-7.82-8.77-10.83-5-4.7-6.8-10.43-7.09-17-.14-3.25-.55-6.5-.83-9.75l-.86-.31c-1.23,1.42-2.48,2.83-3.7,4.26-2.19,2.58-3.82,6-7.84,6.09-3.68.11-7.37.06-11-.08-2.37-.09-4.19-1.2-4.77-3.71-.46-2-.86-4-1.28-6.05-.35-1.72-.68-3.44-1-5.16l-.94-.26c-1.14,1.49-2.59,2.84-3.36,4.5-4.3,9.25-8.41,18.58-12.64,27.86a10,10,0,0,1-2,3.06c-3.67,3.57-7.5,7-11.16,10.54-.89.87-1.37,2.16-2.5,4,3.59-.65,6.24-1.31,8.93-1.56,3.18-.29,3.7.64,2.52,3.61-1.24,3.12-2.39,6.29-3.57,9.43,1.78,0,2.83-.72,4-1a4.68,4.68,0,0,1,2.87.11c2.76,1.21,5.46,2.58,8.12,4a29.35,29.35,0,0,1,3.14,2.23l-.56,1.11c-1.53-.21-3.08-.33-4.58-.66-3.15-.7-4.93.37-5.15,3.68-.48,7.43-1.07,14.87-1.31,22.31a4.92,4.92,0,0,0,2.3,3.57,5.7,5.7,0,0,1,3.16,5.23c.13,3.1.33,6.21.72,9.28.28,2.26.57,4.69,3.95,4.47a2.67,2.67,0,0,1,1.92,1.58c1.63,5.37,3.84,10.7,4.46,16.2,1.43,12.71,3.36,25.24,7.9,37.26,2.93,7.79,2.88,7.83,11.47,7.46,1.09,0,3-.24,3.12-.78,1-3.09,2.39-6.42,2-9.47-.64-5.29-2.46-10.44-3.82-15.64-2.6-9.9-2.22-20.65-8.42-29.55-.48-.69-.06-2-.06-3l1.06-.3c3.2,5.67,7.65,10.58,8.89,17.44,1.54,8.56,3.48,17,5.36,25.55.82,3.68,2.14,7.2.82,11.12-.72,2.14.26,4,2.85,4a57.6,57.6,0,0,0,10.6-.26,5.76,5.76,0,0,0,3.64-3.73,51.56,51.56,0,0,0,1.3-11.62c-.07-12.19-.44-24.37-.64-36.56a8.41,8.41,0,0,1,.56-2.19l1.45,0q.94,8.24,1.9,16.46l.8.43c1.33-2.64,3.76-5.28,3.76-7.92,0-5.89,3.07-9.45,7.29-12.48C265.24,499,267.08,498.68,268.69,498.09Zm534.47,362.4c-1.08-7.82-2.08-15-3.07-22.12q-3.71-26.79-7.4-53.57c-2.11-15.13-4.29-30.25-6.4-45.37-2.52-18.09-5-36.17-7.48-54.27q-2.67-20-5-40c-.26-2.25-1.27-3.09-3.22-3.12-1.8,0-3.82-.84-4.57,2.14-1.43,5.66-3.26,11.22-4.94,16.82Q734.47,749.46,707.9,837.9c-1,3.24-1.74,6.54-2.7,10.17ZM744.54,1016.8c1.69.47,2.21.67,2.75.76,10.86,1.88,21.73,3.71,32.59,5.61,16.61,2.92,33.23,5.79,49.8,8.91a8.5,8.5,0,0,0,7.87-2q35.09-30.36,70.23-60.66c16.89-14.57,33.82-29.09,50.62-43.76a5.39,5.39,0,0,0,1.44-4.43c-.49-2.23-.23-5.39-3.68-5.89-7.84-1.14-15.66-2.34-23.51-3.35q-26.83-3.45-53.69-6.69a7.07,7.07,0,0,0-4.81,1c-9.52,7.58-18.86,15.37-28.27,23.08-2.29,1.87-3.44,4-3,7.17,2.73,17.59,5.29,35.21,8,52.81.89,5.87-1.67,9.5-7.61,9.47a112.28,112.28,0,0,1-15.4-1.4c-4.08-.59-6.44-3.25-7-7.41-.74-6-1.45-12.09-2.22-18.13-.71-5.64-1.49-11.27-2.38-18C792.15,975,767.36,994.07,744.54,1016.8ZM931.69,568.72l-.08-.5a8.54,8.54,0,0,0-2,0,120.6,120.6,0,0,1-40.08,2.56c-8.23-.81-16.52-1.4-24-5.56-2.63-1.47-5.32-3.14-5.44-6.58-.08-2.56-1.34-3.35-3.61-3.49-4.59-.27-9.26-.2-13.73-1.11-3.05-.63-3.61.19-4.31,2.83C836.34,565,832.3,568,824,568.07c-4,0-8.08.2-12.08-.13-2.78-.23-6.27-.35-8.1-2-4.21-3.82-7.4-8.67-8.17-14.31l-25.49-1.21c-1.64,5.06-2.11,10.54-4.88,14.34-9.86,13.5-23.36,20.49-40.41,19.09-10.6-.88-15.43-8.78-11.91-18.83a27,27,0,0,1,11.33-13.88c1-.63,1.79-1.43,3.47-2.79L683.45,546a14.22,14.22,0,0,0-.26,2.72c.51,5.16-2.25,8.09-6.58,10.15-6.31,3-12.5,6.27-18.84,9.2a35.11,35.11,0,0,1-20.8,3.09c-5.66-.94-11.4-1.43-17.05-2.39-12.68-2.13-25.33-4.44-38-6.66-3.11-.55-4.39-2.44-4.57-5.49-.28-5,.8-7.15,5.5-9,5.93-2.27,12-4.25,17-6l-91.93-3.88a7.57,7.57,0,0,0,1,1.18,7.81,7.81,0,0,0,1.49.84,72,72,0,0,1,30.51,21.77c4.52,5.58,8,12,12,18.05,1.22,1.88,2.05,3.73,5,3.94,15.71,1.13,31.4,2.58,47.1,3.83,19.14,1.53,38.3,2.91,57.44,4.45q31.64,2.55,63.25,5.3c13.86,1.21,27.68,2.76,41.54,3.88,6.39.51,13.06,1.5,19.2.27,20.11-4.06,40-9.06,60-13.65q26.32-6,52.68-12C910,573.22,920.83,571,931.69,568.72ZM657.78,1001a33,33,0,0,0,3.89,1.4c7.76,1.54,15.51,3.17,23.31,4.49,17.32,2.91,34.67,5.63,52,8.51a7.45,7.45,0,0,0,7.11-2.26c6-5.89,12-11.74,18.3-17.28Q787.52,973.75,813,952a6,6,0,0,0,2.28-6.24q-3.32-23.37-6.54-46.75c-.26-1.95-1-2.81-3-3-7.07-.81-14.12-1.84-21.19-2.58-4.8-.5-8.77.06-12.9,4-13.87,13.38-28.52,26-42.83,38.89q-28.65,25.89-57.22,51.84C667.17,992.2,662.85,996.28,657.78,1001Zm-84.37-37.69-.86-.65L547,981.09c1.55.43,2.07.61,2.6.71,26.08,4.76,52.16,9.57,78.26,14.24,7.46,1.33,15,2.41,22.48,3.31a7.13,7.13,0,0,0,5-1.48c15.15-13.25,30.29-26.52,45.19-40,20.78-18.85,41.34-37.93,62-56.88,3.15-2.89,6.43-5.63,9.86-8.62a13.7,13.7,0,0,0-1.41-.42c-14.32-2.06-28.63-4.26-43-6.12-10.24-1.33-20.55-2.11-30.81-3.33-2.13-.25-2.61.87-3.1,2.3-1.22,3.57-2.42,7.15-3.55,10.75-6.08,19.27-12,38.58-18.26,57.79a179.1,179.1,0,0,1-7.42,18.13,4.66,4.66,0,0,1-3.63,2.28,58,58,0,0,1-12.45-2.37c-8.4-2.84-9.8-6-7.22-14.35q5.19-16.79,10.4-33.56c1.94-6.28,3.87-12.56,5.83-18.93-3.4,2.15-6.64,4.09-9.76,6.21q-21.94,14.91-43.78,30a3.93,3.93,0,0,0-1.32,3.36c1.08,3.65,0,6.48-3,8.41-3.21,2.09-3.21,4.32-1,7,3.57,4.48.88,11.35-2.35,14.77-4.29,4.53-9.91,5.75-15,3.33C575.56,974.74,572.17,970.38,573.41,963.28ZM737.69,489.46c-15.35-.51-29.81-1.07-44.28-1.45-19.43-.52-38.86-.85-58.29-1.36-12.86-.35-25.73-.85-38.59-1.33q-37.57-1.41-75.15-2.88-22.74-.92-45.48-2c-1.76-.09-2.91.25-3.08,2.19-.49,5.38-.91,10.76-1.49,16.13-.4,3.7,1.4,5.76,4.77,6.38a121.43,121.43,0,0,0,14.29,2.06q39.76,2.56,79.55,4.82,39.43,2.25,78.89,4.21c22.16,1.08,44.34,1.93,66.51,2.75a84.74,84.74,0,0,0,11-.67,7.08,7.08,0,0,0,6.54-5.36C734.71,505.39,736,497.72,737.69,489.46ZM297.45,936.61c7.17,1.21,13.61,2.19,20,3.39,14.52,2.72,29,5.6,43.54,8.31,15.33,2.86,30.64,5.78,46,8.26,4,.65,8.31,2.37,12.44-.13,14.37-8.65,28.78-17.23,43.12-25.93,4-2.43,7.84-5.16,11.71-7.72-23.91-1.51-47.43,1.51-71.35,5.1,1,2,1.8,3.67,2.63,5.29,3.73,7.3,2.85,12-3.19,17.5-3.95,3.61-8.49,2.73-13,1.77-5.6-1.19-9.41-5.45-9.1-11.19.21-4,1.58-7.84,2.5-12.06-.34-.13-1.19-.39-2-.75-4.12-1.8-5-3.86-3.67-8.15,1.65-5.27,5.63-8.13,10.33-10.4,10.55-5.11,21.94-7.5,33.27-9.78,17.67-3.56,35.47-6.46,53.23-9.55,2.55-.44,3.45-1.5,3.27-4.11-.67-9.76-1.14-19.53-1.73-29.29a25.52,25.52,0,0,0-.63-3.42c-2.37-.32-4.42-.53-6.44-.86-7.94-1.3-15.47-2.21-23,2.86-7.28,4.9-15.61,8.22-23.41,12.37-13.77,7.31-27.48,14.74-41.24,22.09-8.5,4.53-17.12,8.84-25.52,13.55-5.29,3-10.27,6.47-15.39,9.71a55.15,55.15,0,0,1-6.39,3.87c-3.48,1.59-7.34,2.45-10.66,4.3C314.41,926.31,306.26,931.37,297.45,936.61Zm211.66-109-31.3-3.59c1.81,24.1,4.45,47.45,2.7,71.22-9.52,1.54-18.56,2.93-27.57,4.47-14.12,2.41-28.32,4.48-42.29,7.58-8.09,1.79-15.91,5-23.6,8.18-4.13,1.71-6.08,5.75-4.68,7.83,2.07,3.08,5.27,2.5,8.43,2,12.54-2.08,25-4.64,37.66-5.94,15.12-1.55,30.35-2,45.54-2.87,2.23-.12,2.78-1.09,2.77-3,0-3.07,0-6.14,0-9.2l1.14-.51c.59.9,1.64,1.77,1.69,2.7.28,5.26.44,10.53.42,15.8a64.34,64.34,0,0,1-.75,8.53c-1,7-2.19,14-2.93,21a4.92,4.92,0,0,0,2.36,4c6.91,2.5,14.08,3.44,21.3,1.45,3.09-.85,4.68-3.18,4.53-6.52s-.35-6.89-.42-10.33c-.22-11.25-.39-22.49-.57-33.74,0-2.23,1.08-3.57,3.7-4.28,0,3.93.17,7.57-.05,11.18-.18,2.88.86,4.34,3.61,5.31a375.9,375.9,0,0,1,47.35,20.46c8.43,4.32,17.3,7.86,26.11,11.39,3.76,1.51,7.74.68,11.31-1.29,2.49-1.38,3.48-3.45,1.57-5.94-1.6-2.07-3.17-4.5-5.35-5.73-12-6.73-24-13.43-36.3-19.58-11-5.48-22.34-10.17-33.47-15.37a102.15,102.15,0,0,1-8.9-5.2c-4.22-2.5-6-6.56-6.63-11.12a43,43,0,0,1-.21-8.26C507.16,861.71,508.13,845.09,509.11,827.65ZM347.44,596.14c-6.52,2-12.75,3.8-19,5.68s-6.11,1.86-5,8.27c.08.45.06.92.13,1.38,1.11,7,.07,14.19,3.19,20.95,2.89,6.26,3.25,13.06,3,19.92-.16,4.81.48,9.65.3,14.46a22.88,22.88,0,0,1-1.93,7.76c-.94,2.22-3,4-3.88,6.2-1.61,4.23-4.44,6.62-8.82,7.12a19.27,19.27,0,0,1-4.3-.46c.3,2.69.51,5.08.83,7.45q6.78,51.27,13.57,102.55c.33,2.45,1.47,3.67,3.89,4,8.56,1,17.1,2.1,25.67,3,7.07.74,6.9.6,8.39-6.36,1.8-8.47,4-16.87,5.89-25.32a3.65,3.65,0,0,0-.53-2.27c-6-11.08-8.34-23.3-10.81-35.43a599.27,599.27,0,0,1-10.2-70.58c-1.47-17.78-3.17-35.54-1.67-53.4C346.66,606.12,347,601.24,347.44,596.14ZM663.66,313.43c.89,4,1.45,7.17,2.29,10.25,4,14.61,4,29-1.72,43.24-10.7,26.6-24.16,51.78-39.09,76.21-3.77,6.17-7.74,12.23-11.43,18.45-2.32,3.91-1.71,5,2.72,5.32,7,.45,14,.51,21,1.1,4.12.34,6.4-1.38,8.67-4.64,20.08-28.77,38.14-58.79,55.8-89.06,10.3-17.66,20.29-35.49,30.37-53.27a47.52,47.52,0,0,0,2.16-5.51ZM74,894.87c.12.6.24,1.2.35,1.8,5.49,1,11,2.07,16.46,3.08,28.1,5.17,56.2,10.37,84.33,15.38a12.16,12.16,0,0,0,7.24-1c14.86-7.71,29.39-16.08,44.38-23.51,23.33-11.55,47-22.51,70.43-33.77a34.64,34.64,0,0,0,4.05-2.65c-11.56-1.64-22.67-3.2-33.77-4.81-16.59-2.4-33.17-4.79-49.74-7.32-2.64-.41-3.87.5-4.54,2.85q-3.82,13.38-7.69,26.75c-2.56,8.91-5,17.87-7.78,26.72-.41,1.31-2.23,3-3.47,3.08-7.18.34-14.18-.51-20.5-4.51-1.95-1.24-2.83-2.53-2.29-4.75q4.4-18,8.79-36.09c.27-1.14.63-2.26,1.21-4.34ZM275.75,607.36l-.5-.36a40.4,40.4,0,0,0-2.58,5.91c-3.28,12.3-6.4,24.64-9.6,37q-17.2,66.26-34.42,132.51c-.56,2.17-.92,4.38-1.43,6.85l68.66,8.19c0-1.29.07-2.07,0-2.84-.93-9.26-1.83-18.53-2.84-27.78q-4.39-40.27-8.87-80.53c-.48-4.32-.5-8.82-1.77-12.91-1.9-6.08-4.72-11.86-7.16-17.77-3.41-8.28-3.62-16.75-1.66-25.39a11.33,11.33,0,0,0,0-3c-.14-2.83-.71-5.7-.35-8.46A112.55,112.55,0,0,1,275.75,607.36ZM600.08,939c18.73-13.21,37.18-26.21,55.61-39.24,1.67-1.18,4-2.19,4.7-3.84,2.34-5.74,4.08-11.72,6-17.57-3.56-.55-6.61-1.08-9.67-1.47-25.86-3.26-51.72-6.43-77.56-9.8a10.65,10.65,0,0,0-7.87,1.84c-15.81,10-31.82,19.72-47.92,29.63,1.83,1,3.56,2.18,5.42,3,14.94,6.71,29.83,13.55,44.89,20A80,80,0,0,1,600.08,939ZM417.9,367.53a90,90,0,0,0-19.72,18.6c-5.74,7.16-7.35,16-10.18,25.43-2.44-2.68-4-4.53-5.68-6.22a66.84,66.84,0,0,0-7.54-7c-5.74-4.16-12.14-6.54-19.38-5-1.21.25-2.24,1.33-3.36,2,.85.95,1.53,2.21,2.59,2.8,7.22,4.05,13.85,8.79,17.88,16.23,2.61,4.83,4.69,10,7,14.95l-1.11,1c-2-.7-4-1.29-5.93-2.12-8.11-3.49-16.4-4.35-24.83-1.49-3.3,1.12-6.62,2.52-8.44,6.51,8.29,1,16.32,2.05,22.56,7.81,5.83,5.37,11.37,11,14.74,18.55a22.28,22.28,0,0,1-6.05-1.34c-11.06-4-21.43-3.12-30.87,4.32a9.32,9.32,0,0,0-1.49,2.1c.71.42,1.41,1.2,2.14,1.22,14.34.56,25.66,6.17,33.22,18.85,1,1.67,3.9,2.89,6,3.06a114.27,114.27,0,0,0,16.55.07c2.74-.17,6.1-.72,8-2.42,10.87-9.68,23.46-16.49,36.29-23a29.88,29.88,0,0,0,2.87-1.92c-14.1-2.13-26.79,1.79-39.48,7.16a9.37,9.37,0,0,1,2.46-4.74c4.27-3.68,8.67-7.2,13.11-10.67,10.14-7.92,20.33-15.77,30.48-23.68a6.46,6.46,0,0,0,1.07-1.55l-.48-.78a105,105,0,0,0-50.68,21.51c2.66-7,9.34-10.58,13.28-16.39s8.92-11.12,13.16-16.84,8.17-11.76,12.41-17.91c-1-.21-1.32-.39-1.61-.32a7.69,7.69,0,0,0-1.6.59c-15.38,7.27-29.39,16.22-38.37,31.35-.5.83-2,1.08-3,1.59.07-1.13-.28-2.58.29-3.35,3.59-4.89,7.48-9.56,11.06-14.46,1.64-2.24,3.41-4.68,4.06-7.3,1.86-7.45,3.09-15.05,4.75-22.55C415.12,377.54,416.48,373,417.9,367.53ZM328.58,532.35c-.62,1.12-1.12,1.86-1.47,2.66-2,4.63-3.94,9.29-6,13.9-2.73,6.07-6.92,10.31-13.83,11.65-8.57,1.67-14.87,9.5-15.51,18.17-.14,1.89-1.39,3.73-2.28,5.52-1.67,3.36-4.59,6.55-4.94,10-.65,6.39-3.53,11.8-5.48,17.63-1.76,5.22-3.45,10.54-.38,16a3,3,0,0,1-.05,2.3c-2.39,5.79-2.27,11.73-.66,17.56,1.82,6.6,4.09,13.08,6.27,19.56a8,8,0,0,0,2.09,3.09q6.32,5.8,12.81,11.43c2.66,2.29,5.46,3,8.79.89a6.93,6.93,0,0,1,4.8-.59c3.94.91,5,.59,6.81-3.05,1.32-2.65,2.79-5.24,4-7.93.83-1.81,1.86-3.72,2-5.62.31-5.6.33-11.22.2-16.83a63.32,63.32,0,0,0-1.06-10.56c-1.32-6.69-4.73-12.9-4.12-20.08a19.27,19.27,0,0,0-1.26-9,14.21,14.21,0,0,1-.4-10.33c.29-1,.24-2.08.6-3,2.74-7.23,5-14.74,8.53-21.56,2.62-5,5.62-9.69,6.05-15.49.31-4.24.79-8.47.95-12.71C335.21,540.44,332.46,536.34,328.58,532.35ZM303.42,858.76c-1.2.45-2.18.73-3.09,1.16-12.69,6.08-25.44,12.06-38.06,18.3q-35.17,17.38-70.21,35a54,54,0,0,0-5.49,3.67c19.45,3.5,38.07,6.86,56.7,10.18,14.13,2.52,28.25,5,42.41,7.38a11.26,11.26,0,0,0,6.59-.75c6.93-3.58,13.63-7.59,20.41-11.45,2.81-1.6,5.6-3.25,9.2-5.34-3.07-.34-5.1-.55-7.13-.8-3.05-.37-4.57-2.14-4.94-5.18-1.36-11.29-2.81-22.57-4.2-33.85C304.87,871.1,304.17,865.06,303.42,858.76ZM667.3,875.31l8.39-26.91L515,828.44c-.24,1-.51,1.45-.43,1.84,1.75,8.08,3.45,16.17,5.43,24.19.25,1,2,2.19,3.15,2.35,14.8,2,29.62,3.92,44.44,5.83Q601.28,867,635,871.31C645.45,872.64,655.94,873.9,667.3,875.31ZM623.62,314.75c-.15-.5-.29-1-.43-1.5-7.79,0-15.59.2-23.37-.07-5.53-.2-9.19,1.94-12.28,6.51-12.16,18-24.58,35.81-36.93,53.67q-29.52,42.66-59,85.31a41.43,41.43,0,0,0-2.25,4.5c4.63.58,8.65.75,12.5,1.64,5.21,1.2,8.78-.53,11.84-4.68,6.48-8.79,13.18-17.42,19.79-26.11q44.14-58.08,88.27-116.17A36.19,36.19,0,0,0,623.62,314.75ZM557,587.6c1.65,5.52,3.16,10.92,5,16.21a4.13,4.13,0,0,0,2.9,2.22c13,1.25,26.1,2.36,39.15,3.44,16,1.33,32.09,2.6,48.12,3.92q26.46,2.18,52.92,4.39,24.4,2,48.81,3.94c7.68.6,15.38,1,23,1.61,2.77.22,4.06-.6,3.84-3.6s-.05-6-.08-9c0-5.75-.06-5.7-6-6.09q-10.49-.7-21-1.58c-18.21-1.51-36.41-3.15-54.62-4.57-17.54-1.37-35.09-2.47-52.63-3.79q-37.49-2.82-75-5.8C566.76,588.55,562,588.06,557,587.6ZM445.9,851.52l.05-1a61,61,0,0,0-6.18-1.37C430,848,420.13,847,410.33,845.79c-8.21-1-16.39-2.19-24.57-3.4-2.6-.38-4.14,0-4.29,3.11-.1,2.14-1,4.24-1.37,6.38-.5,2.75-2.05,4.1-4.81,4.54-5.68.92-11-.37-16.1-2.57s-5.07-2.85-4.45-8.27c.26-2.24.57-4.47.89-7-4.71-.34-8.92-1.58-12.94,1.54a20.58,20.58,0,0,1-7.12,3.37c-2.87.78-3.49,2.23-3.1,4.94,1.3,9,2.43,18,3.62,26.94,1.37,10.41,2.73,20.82,4.13,31.47ZM346.22,487a19,19,0,0,0,0,2c1.78,14.7,3.54,29.4,5.4,44.08a132.06,132.06,0,0,0,2.33,14.6c1.59,6.52,8.11,8.15,12.85,3.59a114.17,114.17,0,0,1,9.95-9c12.19-9.21,26.55-12.17,41.31-13.57,2.74-.27,3.83-1.13,4.23-3.69,1.54-10,3.19-19.93,4.79-29.89.39-2.44.75-4.88,1.19-7.77a153.86,153.86,0,0,1-41,4.63C373.48,491.81,359.8,490.72,346.22,487ZM784.05,614.12c0,1.72,0,3.45,0,5.17,0,4.19.2,4.52,4.25,3.61q32.06-7.21,64.08-14.56c19.33-4.45,38.63-9.05,58-13.48,17.44-4,34.91-7.84,52.37-11.76,7.59-1.7,7.59-1.71,7.94-9.5.08-1.61.18-3.22.27-4.83.34-5.73.34-5.73-5.1-4.85-.91.14-1.81.28-2.7.49-23.53,5.51-47,11.18-70.59,16.53-33.06,7.49-66.18,14.76-99.27,22.1C784.28,605,784.27,605,784.05,614.12Zm173.36,298.2c-.26-1.63-.44-3.3-.78-5-1.5-7.18-3.16-14.34-4.51-21.56-.36-1.92-.92-2.72-2.92-2.95-10.15-1.17-20.29-2.49-30.42-3.78q-17.26-2.19-34.53-4.42-20.34-2.62-40.67-5.26c-3.26-.42-6.52-.73-10-1.11a15.1,15.1,0,0,0-.1,2.37c1,7.28,2.28,14.54,3,21.84.34,3.37,1.77,4.43,4.88,4.8,10.38,1.21,20.73,2.67,31.09,4q22.89,3,45.79,5.89C931.08,908.87,943.94,910.56,957.41,912.32Zm-149.64-19c-1.28-9.2-2.43-17.95-3.83-26.65-.14-.9-1.73-2.11-2.77-2.25-11.6-1.58-23.24-2.94-34.85-4.44-20-2.59-40.08-5.27-60.13-7.79a3.37,3.37,0,0,0-2.77,1.65c-2.69,8.12-5.16,16.32-7.85,25ZM507.38,923.88c0,1.91-.09,3.26,0,4.6.53,6.64,1.23,13.28,1.63,19.93.32,5.55.05,11-6.21,13.63-4.49,1.87-2.15,5.79-2.35,8.78-.06.81,2.48,2.35,4,2.65,10.91,2.2,21.85,4.27,32.83,6.09a9.86,9.86,0,0,0,6.48-1.1c10.41-6.93,20.62-14.16,30.87-21.35A16.65,16.65,0,0,0,577,954.5C554.28,942.7,532,931.47,507.38,923.88Zm-32.83-73.11c0-1.51.13-3.22,0-4.9-.51-5.49-1.22-11-1.7-16.44-.57-6.47-.5-6.47-6.83-7.15l-.69-.06q-29.55-3.69-59.11-7.39c-6-.74-12-1.37-18.21-2.08-1.71,8.19-3.37,16-5,23.86-.31,1.53.08,2.51,2.05,2.74q20,2.37,40,5C441.51,846.44,458,848.61,474.55,850.77ZM581.1,553a12,12,0,0,0,2.09,1c19.66,1.93,39.3,4,59,5.58,4,.32,8.39-1,12.33-2.38,5-1.71,9.59-4.36,14.47-6.34,3.18-1.28,4.39-3.23,3.86-6.64-1-6.25-1.73-12.52-2.47-18.79-.63-5.39-.55-5.51-6-5.82q-18.93-1.07-37.87-1.92c-3.6-.17-7.22,0-10.84,0,0,2.1,0,3.7,0,5.3.12,3.21.28,6.43.45,9.64.41,7.42-.45,8.6-7.57,10.69-6.26,1.83-12.54,3.61-18.73,5.66C587,549.87,584.5,551.39,581.1,553ZM766.83,299.36c-.25,1.16-.42,1.8-.51,2.46-2.41,17.3-4.84,34.59-7.19,51.9q-4.75,35-9.4,70-4.79,36.23-9.43,72.46c-.66,5.13-1.3,10.27-1.65,15.43-.21,3.21,1.1,4.19,3.61,2.35a12.2,12.2,0,0,0,4.42-6.78c1.67-8.32,2.77-16.76,3.94-25.18,3-21.52,6-43,8.74-64.57q5.16-39.84,10-79.72,1.68-13.68,2.92-27.43C772.65,305.92,771.79,301.84,766.83,299.36ZM298,824.34c-.52-7.48-.91-14.45-1.62-21.39-.08-.78-1.93-1.8-3.07-2-5.23-.78-10.49-1.29-15.74-1.92q-24.28-2.91-48.58-5.84c-1.88-.23-3,.28-3.52,2.28-1.23,4.89-2.64,9.74-3.92,14.61-.47,1.81-.78,3.66-1.17,5.52ZM561.4,312.78c-6.82-.23-13.54-.69-20.25-.52-1.64,0-3.87,1.74-4.73,3.29q-16.95,30.52-33.49,61.3a27.37,27.37,0,0,0-2.84,9.13c-.73,5.35-.88,10.78-1.31,16.64C503.28,400.42,560.21,318.37,561.4,312.78Zm171.24,94.89-.85-.21c-7.63,11.54-14.93,23.31-23,34.56S689.64,461.78,679,470.88a16.42,16.42,0,0,0,5.54,1.16c11.25.4,22.53.5,33.76,1.27,3.72.26,4.77-.76,5.25-4.13,2.14-14.77,4.5-29.51,6.73-44.26C731.14,419.18,731.86,413.42,732.64,407.67Zm-151.35,316c2.06,5.15,3.82,10.43,6.23,15.41,7,14.58,18.32,23,35,22.95a17.32,17.32,0,0,0,14.34-7c2.62-3.45,2.73-6.55-.41-9.52a43.76,43.76,0,0,0-9.08-6.72C613.19,731.14,597.72,727.19,581.29,723.68Zm-61.76,172.8c16.41-10.38,33.14-19.22,48.79-29.77-.12-.38-.23-.76-.35-1.14l-46.33-5.78c0,2.38.27,4.36-.1,6.21-.24,1.2-1.19,2.84-2.21,3.22-8.66,3.16-8.69,3.09-8.68,12.21a10.59,10.59,0,0,1,0,1.38C509.81,890,513.86,893.86,519.53,896.48ZM247.25,561.84c-6.37,3.09-12.26,3.7-18.24.46a4.53,4.53,0,0,0-3.34-.22c-5.29,1.84-10.4.22-15.61-.4-8.76-1.06-17.55-1.88-26.35-2.61a3.19,3.19,0,0,0-2.33,2c-.48,3.4-.5,6.86-.85,10.29-.31,3.07.81,4.26,4,4.45,11.47.68,22.92,1.68,34.38,2.5,8.78.62,17.57,1.15,26.7,1.74C242.77,573.72,244.57,568.08,247.25,561.84ZM423.54,959a21.52,21.52,0,0,0,2.92,1.13c15.73,2.64,31.46,5.3,47.2,7.85,4.77.78,5.73-.11,5-4.74a5.64,5.64,0,0,0-2.56-3.27c-3.59-2.25-5.33-5.22-4.82-9.5.81-6.78,1.55-13.58,2.4-21.12C456.69,938.42,440.77,948.84,423.54,959ZM727.71,580.58c13,0,22.46-4.84,30.63-12.67,1.93-1.84,2-3.34-.19-5.06-6.48-5.15-13.63-9-21.88-10.14-7.27-1-13.65.95-17.87,7.51-2.87,4.46-5.13,9.32-2.58,14.51C718.47,580.12,723.76,580.75,727.71,580.58ZM356.33,835.19c1.57-8.72,3.1-17.23,4.67-26l-34.1-4.15c1.06,8.57,2,16.54,3.11,24.48a3.52,3.52,0,0,0,2.29,2.32C340.1,833.06,347.93,834.05,356.33,835.19ZM915,519c.94.91,1.79,2.39,2.87,2.58a4.34,4.34,0,0,0,3.58-1.43,28.66,28.66,0,0,0,2.95-5.82q12.26-27.72,24.46-55.46c4.26-9.67,8.52-19.34,12.69-29,.43-1,.77-2.71.25-3.39-1.58-2-5.5-1.17-6.62,1.29-4.23,9.3-8.48,18.58-12.65,27.9q-11.76,26.22-23.4,52.47C917.66,511.47,916.53,515,915,519Zm44.77-122.74c-2.62-2.5-5-4.62-7.21-6.88q-24-24.26-47.83-48.6c-2-2.06-3.58-2.69-5.61-.23a20.69,20.69,0,0,1-2.58,2.18,27.32,27.32,0,0,0,2.2,3.11q26,27.28,52.14,54.48c.65.68,2.47,1.14,3.14.72A51.5,51.5,0,0,0,959.78,396.29ZM673.9,520.34l-.76.64a42.69,42.69,0,0,0,0,5.06q1,8.72,2.31,17.41c.72,4.9.2,6.36-4,8.64-4,2.2-8.1,4.35-12.28,6.22-5.76,2.57-11.54,5.54-18.1,4.82-16.79-1.82-33.56-3.86-50.33-5.85-3.68-.44-7.34-1.06-11.35-1.65,1.09,3.71,4,4.28,6.56,4.71,16.54,2.75,33.09,5.34,49.65,8a35.21,35.21,0,0,0,22.08-3.52c5.42-2.77,10.78-5.66,16.32-8.13,4.31-1.91,6.32-5,5.79-9.49-1-8.2-2.2-16.37-3.52-24.53C676.17,521.78,674.73,521.11,673.9,520.34Zm150.12-27c6.51-.81,12.55-1.42,18.54-2.4,1.29-.21,3.18-1.61,3.41-2.74.87-4.27-1.65-6.52-6-5.8-.79.13-1.57.33-2.36.45-13.24,1.94-26.34,1.76-39.15-2.63-2.06-.7-4-2.06-5.34,1.16-1.77,4.17-1.71,5.37,1.49,7.23a10.89,10.89,0,0,0,3.81,1.43C807.07,491.22,815.72,492.28,824,493.34Zm17.82,435.13,27.56-23.13-.39-1.13L837.76,900C839.11,909.46,840.4,918.46,841.84,928.47ZM337.15,567c5.73.41,11.54.87,17.36,1.2a2.63,2.63,0,0,0,2-1.06c1.64-2.82,3.1-5.74,4.87-9.09-12.29-1.68-11-12.13-13.69-19.35L339,539.91C338.4,548.93,337.8,557.61,337.15,567Zm462.16-20.1v3.34c0,6.62,1.34,8.79,7.88,9.28,7.88.59,15.83.27,23.75.12,2.24,0,4.34-1.17,4.8-3.71.49-2.77.69-5.58,1-8.47-6.63.45-12.67,1.24-18.7,1.15S806,547.54,799.31,546.9Zm41.8-52.37c-15.48,2.83-30.67,1.54-45.87-1.83,1,8.38,1.65,9.57,7.86,10.84,10.63,2.19,21.38,2.88,32.14.77C841,503.18,842.14,501.29,841.11,494.53Zm-487,77.81c-3.59-.37-6.86-.31-9.92-1.11-6.81-1.77-11.48.18-14.08,6.84-1.08,2.77-2.38,5.46-3.77,8.63,7.61.57,14.33,1.11,21.06,1.51a2.57,2.57,0,0,0,2.05-1.24C351.1,582.23,352.54,577.43,354.14,572.34ZM816.63,390.4c5,4.55,15.6,4.74,22.21,1.15,6.78-3.67,12.86-8,14.5-16.12l-.74-.95ZM843,478.91l.35-.93c-1.39-.9-2.66-2.2-4.18-2.64-5-1.45-10.17-2.64-15.29-3.83-2.88-.67-4.71.14-4.5,3.59a8.08,8.08,0,0,1-.76,2.57c-3.63-.31-7.33.13-8.15-4.67a2.15,2.15,0,0,0-1.6-1.36c-4.41.31-8.67,1.18-12.61,4.47C811.92,482.52,827.35,482.21,843,478.91ZM735.31,547.73c.11.2.16.46.32.58a2.54,2.54,0,0,0,.9.45c9.28,2.31,18.32,5.09,25.13,12.46a2.58,2.58,0,0,0,2.51-.07c3.11-2.92,2.75-9.07-.8-11.49-8.74-5.95-18.26-4.34-27.75-2.5C735.49,547.18,735.42,547.53,735.31,547.73Zm-466.2,33.85c.35.21.72.6,1.11.63,4.79.42,9.59,1,14.39,1,1.1,0,2.91-2,3.17-3.3.8-4,1-8,1.44-12.11C282.75,565.68,270.86,573.65,269.11,581.58ZM805.16,525.4a66.15,66.15,0,0,1,8.12-1.61c4.05-.3,8.18.15,12.19-.38a6.08,6.08,0,0,0,4.14-3.49c.34-1-1.36-3.2-2.65-4.22-3.38-2.68-7.55-2.55-11.54-2.08C810.27,514.22,805.19,520.4,805.16,525.4Zm113.7,11c0-4.56-3.34-7.76-8.14-7.73a8,8,0,0,0-7.84,7.87,8.14,8.14,0,0,0,8.29,8.14C915.7,544.64,918.84,541.25,918.86,536.39Zm-112.5-6.8c3.21,6.91,9,9.51,15.89,7.39,5.91-1.82,10.46-7.88,9.42-14l-8.66,7.6c-.24-.62-.44-1.12-.63-1.62-1-2.59-2.38-2.84-4.12-.76a15.74,15.74,0,0,1-1.25,1.64,19.49,19.49,0,0,1-2.08,1.48,8.59,8.59,0,0,1-1-2.22c-.41-2.65-2.3-3.52-4.51-1.93C808.42,527.88,807.49,528.69,806.36,529.59ZM390.67,798.09c-.55,3.18-1.18,6.79-1.82,10.49l29,4Zm485-241.2c16.48,4.05,33.21,5.76,49.42,2.61Zm88.6-139.95c2.7.08,5.75-3,5.72-5.78,0-2.43-3.14-5.36-5.77-5.42s-5.64,2.73-5.63,5.39A6.17,6.17,0,0,0,964.27,416.94Zm-73.86-81c2.73,0,4.77-1.57,4.85-3.78.1-2.51-2.68-5-5.53-5.08s-3.93,1.59-4.05,4.06A4.57,4.57,0,0,0,890.41,335.91ZM935.9,567.54,960.1,561c-5.27-.47-10.41-.5-15.55-.45a3.59,3.59,0,0,0-2.21.61C940.06,563.29,937.9,565.54,935.9,567.54ZM191.49,554l-.14,1.31,15.25,2.5c.1-.62.19-1.25.29-1.88C202.23,552.16,196.5,555.44,191.49,554ZM336.82,838.28l.06-1.12-5.95-2.34c.34,2.28.56,3.73.82,5.5Z"/><path class="cls-1" d="M773.68,210.52c0,11.48.1,22.73,0,34-.09,7.7-.22,15.42-.85,23.1-.62,7.47-7.61,10.56-13.56,5.78a146,146,0,0,1-15.09-14.56c-5.08-5.47-9.89-11.22-14.48-17.11a13.62,13.62,0,0,1-2.79-7.13c-.37-7.11-.29-14.26-.06-21.38.1-3.17-.86-4.28-4-4.28-16.45,0-32.91,0-49.36-.31-39.69-.69-79.38-1.6-119.06-2.28-13.91-.24-27.82,0-42.13,0-.1,2.07-.18,3.4-.21,4.72-.44,17.13-.83,34.27-1.34,51.4-.14,5.06-1.52,6.06-6.66,5.87-6.23-.23-10.8-3.39-14.68-7.93-6.05-7.08-12-14.25-18.22-21.18a18,18,0,0,1-4.57-12.27c-.08-5.53-.2-11.06,0-16.57.12-3-.56-4.24-3.88-4.24-18.76,0-37.51-.25-56.27-.5-13.92-.18-27.84-.5-41.76-.79-4.81-.09-6.3-.77-6.73-5.51-.68-7.5-.52-15.09-.55-22.64,0-3.65,2.42-4.94,5.71-5,4.83,0,9.67-.06,14.5-.09h3.22c0-5.35,0-10.37,0-15.39q-.33-51.6-.66-103.22c0-6,.25-12,.28-18,0-2.54,1-3.86,3.62-3.85a22.93,22.93,0,0,0,2.75-.16c3.27-.33,5,.85,4.79,4.41-.14,2.29,0,4.6.07,6.89.06,1.91.95,3,3,2.9,4.47-.12,9-.07,13.43-.34.68,0,1.71-1.4,1.82-2.24.34-2.5.31-5,.41-7.58.07-1.9.85-3,2.94-2.95,4.72.06,9.44-.15,14.14.12a4.31,4.31,0,0,1,3,2.59,26.47,26.47,0,0,1,.81,6.79c.06,2,1,3,2.91,3a75,75,0,0,0,8.61,0A3.74,3.74,0,0,0,445,42.22a23.41,23.41,0,0,0,.61-6.15c0-3.17,1.37-4.07,4.44-4,5.5.08,11-.1,16.49-.53,3.66-.29,5,1.3,5.18,4.62,0,.35.07.69.1,1,.29,2.56-.09,6.93,1,7.33,3.17,1.17,6.92.88,10.44.85.68,0,1.81-1.39,1.93-2.25a53.43,53.43,0,0,0,.63-8.93c-.08-3,1.12-4.18,4.06-4,2.18.11,4.38,0,6.56-.1a8.75,8.75,0,0,1,7.81,3.56c6.65,8.66,13.55,17.14,20,26,12.67,17.49,25,35.22,37.69,52.71a17.48,17.48,0,0,0,7,5.87c3.89,1.62,5.1,4.23,5.25,8,.22,5.39.53,10.78.72,16.18.3,8.62.62,17.23.75,25.85,0,2.41.92,3.39,3.23,3.31.69,0,1.38.08,2.07.09q31.4.42,62.81.83c13.57.2,27.14.48,40.72.72,1.33,0,2.67,0,3.54,0-.61-15.84-1.24-31.18-1.75-46.52a17.07,17.07,0,0,1,.85-5.72c.86-2.64.74-4.83-1.13-7-2.88-3.43-5.43-7.14-8.4-10.49-.83-.94-2.59-1.17-4-1.49a25.61,25.61,0,0,0-3.83-.36c.75-1.22,1.47-2.45,2.25-3.64a4.17,4.17,0,0,1,.88-.77c-.81-4.27-4.07-6.29-7.31-7.7,2.14-6.47,3.13-12.3-2.87-18.13,6.71.58,10.73-1.11,7.71-8.81l1,0a38.49,38.49,0,0,0,4.24,2.17,4.53,4.53,0,0,0,2.86.14c.32-.11.23-1.58.25-2.42,0-1.42,0-2.85,0-4.27l1.24-.18c1.3,2.32,2.29,4.91,4,6.86a21.06,21.06,0,0,0,6.83,4.63c-.94-5.95.32-12.63-7-16a27.75,27.75,0,0,0,2.71-2.57c1.74-2.21,2.77-4.59.6-7.1-2-2.32-1.25-3.31,1.47-3.86a6.22,6.22,0,0,0,4.89-8,25.34,25.34,0,0,1-.54-3.49l1-.62a33.76,33.76,0,0,1,2.75,2.87c3.27,4.37,5.82,4.14,8.13-.68.47-1,1.52-1.67,2.63-2.85.9,3.78,1.63,6.87,2.45,10.38l3.1-3.88.87.29c.1,1.9.19,3.8.29,5.7l1.13.07c1.17-4.33,5.21-8,2.44-13.27a2.32,2.32,0,0,1,.08-1.76c.82-.21,2-.49,2.53-.07,3.77,2.94,6.47-1.4,9.8-1.49.31,0,.4-3.12.84-4.72a12.76,12.76,0,0,1,1.54-2.79,10.42,10.42,0,0,1,1.92,2.62c.58,1.78.28,4.11,1.33,5.4.86,1,3.15,1,4.83,1.23a20.37,20.37,0,0,0,3.4-.07c-.48,1.05-1,2.11-1.77,3.91,0-.7-.11-.38,0-.28,3.36,3.09,5.1,6.64,3.9,11.38-.21.86,1,2.08,2.13,3a36.16,36.16,0,0,1,8.35-15.93c.83-.94.12-3.21.12-5.08,2.25.47,5.34,2.11,7.3,1.23s2.78-4.29,4.29-6.91a10.12,10.12,0,0,1,1.09,2.12c1.33,5.46,5.7,6.78,9.94,3a19.87,19.87,0,0,1,3.21-1.91c1.53,3.58-4,6.28-.14,9.77,2.2,2,1.32,6.7,6.65,7.07-5.89,5.73-5.68,12.77-7,20.59,5-4.76,11.68-6.24,13.49-13.87,2.95,9.87,8.4,7.26,14.21,3l.32,1a13.3,13.3,0,0,0-1.19,3.25c-.19,2,0,4.11,0,6.17,1.73-.07,3.45-.12,5.17-.25a3.81,3.81,0,0,1,2.25.16A22.34,22.34,0,0,1,813.76,59c-2.47,1.88-3.8,5.34-2.68,8.12a3.48,3.48,0,0,0,2.22,1.57,25,25,0,0,0,4.35.26c-.74,3.29-3,4-5.39,4.11-2.54.16-4,1.2-4.77,3.62-.52,1.62-1.53,3.07-2.21,4.65-.85,2-1.62,3.93,1.27,5.08a2.13,2.13,0,0,1,1,1.86c-.14.51-1.11,1-1.79,1.13-5,1-12.23,8.14-12.78,12.89-.08.62.53,1.33.86,2,.5,1,1,2,1.55,3a12.31,12.31,0,0,1-3.05.81c-3.73,0-10.22,5.09-10.92,8.85-.11.55.31,1.21.49,1.81.77,2.57,2.26,5.15,2.19,7.7-.39,14.47-1.12,28.94-1.82,43.4-.25,5.14-.35,5,4.69,5.22,15,.79,30.08,1.71,45.11,2.63,5.51.34,11,.6,16.49,1.34,5.68.76,7.66,3.12,7.38,8.82-.32,6.65-1.21,13.28-1.65,19.93-.21,3.13-1.87,4.21-4.67,4.24-6.33.08-12.66.25-19,.19-6.78-.07-13.56-.34-20.34-.58-11.37-.4-22.75-.85-34.12-1.26C775.25,210.38,774.36,210.49,773.68,210.52Zm-412.22-35c0,8,0,15.22,0,22.46,0,1.85.77,2.69,2.66,2.76,3.22.12,6.43.56,9.64.59,22.55.21,45.11.29,67.66.51,20,.2,40,.53,60.06.78q30.7.39,61.43.75c19.33.24,38.66.52,58,.7,28.07.26,56.15.43,84.22.68q38.83.33,77.66.82c3.23,0,4.22-1,4.12-4.15-.18-5.86-.13-11.74.06-17.6.08-2.49-.89-3.15-3.18-3.25-14-.64-28-1.75-42-2-32.56-.66-65.13-1-97.69-1.34q-36.42-.42-72.83-.68c-43.73-.36-87.46-.78-131.19-1-24.4-.14-48.8,0-73.19,0Zm340-89.12-1.19.95c-1.16-1.34-2.34-2.68-3.5-4-3.57-4.14-6.93-8.5-10.79-12.35a7.8,7.8,0,0,0-9.57-1.39c-3.52,1.84-5.59,4.76-5.46,8.87A27.3,27.3,0,0,0,676,93.59c4.5,6.38,9.12,12.68,13.51,19.13,1.23,1.81,2.38,2.18,4.54,1.91,9.33-1.16,18.68-2.56,28.06-2.91,17.61-.64,35.16.36,52.43,4.42,1.27.3,3.5-.16,4.15-1.08,6.75-9.57,13.53-19.15,19.76-29.06,4.28-6.82,7.41-14.29,7.82-22.55a9.33,9.33,0,0,0-5-8.83c-3.39-2-6.88-1.59-10,.65a15.94,15.94,0,0,0-3.81,3.45c-2.61,3.63-4.91,7.48-7.49,11.14a53.83,53.83,0,0,1-4,4.55l-1-.56a16.16,16.16,0,0,1,0-2.87c1.15-6.09,2.44-12.14,3.56-18.23,1.07-5.84,3-11.59,1.6-17.7-1.26-5.46-5.56-9.12-10.72-8.78-7.32.49-14.6,7.83-15.18,15.56,5.77.46,10.85,2.49,14.28,7.67,2.56-2.88,4.25-6.38,9-5.31-1.08,1.88-2.24,3.85-4,4.94-3.15,2-4.59,4.1-2.76,7.86a13.64,13.64,0,0,1,.85,5.41c.32,9.79-2.23,19.1-4.85,28.38-.23.82-1.2,1.43-2.54,3a21,21,0,0,1-.36-3.85c.37-3,.89-5.9,1.33-8.85,1.18-7.84,2.76-15.64,1-23.61-1.14-5.21-3.54-9.32-9-10.64a13,13,0,0,0-14,6.57A74.11,74.11,0,0,0,738,67.74c-1.32,4.89-1.9,10-2.78,14.85-2.91.2-3.06-1.14-3-3,.31-11,2.89-21.34,9-30.67.82-1.25,1.58-3.1,1.29-4.44-.82-3.77-1.63-7.73-3.48-11-4.25-7.65-11.26-7.35-16-.29-3.61,5.38-4.45,11.5-3.41,17.85.92,5.66,2.08,11.29,2.93,17,.47,3.07.51,6.2.74,9.31l-1.74.59c-1-1.55-2.47-3-2.89-4.65-2-8-3.48-16.15-5.76-24.06a23.16,23.16,0,0,0-5.35-8.61c-2-2.15-4.76-3.8-8.07-2.45a11.56,11.56,0,0,0-7.16,11.16,67.79,67.79,0,0,0,1.92,12.21C696.43,69.8,699,78.1,701.43,86.43ZM480.72,171.62v-.23c5.06,0,10.12,0,15.18,0,3.16,0,4.52-1.28,4.35-4.57q-.48-9.28-.52-18.6c-.07-29.46,0-58.91-.11-88.36,0-7.81-.4-15.61-.74-23.41,0-.95-.68-2.42-1.41-2.71-4.88-2-8.09.2-8.15,5.29,0,.11,0,.23,0,.34-.12,8.87-.77,9.49-9.74,9.31-10.44-.22-10.56-.22-10.43-10.58,0-2.92-.9-3.89-3.69-3.87-4.76,0-5,.21-5,5,.23,43,.77,86,3.28,129,.15,2.63,1.18,3.41,3.55,3.38C471.75,171.58,476.24,171.62,480.72,171.62Zm-32-136c-.24,2.41-.57,4.57-.66,6.74-.16,3.7-2.28,5-5.65,4.92-2.76,0-5.52-.08-8.28,0-4.74.11-5.16-.25-5.7-5.12a15.91,15.91,0,0,0-.75-4.4,4.93,4.93,0,0,0-2.56-2.65c-3.23-1-4.16,0-4.18,4.51q-.25,48.82-.38,97.64c0,9.89.18,19.78.37,29.67.1,5.11.61,5.53,5.6,5.4,9.65-.26,19.3-.67,29-.72,3.09,0,3.54-1.09,3.45-3.87-.57-16.9-1.17-33.8-1.33-50.7-.25-24.61-.11-49.23-.2-73.85,0-2.46-.41-4.92-.65-7.55Zm-65.11,68.25h.66v52.82c0,3.91.06,7.82.07,11.73,0,2.61.93,4,3.89,3.94,8.62-.15,17.26-.14,25.89,0,2.65,0,3.3-1,3.29-3.49q-.13-24.32-.07-48.62.06-33.66.25-67.32c0-5.17.46-10.34.43-15.51,0-.89-1.44-1.77-2.22-2.66-.8.76-2,1.39-2.31,2.31a17.32,17.32,0,0,0-.21,4.46c-.14,4.23-1,5.39-5.19,5.75-4.92.43-9.87.51-14.8.83-3,.2-4.17-1.37-4.23-4.12a74.59,74.59,0,0,0-.23-7.92,3.28,3.28,0,0,0-2.24-2.23c-.73-.06-2.14,1.25-2.26,2.1a67.14,67.14,0,0,0-.69,9.62C383.62,65,383.65,84.42,383.65,103.86Zm396.15,35.9c.33-5.37.66-9.95.86-14.53.11-2.59-.82-4.43-3.77-4.8-10.34-1.31-20.66-3.66-31-3.85-16.87-.31-33.77.78-50.65,1.26-2.88.08-4.49,1.19-4.39,4.35.07,2-.37,4.12-.38,6.18-.06,6.26,0,12.53,0,18.8l.84.42c1.24-1.22,2.43-2.52,3.75-3.66,3.1-2.69,6.3-5.28,9.4-8,2.18-1.89,4.08-1.22,5.6.7,3.26,4.13,6.45,8.32,9.5,12.6,2.21,3.1,2.83,3.19,5.36.41,3-3.31,6-6.73,9.26-9.73,8-7.27,6.84-8.46,15.68.87,2.31,2.44,4.33,5.16,6.64,7.93,1-1.14,1.55-1.87,2.21-2.48,3.25-3,6.44-6.17,9.84-9.06a5,5,0,0,1,6.88-.16A49.71,49.71,0,0,0,779.8,139.76Zm-39,2.61a24.11,24.11,0,0,1-2.45,3.5c-4.47,4.29-9,8.56-13.58,12.7-2.2,2-4.64,2-6.69-.34s-4.27-5.09-6.27-7.74c-1.76-2.32-3.34-4.77-5.32-7.62-4.85,4.75-9.3,8.89-13.44,13.32-.93,1-1.12,3-1.06,4.5.11,2.86.8,5.69,1,8.55.21,3.44,2.09,4.4,5.23,4.46,23.69.42,47.38,1,71.07,1.4,8,.15,8.36.09,9.09-7.78.72-7.66,3-15.94-4.68-21.9a.93.93,0,0,1-.21-.27c-1.51-2.31-2.79-1.91-4.53,0a127.74,127.74,0,0,1-10.23,10.19c-3.37,2.91-4,2.7-7-.69C748.25,150.92,745,147.11,740.78,142.37Zm10.29,68.16V210H736.93c-1.68,0-3.18,0-3.22,2.45-.12,6.89-.71,13.79-.49,20.67a14.83,14.83,0,0,0,2.85,8.22c5.8,7.41,12,14.51,18.25,21.57a75.26,75.26,0,0,0,9,8.53,5.8,5.8,0,0,0,4.74.92c.79-.27,1.18-2.75,1.18-4.23,0-6.09-.33-12.18-.35-18.28,0-11.95,0-23.9.13-35.85,0-2.4-.79-3.56-3.41-3.48C760.74,210.64,755.91,210.53,751.07,210.53ZM507.54,232.87h-.38c0-7.48,0-15,0-22.43,0-1.79-.13-3.46-2.68-3.51-9.89-.2-19.77-.48-29.66-.76-1.83,0-2.83.6-2.76,2.57.06,1.61,0,3.22,0,4.83,0,5.26-.22,10.54.06,15.78a10,10,0,0,0,2.12,5.52c5.62,6.83,11.44,13.5,17.28,20.13a84.34,84.34,0,0,0,8.61,8.91,8.24,8.24,0,0,0,5.61,1.48c.72-.07,1.69-2.75,1.72-4.26C507.62,251.71,507.54,242.29,507.54,232.87Z"/><path class="cls-1" d="M313,228.77a47.06,47.06,0,0,1-3.85-5c-.72-1.23-1.6-3.44-1-4.13a6.46,6.46,0,0,1,4.56-2.29c5,.14,14.21,8.2,15.33,13.12a9.26,9.26,0,0,1,.11,3.4c-.59,3.63-2.11,4.22-5.16,2.17-2-1.34-4-2.65-6-4l-.84.82c.73,1.44,1.41,2.91,2.21,4.31,7.37,12.94,7.14,25.58-1.6,37.78a24.45,24.45,0,0,1-5.59,5.53,5.54,5.54,0,0,0-2.61,5.8c.95,7.56.89,7.54,8.48,7.63q29.67.33,59.34.76c5.16.08,10.32.58,15.48.77,2.06.07,3,1,2.84,3-.43,7.57-.72,15.16-1.43,22.7-.11,1.22-1.88,2.54-3.18,3.3-1,.58-2.46.46-3.71.46q-86.12-.28-172.22-.57c-3.23,0-5-1.17-5-4.54,0-6.9,0-13.8,0-20.7,0-2.59,1.37-4.05,4-4.15,2.3-.09,4.6-.27,6.89-.27,15.3,0,30.61,0,45.91.14,2.72,0,3.34-1.17,4.48-3.4,3.38-6.57,1.3-10.73-3.78-15.55-8.58-8.16-9.88-23.41-4.07-34.34a6.21,6.21,0,0,0,.83-1.5c.27-1.45.4-2.92.59-4.38a29,29,0,0,0-4,1.29,25.46,25.46,0,0,0-2.74,2.09c-3.6,2.5-6.94.92-7.5-3.56-.52-4,1.55-7.24,4.13-9.82a49.39,49.39,0,0,1,8.51-6.36c3-2,6.29-1.71,9.51-.08s3.44,2.76,1.15,5.44-4.44,5.33-6.66,8l1,1.35c6.25-5.64,13.07-9.74,21.61-10.43s15.74,3,23.09,6.53Zm-100,69.5c0,5.73,0,11.9,0,18.06,0,4.47,0,4.5,4.59,4.5l71.05-.05c7.12,0,14.25,0,21.38,0,1.62,0,3,0,3-2.18,0-6.52,0-13,0-20.36Zm79.72-17.33c1.92-.27,3.87-.42,5.77-.83,14.65-3.14,23.66-16.94,19.85-31.08-3.41-12.66-13.16-17.72-25.19-19.68-11.24-1.84-24.24,6.6-27,17.63C261.72,264.87,274.15,280.7,292.74,280.94Zm-17.52,13.8h24.17c1.69,0,4,.37,3.22-2.44-.62-2.27.69-6-4-5.79-5.33.2-10.69-.05-16,0-1,0-2.54.18-3,.85A78.8,78.8,0,0,0,275.22,294.74Z"/><path class="cls-1" d="M199.06,423.36c.27.6.43.89.54,1.2.64,1.9,1,5.18,2,5.42a9.43,9.43,0,0,0,6.6-1.41c1.85-1.21,2.92-1.54,4.78-.26,4.06,2.77,5.19,2.4,7.81-1.7a24.2,24.2,0,0,1,2.78-3c1.45,3.79.66,6.44-1.68,8.58-2.93,2.68-5.73,2.22-10.77-1.46-7.77,4.16-10.81,4.21-13.52.23C195.79,428.32,196.22,425.74,199.06,423.36Z"/><path class="cls-1" d="M207,419a38.58,38.58,0,0,1,4.93.06,11.35,11.35,0,0,1,2.92,1.28c-.61,1.28-.93,3-1.94,3.72a3.79,3.79,0,0,1-3.57-.17c-1.2-.87-1.86-2.48-2.75-3.77C206.71,419.75,206.84,419.38,207,419Z"/><path class="cls-1" d="M208,409.76c-1.14.92-1.91,2-2.53,1.91a2.78,2.78,0,0,1-1.89-1.85c-.1-.52,1-1.78,1.67-1.8S206.78,408.93,208,409.76Z"/><path class="cls-1" d="M221.59,410.68c-1.32.89-2.21,1.89-2.67,1.72a2.91,2.91,0,0,1-1.52-2.06c-.08-.57.83-1.26,1.3-1.9Z"/><path class="cls-1" d="M602.72,495.64c0,4.15-2.89,7-7.22,7a6.14,6.14,0,0,1-6.33-6.24c0-4.06,2.62-6.83,6.51-7C600,489.3,602.67,491.65,602.72,495.64ZM595,492c-.69.86-2.33,2.05-2.69,3.54-.52,2.17.46,4.13,3.24,4.17,2.58,0,4.69-1,4.92-3.71S598.45,492.49,595,492Z"/><path class="cls-1" d="M623,539.67a247.83,247.83,0,0,1,41.65,4.45C661,546,625.49,542.31,623,539.67Z"/><path class="cls-1" d="M479.5,139.22c2.65,0,5.3.06,7.94,0,3.27-.08,5,1.66,5.22,4.71a72.13,72.13,0,0,1,0,10.29,3.31,3.31,0,0,1-2.34,2.16c-5.61.28-11.24.33-16.86.35-3.2,0-5.24-1.54-5.35-4.91a86.81,86.81,0,0,1,.08-10.33c.07-.83,1.7-2,2.72-2.15A85.17,85.17,0,0,1,479.5,139.22Zm1.31,14.57v0c2.3,0,4.61.12,6.89-.06.85-.06,2.33-.79,2.34-1.26a54.11,54.11,0,0,0-.39-8.91c-.09-.61-1.77-1.41-2.73-1.43-3.44-.08-6.89,0-10.32.27-6.1.46-6.1.53-6,6.69.1,4.51.3,4.72,4.66,4.73C477.14,153.8,479,153.79,480.81,153.79Z"/><path class="cls-1" d="M441,156.43c-2.87,0-5.79.33-8.58-.14-1.47-.24-3.67-1.71-3.86-2.9a65.18,65.18,0,0,1-.56-12.18c0-.7,1.95-1.89,3-1.92,6-.18,11.92-.21,17.87.07a4.31,4.31,0,0,1,3,2.81,68.6,68.6,0,0,1,.4,11.64c-.05.94-1.66,2.42-2.7,2.55a68.14,68.14,0,0,1-8.58.13Zm-1-2.75v0h1.73c8.88-.17,8.14,1.6,7.95-8.39,0-2.57-1.28-3.48-3.64-3.43-2.87.07-5.75.05-8.62.12-8,.2-8.24.55-7.59,8.68.16,2,1,3,2.93,3C435.19,153.69,437.6,153.68,440,153.68Z"/><path class="cls-1" d="M401.73,155.86c-2.52,0-5.06-.15-7.58,0-3.27.24-4.76-1.59-5-4.37a65.3,65.3,0,0,1-.11-10.65,3.59,3.59,0,0,1,2.62-2.27c6.31-.18,12.63-.17,18.93.1a3.91,3.91,0,0,1,2.65,2.74c.35,3.87.18,7.79.24,11.69,0,1.93-.95,2.67-2.77,2.66-3,0-6,0-9,0Zm-.39-2.8v.12c2.18,0,4.37-.07,6.55,0,2.51.1,4-1.06,3.28-3.47-.85-2.89,2.18-7.58-3.2-8.43-3.13-.49-6.42,0-9.64.06-7.46.2-7.72.56-7,7.94.25,2.59,1.28,4,4.13,3.79C397.42,152.93,399.38,153.06,401.34,153.06Z"/><path class="cls-1" d="M274.56,245.53c2.85,1.26,5.77,2.37,8.53,3.79,10.19,5.27,8.3,5.16,14.26-3.41,1.24-1.78,2.67-3.43,4.06-5.1.26-.32.74-.45,1.79-.26-.92,1.87-1.84,3.73-2.74,5.6-1.73,3.57-3.64,7-5.11,10.72-1.68,4.2-2.61,4.51-6.17,1.93-4.08-3-8.4-5.56-12.51-8.47a21.75,21.75,0,0,1-3.19-3.43Z"/></g></svg>