<svg xmlns="http://www.w3.org/2000/svg" viewBox="0 0 938 952"><title>cientify</title><g id="Capa_7" data-name="Capa 7"><path d="M759,771.18C770.45,820,776.27,868.71,781.66,918c4.66.21,8.13.48,11.59.51,30.4.28,60.79.38,91.18.86A44.3,44.3,0,0,1,903.05,924c-1.71.87-3.41,2.44-5.15,2.49-9.47.27-18.95.21-28.42.2q-117.26-.08-234.5-.19c-25.27,0-50.57.69-75.79-.4-81.25-3.51-162.53-1.2-243.79-1.93q-27.84-.25-55.67.22c-7.82.13-15.62,1.54-23.45,1.65-6.24.09-12.5-1.28-18.76-1.35-29.21-.35-58.42-.26-87.63-.73-30.74-.49-61.47-1.42-92.19-2.26-2-.06-4-1-8.4-2.19,10.33-5.07,19-2.61,27.18-3.38s16.4-1.51,25.44-2.35c-1.14-2.18-2.31-4.32-3.4-6.51-2.39-4.81-3-9.65-.79-14.8C83.22,879.43,88,866.05,94,853.26c15.25-32.45,31.05-64.62,46.56-96.94,3.74-7.81,7.18-15.76,10.68-23.46l-2.59-12.42c-6.06-5.5-9.47-12.5-8.73-21.59.59-7.27,4-12.27,10.56-14.12,15.87-4.49,31.94-4.87,47.47,1.44,4.14,1.69,7.47,5.34,10.65,7.7,1,9.08-.11,16.52-5.57,22.22-6.71,7-7.17,14.46-3.76,22.81,6.53,16,13,32.08,19.67,48.06,4.68,11.26,9.57,22.43,15.37,36,3.88-17.44,5.43-33.07,8.21-48.47q4.29-23.75,9.46-47.35c3.38-15.33,7.29-30.55,11-45.81,3.83-15.6,7.75-31.18,12-48.38-5.61,2.86-10.31,5.11-14.87,7.6-16.22,8.82-33.55,14.69-52,13.05-40.56-3.6-73.36-20.12-90.93-59.39-7.73-17.25-7.52-35.48-4.56-53.41,5.37-32.55,21.34-60.64,39.6-87.53,19.21-28.29,43-52.35,68.93-74.41,6.89-5.86,13.12-12.49,19-18.11,8.55-3.08,14.53,2.41,22.08,3.82l23.19-20.3c1.47-7.62,2.72-14.56,4.15-21.46,2.77-13.41,10.71-22.5,23.33-27.62,1.82-.73,3.6-1.54,5.46-2.35V264.94l-2,.47c-2.4-5.62-5.52-11.06-7.1-16.91-5.61-20.84-12-41.61-10.37-66.14l6.65-5.14c-1-11.52-2-23.75-3.06-36.83a5.9,5.9,0,0,1,2.22-5.11l.06-.05a4.87,4.87,0,0,1,7.59,2.16c4.59,13,1.43,27,6.13,39.49l7.11-.41c.47-3.19,1.23-6.16,1.3-9.15.23-9.07.15-18.15.28-27.23,0-2.74.09-3.62,1.42-5.61a5.76,5.76,0,0,1,7.09-2.1h0a5.41,5.41,0,0,1,3.24,5v37.07l8.4,8.83c-.8,10.86-1.57,22.6-2.53,34.32-.81,9.8-2.05,19.56-2.67,29.37-.48,7.45-2.47,13.94-8.82,18.21v26.71c3.95,1.34,7.63,2.49,11.25,3.82,10,3.71,12.29,8.18,10.14,17.16l5.55,18c39.69-14.4,81.47-20.71,124.54-23.38.44-2.28.87-4.48,1.51-7.85-16.72-6.15-30.59-15.95-38.27-32.7-7.44-16.22-7.82-33.52-7.25-50.36-20.64-15.09-21.71-27.13-16.74-47-3-1.51-6.15-3.05-9.25-4.64a30.68,30.68,0,0,1-13.13-13.21c-6-11.14-5.13-15.07,5.53-22.85-1.05-3.57-2.53-7.21-3.14-11s-1.07-7.92-.35-11.65C406,94.53,410.8,91.7,423.83,94.05c.17-3.1.14-6.13.56-9.11.59-4.25,1-8.66,2.4-12.66,3.87-10.85,10.54-13.44,21.27-8.8,1.09.47,2.15,1,3.12,1.43,2.12-5,3.77-10.19,6.4-14.83,5.68-10,13-10.75,20.66-2.37,1.59,1.74,2.93,3.69,4.06,5.13,3.74-4.93,7.08-10.34,11.4-14.79,7.71-7.95,14-7.35,20.65,1.2,1.18,1.52,2.09,3.27,3.47,5.46,6.1-5.86,10.13-14,19.38-14C546.81,33,547.38,42.11,550.55,48h12.64l12.25,17.12,21.87-7.53c8-12.11,15.78-18.83,32-6.52,13.35-11.58,21.59-7.17,29.37,2.79l11.74-2.38c8,4.11,10.84,10.46,12.81,17.07,4.41,1.08,9.46,1,12.67,3.44,3.45,2.61,5.17,7.51,8.49,12.73,4.88.76,11.15,2.2,14.35,9.44,2.76,6.23,2.37,12.11,0,18.17,21.8,3.07,23.93,12,9.6,30.31,13,12.56,11.83,21.39-4,31.3-1.65,1-3.37,2-5.57,3.26-.74,6.6,1.78,14.66-4.36,19.73-4.38,3.62-10,5.74-16.48,9.3-.57,4.49-2.28,10.74-9.5,12.47-5.68,1.35-11.54,1.94-18.4,3-3.86,16.67-19.16,13.87-32.26,16-7.07,12.2-16.66,20.84-32.82,18.71-1.7,19-3.29,36.86-4.94,55.35l26.32,3.79c22.43-38.22,58.84-50.89,98.76-56.56.76-.92,1.57-1.46,1.7-2.13,2.94-14.6,13.29-18.76,26.61-20.38,16.93-2.06,33.7-.8,50.54.22,12.55.76,23.39,4.29,26.82,18.19L866,260.42c5.69,5.35,3.54,9.48.51,14.16-11.84,2.47-23.82-.49-36.16-1.72-.87,1.59-1.88,2.82-2.23,4.22a18.52,18.52,0,0,0-.08,4.53c1.44.72,2.42,1.54,3.5,1.69,8.17,1.14,16.43,1.8,24.54,3.28,9.61,1.75,11.31,7,5.58,16.09-12.47,3.3-24.79-1.76-36.79-1.68-1.15.77-2.09,1.05-2.4,1.66-6.19,12-16,16.77-29.29,15-16.36-2.17-32.86-3.64-48.42-9.67-8.54-3.31-16.91-7.16-20.34-16.67-1.31-3.61-1.89-7.48-2.77-11.14-25.82,0-59.21,17.75-74.58,40.07,3.65,1.4,7,2.94,10.53,4a251.08,251.08,0,0,1,95.35,52.86c23.24,20.49,42.13,44.71,58.12,71.19,16.8,27.82,29.9,57.16,36.27,89.22,5.45,27.44,10.58,55,8.43,83.1-2.94,38.43-11.83,75.31-32.5,108.57-13.29,21.4-30.77,36.71-56.68,40.27-1.17.16-2.34.34-3.49.6S760.87,770.66,759,771.18ZM319.15,492.44c3.37,9.22-.12,16.31-2,23.3-9.73,36.84-20.57,73.4-29.65,110.4q-16.28,66.33-30.13,133.24c-5.38,26.13-8.39,52.75-12.33,79.17-.82,5.51.36,10.68,2.38,16.08,7.47,20,21.41,37.85,19,61.75,22.33-1.52,43.84,2.3,65.2-2.64-.19-3.93-.05-6.72-.5-9.41a124,124,0,0,1,.54-43.42,14.23,14.23,0,0,1,7-10.31c2.3-1.38,4.77-2.44,7-3.58-2.56-7.65-5.11-14.67-7.23-21.82-2-6.79-5.71-28.45-2.61-46.82s15.48-38.27,29.43-53.68c9.26-10.24,19.26-19.79,28.7-29.86,7-7.47,14.56-14.65,20.29-23,13.2-19.32,18.37-43.31,3.24-64-10.43-14.24-22.5-27.33-34.43-40.4s-25.14-25-36.76-38.36a72.13,72.13,0,0,1-16.91-38.44c-1.75-13.23-3.52-26.5-4.29-39.8-1.24-21.63-1.62-43.3-2.51-64.94-.15-3.71,1.43-7.81-1.62-11.08-1,.23-2.21.2-2.37.59-4.12,10.42-8.37,20.73-8,32.37.23,7.4.15,15-1.38,22.22-4.52,21.12-9.83,42.06-14.83,63.08-7.1,29.8-14.15,59.61-21.34,89.39-1.26,5.23-2.53,10.68-9.32,14.48,0-4.07-.56-7.09.08-9.84,9.48-40.53,19.13-81,28.69-121.52.86-3.65,1.35-7.39,1.92-10.58-10.82-2.56-20.74-3.76-29.68-7.36a97.38,97.38,0,0,1-24.18-14.55c-7.22-5.81-15.68-11.44-18-24.17,22.46,20.23,44.12,37.45,74.66,37.82,3-11.28,5.81-22.09,8.59-32.69-25.09-11.05-47.76-23.47-65-44.32-3,2.35-5.6,4.12-7.87,6.26-22.75,21.34-44.92,43.28-63.67,68.3-19.24,25.66-35.52,52.93-43.69,84.43-3.91,15.08-6.45,30.44-3.16,45.56,6.3,29,24.47,49,51.72,60.24,34,14.1,66.3,8,97.24-9.86A21.53,21.53,0,0,0,281.92,611c3.93-14.81,7.7-29.66,12.11-44.32,6.67-22.2,13.79-44.26,20.85-66.34C315.64,498,317.28,495.85,319.15,492.44ZM808.49,648.92c-4.81-1.68-6.24-4.85-7.68-7.9-1.85-3.91-3.46-7.94-5.3-11.85-15.78-33.6-34.71-65.42-55-96.42-8.61-13.13-17.65-26-27.07-39.79-1.64,2.05-2.44,3.25-3.42,4.27-15.69,16.38-32.83,30.59-55.17,37.16-4.46,1.31-8.73,2.17-13.57.2,12.67-6.85,25.09-12.76,36.63-20.06s22.8-15.5,30.69-27.72c-6.89-10.13-13.64-20.05-21-30.88-14.37,17.11-30.33,29.42-52.18,33.54,0,5.69-.24,11.16,0,16.6,1.5,29.87,3.26,59.73,4.67,89.6,1.25,26.36,5,52.37,9.47,78.36,6.25,36.71,26.4,62.76,59.82,78.16,35.28,16.26,81.43,11.13,105.71-29,16.91-27.93,25.32-58.34,28.3-90.36,1.41-15.16,2.43-30.35.91-45.84-1.93-19.63-4.62-39-9.67-58a292.67,292.67,0,0,0-58.52-113.57C748.43,382.22,715,356.32,674.66,340c-10.49-4.26-21.45-7.39-32.52-11.14-5.45,10.61-8.89,20.79-9.12,32.75,16.07,5.2,24.66,17.65,31,32.12A120.74,120.74,0,0,1,668.9,407c3.49,11.63,6.75,23.34,10.35,35.89,7.55-.28,11.64,4.72,15.65,10.41,14.27,20.3,29.14,40.2,43.25,60.62,22,31.8,42.67,64.4,58.65,99.75C801.78,624.66,806.08,635.9,808.49,648.92ZM455.08,842.62c-.82-8.15-1.77-15.45-2.24-22.79-.42-6.67-2.3-37.74-2.25-41.63.63-47.7.89-95.39,1.78-143.08.53-28.75,2-57.48,3-86.22,0-.79,0-1.59.07-2.37q3.29-38.78,6.61-77.54c1.68-19.2,2.82-38.47,5.38-57.55,4.27-31.8,9.49-63.48,14.53-96.67-41.8,3.49-83.21,10.49-121.62,23.87l-9,18.47c-.12,2.16-.28,5.28-.53,9.93l-14.42,11c-.24,1.77-1.16,5.22-1.06,8.64.2,6.66,1.17,13.29,1.49,19.95.95,20.05,1.89,40.11,2.56,60.17.88,26.71,9.27,50.11,29.28,68.63,4.05,3.75,7.91,7.72,11.84,11.6,11.24,11.08,22.85,21.81,33.55,33.39A163.25,163.25,0,0,1,431.68,604c12.45,19.63,11.58,40.16,2.95,61-7.27,17.58-19.58,31.33-33.33,43.91-18.92,17.29-33.37,37.78-44.17,60.85-5.19,11.07-9.82,22.62-8,35.22a126.19,126.19,0,0,0,12.54,39.8C378,844.81,444.86,842.62,455.08,842.62Zm130.84,2c2.16.42,3.29.72,4.43.84,14.84,1.65,29.7,3.12,44.51,5,7.26.9,11.5,5,12.51,12.09,1.91,13.23,3.63,26.43.9,39.88-1,5.11-2,10.78.18,15.68H771.56c.33-1.15.59-1.56.52-1.9-8.65-39.94-13.05-80.53-19-120.88-1.22-8.22-.27-17.41-5.16-23.84-8.42-1.33-15.93-1.89-23.1-3.77-29.75-7.77-53.74-23.82-70.35-50.16-10.48-16.63-15.32-35.3-19-54.2-6-30.53-7.43-61.62-9.21-92.57-1.31-22.81-.6-45.75-.35-68.62.13-12.1,2.75-23.51,13.31-31.39.52-.39.55-1.41,1.18-3.18-1.86-2.8-4.07-6.15-7.47-11.29-8,31.47-24.24,57.36-35.17,85.51-8.39,21.6-16.5,43.33-23.92,65.28A83.15,83.15,0,0,0,570,645.47c2.48,17.61,7.91,34.38,14.2,51s12.34,33.12,14.37,50.89c.87,7.6-.52,63-2.58,64.07C592.8,822,589.5,832.84,585.92,844.57ZM599.75,408.8c-6.14-5.53-5.92-11.67-4.54-18.1.47-2.17,1.22-4.49.9-6.59-1.75-11.48-.76-13.76,9.09-18.48,2.42-1.16,4.95-2.1,6.35-2.7,3.29-13.84,6.31-26.59,9.5-40-7.72-.19-14.14-4.82-21.07-1.83a11.6,11.6,0,0,0-1.51,2.39c-8.52,31.05-17.4,62-25.38,93.19-9.54,37.26-19,74.57-27.2,112.13Q533.16,586.84,523,645.45c-4.63,26.66-7.29,53.68-10.6,80.57-1.64,13.25-3.1,26.53-4,39.84-.42,6.43-.59,51.79-.71,56.72-.15,6.6,0,13.2,0,20.56l57.66,2.33c13.22-24.92,16-80.58,18.11-83.12-.54-5.15-1-11-1.78-16.83C579,725.05,571.07,706.14,564.08,687c-5.12-14.05-9.21-28.25-9.82-43.47-.92-22.82,3.6-44.64,10.41-66.08C573.38,550,586.12,524.17,598,498c7.62-16.72,15.33-33.44,20.47-51.85-9.19-3.4-13.46-9.8-12.21-19C599,422.78,594.8,417.68,599.75,408.8Zm-49.06,10.79c-8.8-1.4-10.37-8-14-13.65-1.34,24.87-9.47,44.88-20.94,51.34-10.55-22.26-5.16-44.92-1.82-67.49-4.39,7.48-5.44,16.9-14.68,20.36-8-3.88-8-3.88-19.41-21-1,3.73-2.2,6.94-2.57,10.25-3.45,30.87-7.47,61.68-7.76,92.85-.14,14.54-1.41,29.08-2.41,43.6-2,29.41-5.36,58.79-6,88.23-1.13,48.91-.61,97.86-.72,146.8a77.67,77.67,0,0,0,.87,8.2,49.4,49.4,0,0,0,5.17.18c.66,0,28.72-.68,29.36.28,5.42-1.12,4.14-4.86,4.18-7.68.4-27.58,3.12-55,7-82.23,4.08-28.37,7.46-56.89,12.85-85,9.88-51.68,20.85-103.15,34.47-154,3.29-12.29,6.3-24.66,9.42-37ZM601.13,66.51c-9-.11-19-.64-22.66,11.64l7,9.24c-7.27,6.12-19,5.64-20.41,16.46,1,13.28,13.57,14.06,21.89,20l-11,13.86c2.62,9.55,13.32,5.69,17,11.87-.08,7-9.93,10.41-5.77,19,2.48.91,5.36,2,8.27,3s5.6,1.8,9.14,2.92c-1.44,3.88-2.45,6.6-3.67,9.91,3.72,1,6.73,1.77,9.7,2.67,7.51,2.28,15.28,4,22.43,7.11,10.31,4.51,12.74,12,7.56,22.16-2.13,4.15-2.89,7.87-1.23,13.54L660,226.66c.67-4.37,1.18-7.74,1.72-11.3,8.65-4.91,19.45,1.23,27.56-6q-.93-4.27-1.89-8.72c7.07-5.27,17-2.5,22.47-9.34,3.72-6.18-1.1-10.38-3.38-14.9,7.86-8,23-8,23.46-23.75l-16.25-5.16c3.46-10.12,17.61-12.67,15.41-26.66l-22.8,1.53c2.67-10.33,12.9-19.5,2.25-29.78l-10,2.56c-5.06-5.71-1.08-14.83-9-19.25l-10.23,5C675.27,73.21,678,62.41,667,58.69c-1.7,1.57-3.44,3-5,4.66-1.81,1.87-3.47,3.88-5.15,5.78-6.85-3.09-3.64-9.65-7.25-15.19l-7.89-4.47L630.09,62C624,57.3,620,49.11,609,53.6,607.06,56.81,604.29,61.35,601.13,66.51Zm-108.73,244,26.31,36.59c1,7,2.59,12.84,2.65,18.66.12,11.77.19,23.62-1.12,35.29-1.5,13.51-4.25,26.86-1.82,42.14,5.81-9.23,9.7-17.47,10.15-27.19.7-15.32,1.85-30.62,2.45-46,.27-6.72,2.41-12.35,7.41-16.73a121.45,121.45,0,0,1,11.11-8.76c13.28-9.16,26.67-18.15,40.39-27.45.8-3.86,1.9-7.61,2.32-11.45,1.85-16.79,3.4-33.62,5.35-50.4.34-2.93,2-5.69,3.07-8.42,14.31,3.42,23.36-.38,28.23-11.25,4.48-10,1.8-19.62-7.36-26.57-8.62-1.58-14,5.57-22,8.94.32-3.73.53-6.2.76-8.74-9.81,0-19.65-.49-29.39.23-4,.3-8.19,2.59-11.45,5.08-16.43,12.58-33.91,13.56-52.06,4.9-9.32-4.45-15.56-11.85-17-22.63a37.77,37.77,0,0,0-1.92-6.25c-3.59,13.47-6.92,26.64-3.17,39.51,7.76,4.1,14.15.11,20.24-.3,14.31,6.86,30.92,10.33,34.81,29.46-1.37,1.31-2.72,3.7-4.12,3.73-5.38.11-10.77-.54-16.66-.94-9,8.13-9.87,8.14-23-.38-4.3,5-9.18,8.78-17.06,5.17L473,258.55l-12.31,4.63c-6.51-6.16-7.49-8.14-3.1-14,5.34-7.15,12-13.32,18.41-20.29V211l-27.49,9.16c0,4.35-.13,9.42,0,14.48.76,25.7,10.78,45.61,35.3,56.54,3.47,1.55,6.61,3.82,10,5.84C493.33,301.8,492.92,305.64,492.4,310.49Zm-344.32,397c10.74,12.53,12.45,22,5.87,36C135.12,783.76,116,823.88,97.1,864.07c-5.52,11.7-10.91,23.47-13.59,37.55l10.83,13.1c17.93.58,35.18,1.38,52.45,1.66,20.49.32,41,.14,61.49.28,6.69,0,13.63-.65,20,.88,10.15,2.42,19.05-1.75,29-2,2.14-8.55,2.14-15.59-1.09-22.85-10.85-24.39-21.74-48.78-32-73.42-11.2-26.81-21.84-53.85-32.55-80.87-3.78-9.53-2.78-18.46,4.82-26.06,4.51-4.52,5.94-10,4.49-17.63-17.26-6.92-34.69-8-52.8-.55ZM547.29,61.6c-5.29-3.52-3.92-8.28-4.61-12.39-.71-4.32-1.83-8.43-6-11-11.12,1-11.24,13.28-19.32,18.75L505.94,39.87c-15,1.51-14.63,15.37-19.27,24.11-6,1.09-7.28-3.37-9.64-6.25-2.68-3.28-5.27-6.64-7.85-9.89-11.09,6.87-10,18.55-13.32,30L439.67,65.75c-12.91,10.13-8.46,23-6.31,34.89-7.42,4.91-14.19-4.62-20.82.45-3.82,12-2.88,19.5,3.64,29,1.88,2.73,5.34,4.91,3.25,8.84-5,3-10-4.9-14.5.62,2.36,15.31,8.86,21.54,23.56,23.19l19.28-11.08c1.4-4.12,2.94-9,4.71-13.77,9.82-26.56,28.08-44.18,55.58-51.63,16.26-4.4,32.64-2.76,48.93.19,5.33,1,10.68,2.76,14.79-.59,2.17-14-8.34-21.33-13-32.27C554.69,56.46,551.23,58.86,547.29,61.6Zm46.46,117.56c-7.09-.56-11.78-4.39-14.9-9.44-2.65-6.8.89-11.81,2.76-15.52-4.7-4.48-10.6-7.59-11.92-12-1.43-4.84,1.4-10.94,2.43-16.79-17.7-13.19-16.39-20-11.86-31.93-22.73-4.23-45.73-7-66.61,5.42s-34.11,30.65-36.91,55.93c11.31,2.62,20.49,7.5,26,17.27h9.53c19.43-25.72,51.43-24.63,71.32,2.11C577.83,179.74,587.6,181.69,593.75,179.16ZM260.66,378a144.2,144.2,0,0,0,41.08,25.63l11.17-35.86,22.56-3.36,3.1,4.64c7-7.4,5.93-13.36-1.9-15.51-2.24-.61-4.77-.11-7-.68s-4.57-1.85-8.63-3.59c3.93-1.73,6-3.42,8-3.36a69.17,69.17,0,0,1,12.67,1.85c4.34.93,7.8.75,9.19-4.8-6.7-10.5-19.66-5-29.33-11.22,9.71-9.48,19.81-.17,29.45-2.45-.22-2.08-.44-4.25-.71-7l-23.48-6c5.43-9.26,12.73-3.53,19.31-4.36l2.17-4.93c-7-7.36-15.56-5.81-23.67-6.23-12.19-.63-20.48,4.88-24.93,16-2.62,6.55-5.37,13.24-6.51,20.13-1.19,7.16-4.72,12.17-9.62,17C276,361.39,268.89,369.28,260.66,378Zm339.84,2.62c10.94,0,18.59-8.69,27.61-.06-4.77,2.15-8.68,3.89-12.58,5.66-2.5,1.13-5.41,1.84-7.37,3.59a22,22,0,0,0-5.17,7.59c-.55,1.28.72,3.34,1.34,5.67,8.92-2.16,15.74-10.56,26.51-6.19-8.39,7.54-20.63,8.6-25.45,19.52l5,4.72c12.07-7.39,12.07-7.39,19.46-4.79-5.29,5.31-13.11,7.94-16,16.25l4.82,5.67c6.48-3.51,10.31-11.1,18.35-9.19-.83,17.23,9,30.78,12.31,46.92a59,59,0,0,0,25.33-19.5c-3.15-11.75-5.87-22.38-8.86-32.93-4.08-14.42-8.86-28.65-17.38-41.12a31,31,0,0,0-41.77-9C604.71,374.55,603.49,377,600.5,380.58Zm-59.26-20.35c-1.65,25.56,1.36,41.31,9.21,49.92,9.62-3.32,17-8.91,19.62-19.59,1.31-5.33,3-10.55,4.54-15.83,4.35-15.34,8.67-30.68,13.32-47.18Zm-42.16,42.26c9-16.78,11.26-34.76,13-51.15L489.85,319.9c-2.38,14.86-4.3,28.32-6.75,41.69C480.3,376.92,485.37,390.87,499.08,402.49ZM820.25,252.82c-9-10.93-18.47-10.36-23.52.33a32,32,0,0,0-2.32,6.65c-1.57,6.89-3.67,13.76-4.22,20.75-.74,9.23-2.69,18.71.93,27.57,13.82,3.8,17.73,2.09,20.55-8.58l-13.56-4.86c.34-4.37.63-8.13,1-12.76l18.52-.83c.7-3.31,1.32-6.23,2-9.2l-17-4.83c.87-4.9,1.58-8.88,2.31-13ZM532,257.12c-4-10-11.33-15.11-19.81-18.56-2.75-1.11-6.5-2-9-1-8.61,3.32-16.82,2.41-24.59-.89-10.79,6.92-12.71,9.31-14.83,18.18l15.65-6.78c4.14,4.53-.74,11.56,7.06,14.56l9.85-9.54c6,.18,7.51,9,14.49,6.72,1.12-3,2.28-6.09,3.6-9.62Zm-15.78-96.27c-2.15,17.51-8.43,32.83-8.75,50.09l12.63,5.29c4-18.57,7.81-35.9,11.85-54.5Zm-70-.32c-2.62,16.77-4.95,31.66-7.2,46,4.8,4,9,5.31,14.42,2.94,2.06-15.11,4.14-30.37,6.34-46.54Zm-66.73,709c-13.12,4.24-16.64,9.67-13.89,19.15a12.13,12.13,0,0,0,13.61,8.63c9.05-1.45,12.43-7.51,10.73-20.71Zm58.36-1.89c-11.78,4.49-14.59,8.2-13.09,16.76,1,5.5,6.78,10.45,12.53,10.66,5.55.21,11.81-4.62,13-10C452.19,876.56,449.33,872.41,437.89,867.6Zm54.23,2.34c-9.75,3.67-13.77,8.55-12.68,15.41,1,6.46,6.8,11.41,13.09,11.24a12.77,12.77,0,0,0,12.36-10.5C506.28,877.52,503.45,873.93,492.12,869.94Zm-16.8-59.66c-5.44,0-10-1-15,1.73,1,10.15,1.9,20.1,2.86,30.23h10.6C474.28,831.49,474.77,821.49,475.32,810.28Zm149.05,59.37a197.26,197.26,0,0,0-54.16-6.8c-4.05,0-8.08,1.37-13.71,2.4C566.25,870,597.67,872.18,624.37,869.65ZM636.43,210.5c-.39-3.17.09-5.93-1-7.09a19.62,19.62,0,0,0-7.82-4.75c-12.61-3.95-25.34-7.56-38.83-11.53v14c8,0,15.45.06,22.84,0C625.82,201,626.46,201.21,636.43,210.5ZM491.3,843.33l8-.53v-32H486.25C488,821.84,489.55,832.05,491.3,843.33ZM566,905.63c9.28,5.44,19.24,4,28.88,3.67s19.91,2,30.36-3.26C604.7,903.82,585.4,901.15,566,905.63Zm60.4-18.18c-49.58-7.17-55.55-7.39-63.46-2.58C572.55,889.28,596.17,890.38,626.43,887.45ZM567.85,183.06v20.48l12.54-.71V186.09ZM547.2,213c17.15-10,18.16-27.18,3.6-43.34C557,184.17,557.05,198.32,547.2,213Z"/><path d="M308.79,101c-.82-1.55-2.43-3.2-2.45-4.86-.27-22.35-4.56-44.6-1.76-67,.1-.83,1.56-1.49,3.14-2.9.89,6.43,2,12.08,2.42,17.78,1.23,16.44,2.23,32.9,3.21,49.36C313.54,96.5,313.44,99.78,308.79,101Z"/><path d="M145.08,646.86c10.79,3.08,14.83,7,14.13,13.36-.63,5.65-4.27,9.73-9.46,10.59-6.35,1.06-11.5-1.44-13.67-6.62C133.39,657.77,135.7,653.13,145.08,646.86Z"/><path d="M265,174.36c-8.57,6.15-50.85,10.31-72.33,7.26,1.17-1.36,1.9-3.06,2.88-3.23,22.44-3.66,44.92-6.94,67.77-5.34C263.69,173.07,264,173.51,265,174.36Z"/><path d="M203.44,83.22c14.73,4.43,49.6,29.92,57.88,41.76-2.66,0-5.09.72-6.64-.14a95.54,95.54,0,0,1-11.64-8c-10.26-8-20.49-16-30.56-24.15C209.64,90.4,207.36,87.39,203.44,83.22Z"/><path d="M396.31,56.88c-9.23,19.87-21,38.28-33.53,56.21-1.14,1.63-3.51,2.4-6.64,4.44.5-10.32,6.66-16.14,10.67-22.87s8.46-13.22,12.9-19.7c4.62-6.73,9.46-13.32,14.21-20Z"/><path d="M192.25,548.6c-4.77,11.46-4.77,11.46-17.64,10.3-5.58-3-7.16-7.93-6.05-13.88s5.69-8,11.51-9.07C186.73,536.61,190.69,540.8,192.25,548.6Z"/><path d="M193.93,590c7,1.84,12.79,4.87,13.08,13.72S201.72,616,194.52,618c-10.51-3.14-14-6.65-14.16-14.27C180.19,596.74,183.13,593.71,193.93,590Zm-4.71,8.57c-1.7,8.38-.92,11.13,3.1,12.05s5.88-.94,9-8.72C198.88,596.78,194.89,596.15,189.22,598.52Z"/><path d="M238.31,393.34H248l3.56,6.88c-2.36,5-5,9.15-10.7,6.5C235.4,404.2,236.25,399.45,238.31,393.34Z"/><path d="M441.5,325.45c-5.77,4-9.56,6.52-13.27,9.18-8.63,6.2-17.41,12.22-25.74,18.8A54.71,54.71,0,0,0,392,364.61c-5.11,7.16-4.72,13.95,1.63,20.24,7.26,7.18,15.16,13.74,23,20.3,5.12,4.29,10.83,7.89,15.91,12.23,2.56,2.19,4.3,5.33,7.18,9-3.37,3-5.92,5.85-9,7.82a177.5,177.5,0,0,1-18.5,10.48c-20.94,10-29.52,27.23-29.89,49.48-.12,7.1.21,14.2.2,21.3,0,3.83-.27,7.66-.52,13.89-2.62-3.42-4.39-4.71-4.68-6.26-2.71-15-5.62-29.85-3.5-45.43,2.09-15.34,9.79-26.4,22-34.73,9.05-6.18,18.63-11.59,28.88-17.91-7.77-6.21-15.26-11.85-22.35-18-6.26-5.39-12.87-10.67-17.93-17.1-9.2-11.72-9.06-20.45-.22-30.95,13.43-16,31.29-26.17,50.25-34.39C435.6,324.15,437.29,324.92,441.5,325.45Z"/><path d="M538.3,300.88c8.48-9.77,24.07-15,20.36-32.55-9.52,6.09-17.46,14.52-29.56,13.87-2.46-.14-2.46-.22-6.83-5,6.8-2.13,14.16-3.27,20.26-6.67s10.62-9,15.88-13.59c8.22,6.28,10.64,14.23,7.38,24.51C561.7,294.31,553.34,300.76,538.3,300.88Z"/><path d="M158.86,754.48c3.59-1.18,5.78-2.09,8.07-2.61,10.61-2.42,18.82,1,23.13,11.12,6.12,14.45,11.29,29.3,16.72,44Q219,840.2,231,873.44c1.47,4,3.16,8.12,3.83,12.33,1.09,6.88-2.54,11.46-9.44,12.37a89.37,89.37,0,0,1-11.81.42q-41.4-.19-82.8-.48c-8.34-.05-16.49-.76-24.42-7.47.73-4.74.7-10.34,2.51-15.26q14.42-39.26,29.68-78.2c3.87-9.87,8.66-19.39,13.18-29C153.92,763.55,156.44,759.12,158.86,754.48Z"/><path d="M193.77,707.11c-11.74,5.86-23.89,5.16-35.91.33-2.38-1-4.21-3.45-5.54-6.94s18.23-10.7,17.45-6.6-6,5.18-7.39,6.64c.62,2.46,1.71,1.93,2.62,1.94,7.44.11,14.89-.12,22.34,0a46.92,46.92,0,0,1,7.09,1.14Z"/><path d="M522.14,139.23c-2.15-5.78-.56-9.38,4.32-11.2,9.7-3.63,21.33,0,28.2,8.56C548.76,147.19,536.52,148.28,522.14,139.23Z"/><path d="M462.37,143.72c6.22-15.24,16.68-19.47,30.12-13.4,1.13,8.59,1,9.2-5.91,12.82C478.9,147.17,471.08,150,462.37,143.72Z"/></g></svg>