<svg id="Capa_1" data-name="Capa 1" xmlns="http://www.w3.org/2000/svg" viewBox="0 0 1080 1080"><defs><style>.cls-1{opacity:0.15;}.cls-2{fill:#161532;}.cls-3{fill:#785ca0;}</style></defs><title>skills</title><g class="cls-1"><path class="cls-2" d="M667.18,420c1,0,2.61-1.83,2.87-3.14,1.62-8.35,30.61-166.15,31.35-168.77,1.11-3.9-.52-6.33-4.7-6.82C682.1,239.58,472,216.94,460,215.67c-2.61-.27-4.22.25-5,3.13-2.21,8.6-37.58,157.3-40.49,170.09a5.1,5.1,0,0,0-.06,2.33,5.21,5.21,0,0,0,2.76,3.63,5.21,5.21,0,0,0,2.26.57C429.94,396.22,663.52,420.26,667.18,420Z"/><path class="cls-2" d="M842.22,665.85c1.16-8.1,4.08-14.24-3.13-16.46-5.54-1.7-5.49-1.57-5.49-11a42.28,42.28,0,0,0-9.14-28.48,56.39,56.39,0,0,0-36.32-23.51c-11.91-2.51-14.92-4.09-46.76-.26-11.19,1.34-42.17,7.61-56.45,7.83-17.56.29-33-5.89-27.68-22.73,7.33-23.18,28.85-32.92,52-47.55,11.62-7.34,21.21-13.93,12.8-26.39a40.3,40.3,0,0,0-15.41-12.8c-17.06-8.94-16.33-7.84-24.82-9.15,0-.52,0-1.57-.52-1.82-3.4-2.62-2.31-5.75-1.57-8.89a50,50,0,0,0-.78-21.16,9.26,9.26,0,0,0-8.62-6.81c-11.26-.88-256.86-26.63-267.29-27.95a25.54,25.54,0,0,0-21.68,6.53c-23.47,20.65-67.86,55.15-90.92,74.2a11.72,11.72,0,0,0-4.71,13.85c1.1,3.22,2.08,14.32,15.94,15.93,42.07,4.91,214.45,22.13,272.5,29,30.53,3.61,62.5-17.36,82.29-40.5a121.87,121.87,0,0,0,16.73-23.24c.52-1.57,3.94-1.34,4.7-2.1,1.83-2.87,4.18-1.83,6.53-1a64.7,64.7,0,0,1,32.67,19.33c9.66,11.77-10.28,17.08-36.58,34.75-14.4,9.67-30.12,27-29.79,43.63a20.79,20.79,0,0,0,11.76,17.52c27.62,12.21,76-7.93,109.73-5.75,20.93,1.35,38.29,9.47,49.12,28.22a43.92,43.92,0,0,1,6.27,24.82c0,2.09-.52,3.66-3.13,4.18-5,.53-5.8,4.69-6.81,8.62-1.38,5.47-1.32,5.36-6.81,4.71-77.14-9-46.23-6.73-71.33-9.15A19.18,19.18,0,0,0,722,663c-11.54,25.21-53.49,108.31-54.61,122a11.87,11.87,0,0,0,9.15,13.58A156.43,156.43,0,0,0,707.1,808c.58.14,102.35,21.46,118.09,23,4.71.46,21.17,1.31,28-2.35,16.23-5.08,28.4-34,35.27-49.63,30.07-68.68,29.58-70.56,30.83-84.39a12.91,12.91,0,0,0-10.19-14.11c-15.91-4-31.85-7.41-47.81-11C851,667.22,843.18,666.81,842.22,665.85Zm63,48.86a3.17,3.17,0,0,1,1.32.56,3.18,3.18,0,0,1,1,3.88c-8.14,18.39-43.63,92.49-45.2,94.58-1.94,1.95-182.89-33.85-183.41-34a3.71,3.71,0,0,1-1.51-.69,3.86,3.86,0,0,1-1-1.29,3.75,3.75,0,0,1-.4-1.61,3.83,3.83,0,0,1,.35-1.63c8.62-17.9,40.23-85.43,42.82-90.66a3.1,3.1,0,0,1,1.25-1,3,3,0,0,1,1.63-.25C742.4,686,878,709.75,905.19,714.71ZM666.13,484a119.14,119.14,0,0,1-20.38,27.7c-25.13,23.84-53.59,32.31-62.7,31.63-8.36-.64-260-27.86-278.26-30.05a13.09,13.09,0,0,1-12.28-11,8.93,8.93,0,0,1,2.62-8.88c30.44-25.19,60.95-50.87,91.18-76.29a13.47,13.47,0,0,1,11.49-3.66c18.25,2.69,244.54,26.79,270.42,29.52,8.92.94,6.6,3.34,4.44,25.08-.24,2.36-1.57,3.14-3.89,3.14a12.33,12.33,0,0,0-7.06,2.09,18,18,0,0,0-4.18,7.3c-1,2.09,0,3.4,2.35,3.4A25.14,25.14,0,0,0,666.13,484Z"/><path class="cls-2" d="M324.9,303c2.35-7.84,4.44-15.42,7.06-22.73a118.82,118.82,0,0,0-2.35-34.48c-3.9-2-9,9.19-15.94,16.45-5.47,5.76-6.27,13.07-8.36,19.86-1.05,3.41-2.09,6.53-3.14,9.93a1,1,0,0,1-.42-.05.9.9,0,0,1-.36-.22c.52-3.4,2.61-37.09,2.61-49.63,0-7.78-5.88-15.83-13.33-12.28-7.13,3.41-7.73,10.54-8.88,18.55-5.49-.52-6.17,0-7.3,5.49a44.65,44.65,0,0,0,0,17.24c.54,2.15,1.24,3,2.62,2.35.52-6.81,2.09-20.64,2.35-20.64a41.17,41.17,0,0,1,1,5.49q-1.17,18.42-3.13,36.84c0,.73-.71,4.48-2.88,3.4a526.14,526.14,0,0,0-13.33-58c-1.32-5.11-5-9.9-10.19-8.1a8.41,8.41,0,0,0-3.66,8.62c0,.52.26.78.26,1.31a6.46,6.46,0,0,0-4.18,6.53c-.13,6-.13,11.75,0,17.76a2.65,2.65,0,0,0,2.5,2.44,2.63,2.63,0,0,0,1.77-.57,2.7,2.7,0,0,0,1-1.6,38.22,38.22,0,0,1,.78-5.75c13.73,68.64,3.94,35.33-12.54.78a36.41,36.41,0,0,0-5.23-7.05,57.44,57.44,0,0,0-6.81-8.36,4.8,4.8,0,0,0-1.55-1.62,4.94,4.94,0,0,0-2.11-.74c-2.35,0-2.64,1.57-2.87,3.93-.63,6.52-1.57,12.8-2.35,19.33-.44,2.18.3,3.12,14.63,34.75,1.06,2.34,0,3.62-1.83,4.7-2.12,1.27-4.44,2.62-6.53,3.66a8.14,8.14,0,0,0-4.18,9.14c2.05,13.11,19.27,108.13,21.16,119.92,4.61,28.75,46.61,23.32,75,17.25,14.25-3,13.25-11.68,16.72-26.65,1.87-8.09,23.3-99.34,26.9-112.35C361.16,305.84,337.2,302.29,324.9,303Zm-98.78,19.6c41.81,8.88,83.09,9.66,123.85-4.71-11.32,56.58-16.65,72-30.31,124.09-1.7,6.47-5.79,5.64-8.1,6.81-31.48,3.41-43.72,7.3-57.74.78a11.65,11.65,0,0,1-7.58-9.14c-19.18-102.68-13.31-78.44-20.09-117.83Zm100.07-43.64a173.24,173.24,0,0,1-10.42,37.38,3.91,3.91,0,0,1-1.31,1.57c-4.7.78-9.4,1.3-14.37,1.83.79-3.16,12.91-41.85,13.06-42.34,2.35-6,14.11.26,13.07,1.56Zm-98-7.57c1.31.26,2.62,1.33,3.92,1,1.05-.23,1.83-1.83,2.88-3.13,7.05,16.46,15.67,32.11,21.94,49.38-4.7-.53-8.62-1.05-12.54-1.57-1.9,0-2.13-1.15-18.55-39.45-.86-1.79.93-3.85,2.38-6.27Zm37.89-3.66c3.65,18,6.81,34.75,10.45,52.25-3.66-.26-6-.52-8.62-.52-4.34,0-1.87.11-13.07-48.86,3.95-1,7.61-1.83,11.26-2.87Zm15.67,52.25c1.65-23.07,2.79-33.76,3.41-44.41.33-5.75,1.05-6.82,7.06-6.27a45.45,45.45,0,0,1,4.7,1.3c-1.57,16.46-3.14,32.93-4.45,49.38Zm4.7-56.93c1-8.1,2-16.73,3.66-25.08,1-5.23,6.28-2.61,7.06-1.31a8.36,8.36,0,0,1,1.57,5c-.42,17.54-1.57,19.2-1.57,23.77-3.63-.81-6.76-1.61-10.69-2.37Zm32.14,4.44c5-7.57,5-7.57,8.36-6.53,1.57,11.76,2.62,9.93-.78,9.93a16.87,16.87,0,0,1-7.55-3.42Zm-88.83-2.61c-3.66-2.09-3.66-2.09-7.3,3.13h-.78c.25-3.39.52-6.79.78-10.19a38.14,38.14,0,0,1,4.18-1.3c5,5.46,5,5.46,3.15,8.34Z"/><path class="cls-2" d="M981,918a27.49,27.49,0,0,0,7.58,0,2.91,2.91,0,0,0,1.27-.65,3,3,0,0,0,.81-1.18c.26-.52-.78-1.57-1.3-2.35a8.78,8.78,0,0,0-3.24-2.09,8.87,8.87,0,0,0-3.82-.53c-45.81-8.59-790-144.52-872.89-160.68-7.68-1.49-12.35,6-6.28,7.3C108.49,759,980.47,917.89,981,918Z"/><path class="cls-2" d="M92.38,779.51a4,4,0,0,0-5,1.83c.52,2.87,2.87,3.4,5.22,4.17C389,856.51,947.11,959,973.9,959,973.9,947.82,797.25,933.79,92.38,779.51Z"/><path class="cls-2" d="M851.63,504.65c7.3,6.27,27.93,3.1,35.27-1.57a34.36,34.36,0,0,0,15.93-30c.76-25.26-20.68-33.64-34.22-22.21-1,.78-2.09,1.83-2.87,0a26.88,26.88,0,0,0-21.41-14.37c-26.33-4.55-39.68-7.28-79.17.26-11.77,2.25-18,12.28-17,25.08A90.43,90.43,0,0,0,769.1,512a26.32,26.32,0,0,0,17.21,9.67,156,156,0,0,0,36.32,1.3C837.47,521.7,846.67,508.9,851.63,504.65Zm10.45-46.5a54.72,54.72,0,0,1-4.7,27.43,79.6,79.6,0,0,1-21.69,26.91,19.06,19.06,0,0,1-12,5,160.91,160.91,0,0,1-42.59-2.35,7.66,7.66,0,0,1-3.66-2.35c-14-14.46-25.36-36.53-24.56-57.22.45-11.71,12.7-15.27,24.3-17C803,434.74,859.56,432.17,862.08,458.15ZM819,439.59c-42.62-4.38-69.94,8.88-58.79,13.85,19.88,8.86,53,14,90.92,4.18,3.93-1,10.48-6.33,1.84-11.23C846.94,443,826.29,440.34,819,439.59Zm49.12,20.65a6.68,6.68,0,0,1,.78-4.71,14.9,14.9,0,0,1,25.6,4.45,30.15,30.15,0,0,1-18.8,40.73,33.42,33.42,0,0,1-21.69,1c1.3-1.82,2.61-3.4,3.66-5,15.24,5.42,44.68-22.94,25.6-36.31a12.34,12.34,0,0,0-15.15-.24ZM858.94,495a56.58,56.58,0,0,0,8.63-28.48,7.54,7.54,0,0,1,8.13-4.63,7.74,7.74,0,0,1,3.1,1.23C893.25,471.12,875.32,495,858.94,495Zm-37.09-47c7.29-3.66,20.37-2.36,24.55,4.18C838,450.59,830.48,449.26,821.85,448Z"/><path class="cls-2" d="M683.63,432.54c-1,11,4.67,1.56,5-.26,1.64-10,32.48-170.86,33.71-179.49a27.39,27.39,0,0,0-12.28-29,24.69,24.69,0,0,0-8.88-2.62C694.36,220,475.4,199.59,466,199.23c-29.32-1.14-26.6,2.75-69.23,201.7,0,5.49,4.12,3.64,4.7,1.3.72-2.89,1.9-5.73,2.62-8.62,37.88-153.18,37.38-172.77,40.75-179A16.09,16.09,0,0,1,460.77,205c7.84.54,241.17,21.9,245.07,24.3,9.12,5.59,9.25,13.56,10.45,20.9C716,250.44,686.25,417.39,683.63,432.54Z"/><path class="cls-2" d="M870.18,631.89c6,1.17,28.22,6,33.44,7.05,8.13,1.7,27.86,4.6,61.66,12a10.16,10.16,0,0,0,12.8-7.3c35.58-84.51,34.39-82,33.7-86.76,0-1.61,1.39-.88-94.83-19.33-6.82-1.3-13.6-2.55-20.38-4.18-3.15-.76-4.71,1.05-6,3.41-32.41,58.33-19.14,37-43.37,76.28-2.09,3.41-3.71,6.77-5.75,9.94-1.34,2.06-.26,3.63,1.83,4.17C845.08,627.66,862.59,630.4,870.18,631.89ZM846.66,622c.3-.49,26.77-48.13,45.47-80.21a4.49,4.49,0,0,1,5.74-2.59c34.77,6.48,64.69,11.92,109.73,20.64-14,33.14-2.43,8.47-37.62,84.12-.52,1.31-1,2.35-2.87,1.84-13.33-2.62-26.66-4.67-40-7.3C905.18,634,851.63,623.26,846.66,622Z"/><path class="cls-2" d="M996.37,408.75c5.62,1.12,8.3-6.42,2.61-7.84-7.3-.88-278.4-24.62-287.13-25.34-3.66-.31-5,.25-5.23,2.87s.53,3.92,3.41,3.92C719.82,382.38,994.83,408.75,996.37,408.75Z"/><path class="cls-2" d="M182.26,545.93c14.87-4,6.53,0,44.94-14.37a120.67,120.67,0,0,0,28.22-16.72,17.06,17.06,0,0,1,6-2.61,8.77,8.77,0,0,0,5.23-14.64,54,54,0,0,0-22.74-15.93c-15.2-6.41-30.3-4.18-45.19,1-22.24,7.78-49.74,15.88-56.45,37.62a19.55,19.55,0,0,0,8.36,21.41C169.16,551.94,174.12,548.15,182.26,545.93Zm66.36-30a183.44,183.44,0,0,1-53,22.46c3-3.05-3.43.81,51.21-23C248.92,513.94,249.9,515.24,248.62,515.89Zm-16.72-34c10.5,2.44,25.31,9,31.35,17.77,2.68,3.89,1.58,6.57-3.13,7.84a262.93,262.93,0,0,0-69.24,29c-12,6.05-21.46,11.17-37.1-1.82-7.3-6.05-7.58-11.24-2.61-19.34A37.81,37.81,0,0,1,168.41,500c12.27-5.25,24.82-9.93,37.62-14.37A70.6,70.6,0,0,1,231.9,481.92Z"/><path class="cls-2" d="M274,610.47c-.52-9.94-8.06-13.8-16.72-8.89-.48.29-67.24,37.08-119.4,67.15a104.79,104.79,0,0,0-12.27,16.46c-1.21,1.83-.62,3.9,2.35,3.9,23.16-2.58,2.61,5.58,139.25-71.05C269.52,616,272.92,613.86,274,610.47ZM141.24,671.34l98.51-55.91a7,7,0,0,1,2.71-1.43,7.23,7.23,0,0,1,3.07-.15,7.07,7.07,0,0,1,4.92,3.41c2.14,2.57,2.08,3.89-.78,5.48-45.07,25-101.25,57.74-102.42,57.74C145.42,677.61,143.59,674.47,141.24,671.34Zm-8.36,8.88L136.8,674c5,2.09,7,4.71,6.81,8.89C139.93,682.31,135.75,684.93,132.88,680.22Zm134.3-67.4c-2.09-3.14-3.92-6-6-9.15a5.33,5.33,0,0,1,4.16-.41,5.3,5.3,0,0,1,1.86,1.06,5.22,5.22,0,0,1,1.28,1.7c1.83,3.14,1,5.75-1.3,6.8Zm-9.93,6.26c-2.61-3.4-5-6-7.3-8.88a7.81,7.81,0,0,1,8.11,6c0,.8-.8,2.09-.8,2.87Zm5.23-2.61c-2.36-3.89-4.18-6.81-5.75-9.93,3.92.79,6.53,2.88,6.81,6.28a11.12,11.12,0,0,1-1.07,3.65Z"/><path class="cls-2" d="M757.83,508.57C742,511.33,746.48,544.34,802,547.76c21.54,1.33,68.79-7.12,60.61-24a10.84,10.84,0,0,0-9.4-7.29,4.1,4.1,0,0,0,1.83,1.83,7.94,7.94,0,0,1,3.18,3.06,8,8,0,0,1,1.07,4.28,8,8,0,0,1-4.78,7c-23.52,14.29-71.86,15.84-96.15-3.9a12.14,12.14,0,0,1-4.41-13.19,12,12,0,0,1,2.33-4.32C757.05,510.66,757.31,509.61,757.83,508.57Z"/><path class="cls-2" d="M210.21,334.83c3.8,0,4.52-3.21,1.83-5.23-4.43-4.78-61.17-8.36-61.66-8.36a5,5,0,0,0-4.18,8.2,5,5,0,0,0,3.4,1.73A529.35,529.35,0,0,0,210.21,334.83Z"/><path class="cls-2" d="M384,343.71c-20.44-2.33-23.81-2.68-26.65-1a3,3,0,0,0-1.72,2.83,3,3,0,0,0,.58,1.64,3,3,0,0,0,1.4,1A58.88,58.88,0,0,0,368.81,351c9.13,1.13,18.55,1.83,27.95,2.35C400.68,353.9,407.75,346.42,384,343.71Z"/><path class="cls-2" d="M305.06,582.77c1.82-2.35,3.89-5.23,7.83-3.66.79.26,8.7.83,10.71-2.61,3.76-6.43,18.14-10.22,23.77-10.71,53.41-5.72,77.53,5.17,104,20.12,5.1,2.18,1.4,1.07,17.77-4.7,31.58-11.84,85-9.19,135.86,23.25a53.28,53.28,0,0,1,16.46,15.94c3.3,4.94,5.79,4.08,13.06,7.3a4.87,4.87,0,0,1,3.75,5.37,4.79,4.79,0,0,1-.87,2.2c-4.18,7.06-80,134-86.74,145.79-2.09,3.66-3.66,4.45-7.58,3.66-14.37-3.14-135.44-26.64-162.25-32.4a39.93,39.93,0,0,0-13.06-1.3,35.73,35.73,0,0,1-25.6-6.82,13.8,13.8,0,0,0-7.06-2.61c-12.28-1.57-106.34-15.42-116-16.72C190.41,721.88,180.52,744.33,305.06,582.77ZM536.54,772.45c1.94-2,84.06-137.46,84.39-138-2.28-2.28,4.86-11.92-83.08,133.25C535,772.43,535,770.93,536.54,772.45Zm-41.28-13.06A280.65,280.65,0,0,0,393.1,735.61ZM484.81,750c-22.73-11.49-46.51-18.81-70.81-17.77A331.71,331.71,0,0,1,484.81,750ZM530,769.84q44.68-72.9,89.35-145.53c-44.58-37.95-104.1-52.4-154.41-34.49a28.26,28.26,0,0,0-14.89,12c-43.05,66-81.23,122.67-86.48,131.42C426,713.93,480.36,730.91,530,769.84Zm-172.7-37.63c30.57-46,61.4-92.48,92.49-139-29.29-24.24-90.84-27-121.49-15.68-2.32.59-98,125.47-100.07,128.55a136.68,136.68,0,0,1,66.63,2.35A242.25,242.25,0,0,1,357.31,732.21ZM248.1,709.75c18,2.61,37.1,5,55.91,7.57C278.93,710.53,255.41,707.66,248.1,709.75Zm81,19.33a1.55,1.55,0,0,0,.26-1.05c-6-1.56-12.28-3.4-18.81-4.44-13.17-2-65.12-9.83-78.64-10.45a19.58,19.58,0,0,0-5.22.79C261.16,719.16,295.13,724.12,329.09,729.08Z"/><path class="cls-3" d="M267.17,612.82c5.35-2.39.86-12.45-5.75-9.15C263.25,606.79,265.34,609.68,267.17,612.82Z"/><path class="cls-2" d="M727,780.29c.53,2.87,2.1,4.23,4.71,3.92,12.31-1.5-3.79,5.59,48.85-25.61,13.73-8.13,70-38.48,70-48.85-1.27-1.28-16,1-18.29,2.35C715.85,782.43,735.36,769.84,727,780.29Zm54.61-26.65C780.29,755,756,769.42,738.5,779.76c-1.81,1.08-2.61.27-3.66-1-1-1.57,0-2.34,1.3-3.14,4.92-3,34.24-20.92,43.64-26.39A39.23,39.23,0,0,0,781.61,753.64Z"/><path class="cls-2" d="M397.55,423.4c-4.78.73-1.46-1.15-73.42,60.87-2.72,1.81-.73,3.66,1,3.66,9.93,1,246.38,28,257.09,29.52a9.14,9.14,0,0,0,8.88-3.66c51.1-62,52.73-61.8,52-64C641.08,445.67,398.12,423.31,397.55,423.4Zm197.51,44.94c3.14.52,5.49,1,8.1,1.3,2.36.53.27,1.31-1.31,1.31-9.29-2.59-13.27,3.54-24,17,3.66.52,6.53.78,9.41,1.31,2.61,1,.26.78,0,1a34.31,34.31,0,0,1-7.58,0,6.86,6.86,0,0,0-7.06,2.61,98.65,98.65,0,0,1-7.83,7.05c-.79.53-1.57,1.05-.79-.78,2.62-2.87,5-5.74,7.84-8.62a.46.46,0,0,0,.11-.22.49.49,0,0,0,0-.24.42.42,0,0,0-.13-.21.39.39,0,0,0-.22-.11c-4.18-.52-21.95-2.87-31.09-3.66a5.49,5.49,0,0,0-3.4,1.83c-6.74,6.73-15.83,17.28-13.07,11.76,3.66-4.44,7.3-9.15,11.23-13.59-1-.52-8.37-1.2-28.48-3.4-9.14-1-12.08-2.15-14.89,1s-6,6.53-8.88,9.93c-1.31,2.09-2.35,1-.79-.79,2.62-3.92,5.49-7.57,8.36-11.75l-33.43-3.92c-3.9,0-8.43,8.57-13.59,12l-.78-.78c2.87-3.66,5.48-7.3,8.35-11,.74-1.46.93-.55-30.56-4.71-3.67-.48-6-1-8.62,2.62-4.71,8.36-6.82,9.66-5,5,.79-1.31,2.61-5,3.66-7a1,1,0,0,0,.11-.44.94.94,0,0,0-.13-.44.85.85,0,0,0-.33-.32.93.93,0,0,0-.44-.11c-4.18-.52-14.63-2.57-24-3.65-8.63-1-11.26-2.64-14.37.78-2.37,2.6-5,5-7.58,7.58-1.83,2.08-2.61,1.56-1-.79l7.3-8.88a.82.82,0,0,0,.26-.39.73.73,0,0,0,0-.46.75.75,0,0,0-.75-.46l-8.89-2.35c-2.09-.52-1.05-1.05.26-1.05,12.22,1.11,11.25,3.32,17.77-4.44,2.86-3.4,13.06-12,14.63-13.58a22.72,22.72,0,0,0-2.61-1.31c-1.83-.52-1.83-1.31.78-.78a8.48,8.48,0,0,0,4.44-.26c.53-.27,4.44-5,5.75-6.54,1.57-1.3,1.57-.52.78.53l-3.4,5.48a.87.87,0,0,0-.11.44.83.83,0,0,0,.12.44.78.78,0,0,0,.33.32.85.85,0,0,0,.44.11c11,1.3,21.69,2.61,32.4,3.66,3.49,0,4.87-2.36,8.62-5.49,1.05-1.83,1.83-1.05.52.52-1.3,1.83-2.35,3.66-3.66,5.49-.52,1.05-.26,1.3.27,1.3,5,1.05,14.89,1.29,20.92,2.1,15.16,2,16,2.38,21.95-4.71a34.43,34.43,0,0,1,4.44-4.18c.78-1,1.3-.26.78.79-2.35,2.87-5.22,6.53-7.84,9.66a.52.52,0,0,0-.1.23.49.49,0,0,0,0,.24.39.39,0,0,0,.13.2.48.48,0,0,0,.22.12c3.91.26,20.11,1.05,27.17,2.35,5.74,1.06,6.81.78,11.23-4.44a33.9,33.9,0,0,1,3.92-4.71c1.83-2.34,1.3-.52.78.79-1.83,2.61-3.66,5.49-5.48,8.36a.85.85,0,0,0-.09.38.83.83,0,0,0,.07.38.93.93,0,0,0,.21.33,1.19,1.19,0,0,0,.33.22c12,1.82,23.72,3.69,35.52,5.48,4.32.66,2.82-1,9.67-7.84l.79.79c-1.58,2.61-3.41,5-5.49,7.83,10.18,1.83,20.11,3.12,30,5.23a6.38,6.38,0,0,0,7.58-3.41c6.53-8.09,7.57-7.57,6.53-6.26A60.31,60.31,0,0,1,595.06,468.34Z"/><path class="cls-2" d="M591.93,533.65c.49-.48,4.65-3.67-.52-5-10.71-1.31-278.26-31.88-289.75-33.18-2.25,0-3.82,2.77-.26,3.65C328.93,502.72,586.39,532.54,591.93,533.65Z"/><path class="cls-2" d="M668.74,448.74c-71.48,80.29-73.17,78-70,80.73,1.83,1.57,3.12-.27,4.18-1.57,13.66-16.64,69.76-77.06,69.76-78.12C672.66,449,672.68,444.31,668.74,448.74Z"/><path class="cls-2" d="M555.87,629.54c3,1.55,6,3.29,6.82,1,1-4.17-21-13.76-23.26-14.63a151.75,151.75,0,0,0-64.53-10.19,76.32,76.32,0,0,0-11.23,2.09C452.39,613.48,506.23,604.1,555.87,629.54Z"/><path class="cls-2" d="M461.55,625.36c-6.26,2.61-.25,3.4.79,3.4a151.64,151.64,0,0,1,37.62,5c.78.26,7.06-.52,1-3.41C477.69,622.85,472.54,622.82,461.55,625.36Z"/><path class="cls-2" d="M354.7,680c3.13-5,6.27-9.66,9.4-14.37a3.94,3.94,0,0,1,1.51-.59,4.08,4.08,0,0,1,1.63.07c2.63.72,5.48,1.56,8.36,2.09-1.57-3.66-5.23-4.44-8.36-6.53,2.35-3.92,4.44-7.84,6.81-12,9.42,3.41,8.85,3.23,11.5,2.35-1.59-2.38,1.2-1.46-9.67-6,3.14-5.49,6-10.7,9.15-16.2,2.08.79,4.18,1.57,6.53,2.36,0-3.66-3.14-3.9-4.71-5.49,2.36-5,4.71-9.93,7.06-15.16-.27-.26-.13-4.27-4.18,1.31-6.82,9.37-7.44,12-9.41,12-8.62-1.83-17-3.92-25.61-6,8.89-16.2,10.19-21.69-3.13-2.61a3.67,3.67,0,0,1-4.44,2.35c-6.26-.61-12.54-.79-19.33-1a24.8,24.8,0,0,0,2.08-5c6.82-21.16-3.65-1.57-3.65-1.31-4.81,14.43-16.45,2.26-21.41,11.5,4.18-.26,8.62-.52,13.85-.79-2.88,4.45-5.23,8.36-7.84,12.29-.61,1.22-13.42.09-17.25,3.89,4.45,2.35,8.89,0,13.85,1.57-2.09,3.4-4.18,6.81-6.53,10.18-.26.53-1.57.53-2.61.53-3.92.26-7.58.26-11.5.52a14.41,14.41,0,0,0-3.13,1.05c0,1.89-1.55.4,14.11,2.87-2.35,3.92-4.44,7.84-7.06,11.5-1.36,1.36-5.84.41-16.45,1-1,0-5.84,1.72-4.45,3.14,5.75.52,11.5,1,17.52,1.56a36.94,36.94,0,0,1-1.82,5.75c-6.82,18.81-6.54,19.6,3.4,2.36,1.95-2.61,3.65-7.06,6.27-7.06,6.81,1,13.33,2.09,20.38,3.13-1.83,4.44-5.23,13.33-6.27,16.73-2.35,6.26,1.57.52,1.83.26,6.62-9.38,8.55-15.16,11.49-15.16,7.84,1.57,15.42,3.41,23.26,5-2.36,4.18-4.44,8.1-6.54,12-1.83,2.88.27,2.36,1.31.79,1.57-1.83,3.41-3.41,5-5.23,1.82-2.09,3.4-5.48,5.48-6,2.76-.91,5.76,1.69,14.63,3.66C364.1,683.36,359.14,682.58,354.7,680Zm16.46-36.84c-8.36-2.08-16.46-4.44-24.56-6.53,2.09-4.7,4.44-9.14,6.81-14.37,8.62,1.57,17.52,3.41,26.91,5.23C376.9,632.93,374.05,638.16,371.16,643.12Zm-11,19.6c-3.4,5.22-6.53,10.19-9.66,14.89a1.61,1.61,0,0,1-1.83.52c-7.58-2.09-15.42-4.18-23.25-6.53,2.6-4.44,5.22-8.62,7.83-12.8a1.8,1.8,0,0,1,.79-.68,1.76,1.76,0,0,1,1-.1C343.2,659.58,351.3,661.15,360.18,662.72Zm-23.51-9.14c2.09-3.67,4.44-7.3,6.53-11,.94-1.87,4.7.21,25.86,4.18-2.35,4.18-4.18,7.3-6.26,10.71-.53.52-1.57,1.31-2.36,1C352.61,657,344.77,655.4,336.67,653.58Zm-8.1,3.13c-6.68,10.93-8.05,14.11-9.67,14.11-6.81-1.05-13.58-2.36-20.64-3.66,2.35-3.92,4.44-7.58,6.82-11.23C305.81,654.42,307.75,654.56,328.57,656.71Zm20.12-35c-7.75,14.19-5.42,14.3-14.64,13.33-5-.54-9.92-1-15.15-1.58,2.09-3.91,4.12-7.61,6.27-11a3.45,3.45,0,0,1,1-1,3.4,3.4,0,0,1,1.34-.53C334.32,621,341.11,621.44,348.69,621.7ZM338.5,640.51a128,128,0,0,1-6.82,11,2.61,2.61,0,0,1-.92.76,2.76,2.76,0,0,1-1.16.29c-7.06-.78-13.85-1.83-21.17-2.62C317.87,635.8,310.44,638.51,338.5,640.51Z"/><path class="cls-2" d="M400.68,597.14c.78-2.35-1.05-3.66-2.88-4.18-26.55-9.78-53.73-7.92-58.78-2.88-2.27,2.28.24,3.65,1.83,3.14C359.83,587.18,381.81,592.42,400.68,597.14Z"/><path class="cls-2" d="M241.31,489c-3.92,0-7.58-.26-11.24,0-2.09.27-7.3,6.28-8.88,7.58,3.4-.52,11-1.83,11.5-2.09C235.3,492.89,237.91,491.07,241.31,489Z"/><path class="cls-2" d="M496,478.53c4.7.51,8.62,1.07,12.54,1.56,8.88,1.12,17.77,1.83,26.65,2.87,1,0,2.62,0,3.14-.78,4.7-5.48,9.4-11.23,14.63-17.52-5.49-.78-29.29-4-36.06-5.22a6.08,6.08,0,0,0-6.53,2.35C506.27,467.05,501.27,472.52,496,478.53Z"/><path class="cls-2" d="M378.73,463.11a.75.75,0,0,0-.25.38.69.69,0,0,0,0,.47.74.74,0,0,0,.3.35.81.81,0,0,0,.45.11c3.55.41,18.25,2.7,33.45,3.92,4.29,0,1.25.36,18.28-17.52a.7.7,0,0,0,.26-.39.73.73,0,0,0,0-.46.72.72,0,0,0-.75-.46c-33.09-4.56-33.09-5.56-34.23-4.44C390.23,451.08,384.55,457.16,378.73,463.11Z"/><path class="cls-2" d="M472,454.22c-12.06-1.5-27.62-3-33.7-3.91a6.72,6.72,0,0,0-3.58.28,6.82,6.82,0,0,0-3,2.07c-4.55,5.4-9.4,10.7-14.37,16.46,7.44,1.06,6.35.71,35.27,4.18a6.25,6.25,0,0,0,3.14-.78c5.49-5.49,10.7-11.24,16.19-17Z"/><path class="cls-2" d="M458.16,474.08c8.88,1.05,17.51,1.56,26.13,3.41A13.69,13.69,0,0,0,500,470.68a139,139,0,0,1,9.15-11,1,1,0,0,0,.19-.44,1.12,1.12,0,0,0,0-.48,1,1,0,0,0-.26-.4,1,1,0,0,0-.42-.25c-31.85-3.4-27.29-3.1-30.83-3.4-1.57,0-2.35,1-3.4,2.09A170.44,170.44,0,0,0,458.16,474.08Z"/><path class="cls-2" d="M589.05,470.17c-8.88-1.31-13.86-2.25-24.56-3.67-6.27-.82-8.87-3.28-12,2.09-5.09,8.7-7.86,9-11.76,14.9,15.17,1.68,22.16,2.85,31.35,3.66,4,0,4.38-1.65,17.24-15.94a.62.62,0,0,0,.24-.27.59.59,0,0,0,0-.35.54.54,0,0,0-.19-.3A.5.5,0,0,0,589.05,470.17Z"/></g></svg>