<svg xmlns="http://www.w3.org/2000/svg" viewBox="0 0 43.71 44.71"><defs><style>.cls-1{fill:#6447c9;fill-rule:evenodd;}</style></defs><title>dotNet</title><g id="Capa_3" data-name="Capa 3"><path class="cls-1" d="M41.86,22.36a20,20,0,0,1-6.2,14.48h0A20,20,0,0,1,7.36,8.58v0h0a20,20,0,0,1,34.48,13.8Zm-36,6.22a.85.85,0,0,1-.62-.26.88.88,0,0,1,0-1.25.88.88,0,1,1,.62,1.51Zm11.75,0h1.59V17.91H17.9v7.5A10.26,10.26,0,0,0,18,27h0c-.07-.13-.22-.36-.45-.71L12,17.91H10.3V28.58h1.29V20.87a8.87,8.87,0,0,0-.06-1.46h.05a3.48,3.48,0,0,0,.35.66Zm10.47,0H22.75V17.91h5.08V19H23.94v3.55h3.62v1.12H23.94v3.7h4.14ZM34,19h3V17.91H29.86V19h2.66v9.54H34Z"/></g></svg>