<svg xmlns="http://www.w3.org/2000/svg" viewBox="0 0 43.71 44.71"><defs><style>.cls-1{fill:#ebebee;}</style></defs><title>postgreSql</title><g id="Capa_4" data-name="Capa 4"><path class="cls-1" d="M23.79,3.07c-7.18,0-9,5.45-9.66,8.62A14.25,14.25,0,0,1,18,10.78h0c2.2,0,2.89.64,3.33,2.69a28.43,28.43,0,0,1,.49,5,14.93,14.93,0,0,1-1.11,5.64l-.15.4c-.11.32-.25.62-.37.9s-.23.55-.3.78a5.38,5.38,0,0,1,1.08.36l.15.07a.45.45,0,0,1,.12.06c.83.5.58,1.65.58,2.55,0,.75,0,3.75,0,6.61a11.12,11.12,0,0,0,.67,3,3.71,3.71,0,0,0,3.19,2.74c1.49.07,3.64-.72,3.85-3.85V30.08c.15-2.57,3.1-3.6,3.86-4.17a20.32,20.32,0,0,0-.94-2.07l-.08-.16c-.06-.15-.22-.42-.42-.78-1.14-2.06-3.52-7.36-1.89-10.07a3.62,3.62,0,0,1,3.33-2.05C32.65,8.54,30.48,3.18,23.79,3.07Zm-12.66,0c-3.61.13-8.56,2.37-8.56,9.66C2.57,17.68,5.93,32,11.23,32a1.59,1.59,0,0,0,.73-.21,2.33,2.33,0,0,1-.85-1.62c-.08-1.41.94-2.39,3.13-3a8.12,8.12,0,0,0,1.89-.88,5.41,5.41,0,0,1-1.88-1.23,7.23,7.23,0,0,1-2-5.85,22.83,22.83,0,0,0,0-4.9v-.1l0-.34-.05-.71.06-1.9A13.11,13.11,0,0,1,16.07,3.9,14.79,14.79,0,0,0,11.13,3.07Zm20.24,0c-.36,0-.71,0-1.05.08a13.62,13.62,0,0,1,4.93,7l.08,2.65a2.51,2.51,0,0,0,0,.27,4.51,4.51,0,0,1,.07,1.33c-.07.62-.15,1.25-.17,1.88a12.26,12.26,0,0,0,.16,1.89,8.47,8.47,0,0,1-.29,3.57l-.56,1.94c.15.34.29.68.43,1,0,.09.07.16.09.22l.63.87c3.41-3,5.42-9.27,5.42-15.74a4.53,4.53,0,0,0-.78-2.77A11,11,0,0,0,31.37,3.07ZM18,12.71a13.63,13.63,0,0,0-3.12.75l-.69.29,0,.05c0,.1,0,.23,0,.39a25.32,25.32,0,0,1-.06,5.34,5.27,5.27,0,0,0,1.52,4.24,5.68,5.68,0,0,0,2.65,1.32c.05-.14.1-.25.16-.4s.22-.53.34-.83l.15-.41a13.14,13.14,0,0,0,1-5A27.32,27.32,0,0,0,19.68,15s0,0-.05.06a1.44,1.44,0,0,1-1.22.47A1.88,1.88,0,0,1,17,14.07c0-.36.74-.54,1.53-.42a3.41,3.41,0,0,1,.74.22l.21.15a.8.8,0,0,0,0-.15c-.18-.85-.33-1-.34-1S18.93,12.72,18,12.71Zm15.4,0a1.7,1.7,0,0,0-1.54.92c.66,0,1.14.22,1.19.62a1.07,1.07,0,0,1-.37.81,1.75,1.75,0,0,1-.95.47H31.5a16.79,16.79,0,0,0,1.79,5.66,6.5,6.5,0,0,0,.23-2.77,13,13,0,0,1-.18-2.22c0-.71.11-1.38.18-2A13.72,13.72,0,0,0,33.4,12.73Zm4.24,14.51a1.8,1.8,0,0,0-.62.05,10.52,10.52,0,0,1-2.62.28c-.21.14-.43.27-.7.42-1.08.6-2.05,1.22-2.17,2.08V31.2A9.86,9.86,0,0,0,35.48,30C37.33,29.16,38.71,27.38,37.64,27.24Zm-20,.45a12.27,12.27,0,0,1-3.06,1.42c-2.83.75-1.07,1.64-.07,1.73,1.07.27,3.69.86,5.38-.52h0V29.26c0-.2,0-.41,0-.62s0-.27,0-.4a3.56,3.56,0,0,0-.46-.15Z"/></g></svg>